<svg width="22" height="22" viewBox="0 0 22 22" fill="none" xmlns="http://www.w3.org/2000/svg">
<path d="M12.1935 21.625L11 20.9375L13.75 16.125H17.875C18.0556 16.1253 18.2346 16.0899 18.4015 16.0209C18.5685 15.9519 18.7201 15.8506 18.8479 15.7229C18.9756 15.5951 19.0769 15.4435 19.1459 15.2765C19.2149 15.1096 19.2503 14.9306 19.25 14.75V6.5C19.2503 6.31936 19.2149 6.14043 19.1459 5.97349C19.0769 5.80654 18.9756 5.65486 18.8479 5.52712C18.7201 5.39939 18.5685 5.29812 18.4015 5.22911C18.2346 5.16011 18.0556 5.12473 17.875 5.125H4.125C3.94436 5.12473 3.76543 5.16011 3.59849 5.22911C3.43154 5.29812 3.27986 5.39939 3.15212 5.52712C3.02439 5.65486 2.92312 5.80654 2.85411 5.97349C2.78511 6.14043 2.74973 6.31936 2.75 6.5V14.75C2.74973 14.9306 2.78511 15.1096 2.85411 15.2765C2.92312 15.4435 3.02439 15.5951 3.15212 15.7229C3.27986 15.8506 3.43154 15.9519 3.59849 16.0209C3.76543 16.0899 3.94436 16.1253 4.125 16.125H10.3125V17.5H4.125C3.39565 17.5 2.69618 17.2103 2.18046 16.6945C1.66473 16.1788 1.375 15.4793 1.375 14.75V6.5C1.375 5.77065 1.66473 5.07118 2.18046 4.55546C2.69618 4.03973 3.39565 3.75 4.125 3.75H17.875C18.6043 3.75 19.3038 4.03973 19.8195 4.55546C20.3353 5.07118 20.625 5.77065 20.625 6.5V14.75C20.625 15.4793 20.3353 16.1788 19.8195 16.6945C19.3038 17.2103 18.6043 17.5 17.875 17.5H14.5509L12.1935 21.625Z" fill="#6BC8E1"/>
<path fill-rule="evenodd" clip-rule="evenodd" d="M12.0106 6.69102C11.6399 5.76966 10.3604 5.76966 9.98972 6.69102L9.45511 8.01779L7.99821 8.14793C7.02393 8.23546 6.64417 9.48392 7.40031 10.1174L8.45258 10.9984L8.1022 12.6488C7.89536 13.6266 8.96119 14.3649 9.77837 13.8086L10.999 12.9759L12.222 13.8086C13.038 14.3649 14.1039 13.6266 13.897 12.6488L13.5466 10.9984L14.5989 10.1174C15.3562 9.48392 14.9764 8.23546 14.001 8.14793L12.543 8.01779L12.0106 6.69333V6.69102Z" fill="#146277"/>
</svg>
