<svg width="27" height="26" viewBox="0 0 27 26" fill="none" xmlns="http://www.w3.org/2000/svg">
<path d="M24.3 0H2.7C1.215 0 0.0135 1.215 0.0135 2.7C0.00869256 11.3534 0.00581108 16.5401 0.00134312 24.5824C0.000848025 25.4736 1.07854 25.9215 1.70869 25.2913C2.82643 24.1736 3.78897 23.211 5.10649 21.8935C5.29403 21.706 5.549 21.6 5.81421 21.6H24.3C25.785 21.6 27 20.385 27 18.9V2.7C27 1.215 25.785 0 24.3 0ZM6.4 16.2C5.84771 16.2 5.4 15.7523 5.4 15.2V13.2797C5.4 13.0145 5.50536 12.7601 5.69289 12.5726L14.688 3.5775C14.958 3.3075 15.3765 3.3075 15.6465 3.5775L18.036 5.967C18.306 6.237 18.306 6.6555 18.036 6.9255L9.02722 15.9081C8.83976 16.095 8.58585 16.2 8.32114 16.2H6.4ZM21.6 15.2C21.6 15.7523 21.1523 16.2 20.6 16.2H13.8892C12.9983 16.2 12.5521 15.1229 13.1821 14.4929L13.8821 13.7929C14.0696 13.6054 14.324 13.5 14.5892 13.5H20.6C21.1523 13.5 21.6 13.9477 21.6 14.5V15.2Z" fill="#BAD4F3"/>
</svg>
