<svg width="29" height="29" viewBox="0 0 29 29" fill="none" xmlns="http://www.w3.org/2000/svg">
<path d="M16.8352 1.24106C16.2164 0.727948 15.4331 0.446533 14.6238 0.446533C13.8145 0.446533 13.0313 0.727948 12.4124 1.24106L2.11814 9.78596C1.73604 10.1028 1.42889 10.4979 1.21815 10.9436C1.00741 11.3894 0.898175 11.8751 0.898071 12.3667V26.3281C0.898071 27.7775 2.09374 28.9539 3.56697 28.9539H25.6807C26.3885 28.9539 27.0674 28.6772 27.5679 28.1848C28.0684 27.6924 28.3496 27.0245 28.3496 26.3281V12.3652C28.3495 11.8736 28.2402 11.3879 28.0295 10.9421C27.8188 10.4964 27.5116 10.1013 27.1295 9.78446L16.8352 1.24106ZM15.7676 6.81813V9.06876C15.7676 9.36722 15.6471 9.65344 15.4326 9.86448C15.2181 10.0755 14.9272 10.1941 14.6238 10.1941C14.3205 10.1941 14.0295 10.0755 13.815 9.86448C13.6005 9.65344 13.48 9.36722 13.48 9.06876V6.81813C13.48 6.51968 13.6005 6.23345 13.815 6.02241C14.0295 5.81137 14.3205 5.69281 14.6238 5.69281C14.9272 5.69281 15.2181 5.81137 15.4326 6.02241C15.6471 6.23345 15.7676 6.51968 15.7676 6.81813ZM14.6238 13.1949C14.9272 13.1949 15.2181 13.3135 15.4326 13.5245C15.6471 13.7356 15.7676 14.0218 15.7676 14.3202V16.5709C15.7676 16.8693 15.6471 17.1556 15.4326 17.3666C15.2181 17.5776 14.9272 17.6962 14.6238 17.6962C14.3205 17.6962 14.0295 17.5776 13.815 17.3666C13.6005 17.1556 13.48 16.8693 13.48 16.5709V14.3202C13.48 14.0218 13.6005 13.7356 13.815 13.5245C14.0295 13.3135 14.3205 13.1949 14.6238 13.1949ZM15.7676 21.8224V24.073C15.7676 24.3714 15.6471 24.6577 15.4326 24.8687C15.2181 25.0797 14.9272 25.1983 14.6238 25.1983C14.3205 25.1983 14.0295 25.0797 13.815 24.8687C13.6005 24.6577 13.48 24.3714 13.48 24.073V21.8224C13.48 21.5239 13.6005 21.2377 13.815 21.0266C14.0295 20.8156 14.3205 20.697 14.6238 20.697C14.9272 20.697 15.2181 20.8156 15.4326 21.0266C15.6471 21.2377 15.7676 21.5239 15.7676 21.8224Z" fill="#B1DDEA"/>
</svg>
