<svg width="29" height="29" viewBox="0 0 29 29" fill="none" xmlns="http://www.w3.org/2000/svg">
<path d="M16.8353 1.24118C16.2164 0.72807 15.4332 0.446655 14.6239 0.446655C13.8146 0.446655 13.0313 0.72807 12.4125 1.24118L2.1182 9.78609C1.7361 10.1029 1.42895 10.498 1.21821 10.9438C1.00747 11.3895 0.898236 11.8752 0.898132 12.3668V26.3282C0.898132 27.7776 2.0938 28.954 3.56703 28.954H25.6807C26.3886 28.954 27.0674 28.6773 27.5679 28.1849C28.0684 27.6925 28.3496 27.0246 28.3496 26.3282V12.3653C28.3495 11.8737 28.2403 11.388 28.0296 10.9423C27.8188 10.4965 27.5117 10.1014 27.1296 9.78459L16.8353 1.24118ZM15.7677 6.81825V9.06888C15.7677 9.36734 15.6472 9.65357 15.4327 9.8646C15.2182 10.0756 14.9272 10.1942 14.6239 10.1942C14.3205 10.1942 14.0296 10.0756 13.8151 9.8646C13.6006 9.65357 13.4801 9.36734 13.4801 9.06888V6.81825C13.4801 6.5198 13.6006 6.23357 13.8151 6.02253C14.0296 5.81149 14.3205 5.69293 14.6239 5.69293C14.9272 5.69293 15.2182 5.81149 15.4327 6.02253C15.6472 6.23357 15.7677 6.5198 15.7677 6.81825ZM14.6239 13.195C14.9272 13.195 15.2182 13.3136 15.4327 13.5246C15.6472 13.7357 15.7677 14.0219 15.7677 14.3204V16.571C15.7677 16.8694 15.6472 17.1557 15.4327 17.3667C15.2182 17.5778 14.9272 17.6963 14.6239 17.6963C14.3205 17.6963 14.0296 17.5778 13.8151 17.3667C13.6006 17.1557 13.4801 16.8694 13.4801 16.571V14.3204C13.4801 14.0219 13.6006 13.7357 13.8151 13.5246C14.0296 13.3136 14.3205 13.195 14.6239 13.195ZM15.7677 21.8225V24.0731C15.7677 24.3716 15.6472 24.6578 15.4327 24.8688C15.2182 25.0799 14.9272 25.1984 14.6239 25.1984C14.3205 25.1984 14.0296 25.0799 13.8151 24.8688C13.6006 24.6578 13.4801 24.3716 13.4801 24.0731V21.8225C13.4801 21.524 13.6006 21.2378 13.8151 21.0268C14.0296 20.8157 14.3205 20.6972 14.6239 20.6972C14.9272 20.6972 15.2182 20.8157 15.4327 21.0268C15.6472 21.2378 15.7677 21.524 15.7677 21.8225Z" fill="#BAD4F3"/>
</svg>
