<svg width="30" height="30" viewBox="0 0 30 30" fill="none" xmlns="http://www.w3.org/2000/svg">
<path d="M1.66545e-06 15.2248C0.000743041 11.9841 1.06647 8.83347 3.03316 6.25774C4.99984 3.68202 7.7585 1.82399 10.8846 0.969613C14.0106 0.115233 17.3308 0.311853 20.3342 1.52921C23.3376 2.74657 25.8577 4.9172 27.5066 7.70704C29.1555 10.4969 29.842 13.7513 29.4602 16.9694C29.0785 20.1876 27.6497 23.1911 25.3938 25.5177C23.138 27.8444 20.18 29.3652 16.9752 29.8461C13.7703 30.327 10.4963 29.7414 7.65685 28.1794L1.90978 29.9295C1.65344 30.0076 1.3807 30.0146 1.12072 29.9496C0.860743 29.8846 0.623316 29.7502 0.433834 29.5608C0.244351 29.3713 0.109941 29.1338 0.044981 28.8739C-0.0199789 28.6139 -0.0130452 28.3411 0.0650404 28.0848L1.81518 22.3289C0.623087 20.1509 -0.00117682 17.7077 1.66545e-06 15.2248ZM8.86894 13.7467C8.86894 14.1387 9.02468 14.5147 9.30188 14.7919C9.57909 15.0691 9.95507 15.2248 10.3471 15.2248H19.216C19.6081 15.2248 19.984 15.0691 20.2613 14.7919C20.5385 14.5147 20.6942 14.1387 20.6942 13.7467C20.6942 13.3547 20.5385 12.9787 20.2613 12.7015C19.984 12.4243 19.6081 12.2685 19.216 12.2685H10.3471C9.95507 12.2685 9.57909 12.4243 9.30188 12.7015C9.02468 12.9787 8.86894 13.3547 8.86894 13.7467ZM10.3471 18.1812C9.95507 18.1812 9.57909 18.3369 9.30188 18.6141C9.02468 18.8913 8.86894 19.2673 8.86894 19.6593C8.86894 20.0513 9.02468 20.4273 9.30188 20.7045C9.57909 20.9817 9.95507 21.1375 10.3471 21.1375H16.2597C16.6518 21.1375 17.0277 20.9817 17.3049 20.7045C17.5821 20.4273 17.7379 20.0513 17.7379 19.6593C17.7379 19.2673 17.5821 18.8913 17.3049 18.6141C17.0277 18.3369 16.6518 18.1812 16.2597 18.1812H10.3471Z" fill="#BAD4F3"/>
</svg>
