<svg width="27" height="33" viewBox="0 0 27 33" fill="none" xmlns="http://www.w3.org/2000/svg">
<path d="M22.5242 18.9237C23.5743 18.9237 24.5814 19.3409 25.3239 20.0834C26.0664 20.8259 26.4836 21.833 26.4836 22.8831V23.8267C26.4836 28.5476 20.9273 32.1216 13.2857 32.1216C5.64418 32.1216 0.0878906 28.7337 0.0878906 23.8267V22.8831C0.0878906 21.833 0.505035 20.8259 1.24756 20.0834C1.99008 19.3409 2.99716 18.9237 4.04724 18.9237H22.5242ZM13.2857 0.446777C14.3256 0.446777 15.3553 0.651601 16.3161 1.04955C17.2768 1.4475 18.1498 2.03079 18.8851 2.76611C19.6204 3.50143 20.2037 4.37438 20.6017 5.33512C20.9996 6.29586 21.2044 7.32558 21.2044 8.36548C21.2044 9.40538 20.9996 10.4351 20.6017 11.3958C20.2037 12.3566 19.6204 13.2295 18.8851 13.9648C18.1498 14.7002 17.2768 15.2835 16.3161 15.6814C15.3553 16.0794 14.3256 16.2842 13.2857 16.2842C11.1856 16.2842 9.1714 15.4499 7.68636 13.9648C6.20131 12.4798 5.36702 10.4656 5.36702 8.36548C5.36702 6.26531 6.20131 4.25116 7.68636 2.76611C9.1714 1.28107 11.1856 0.446777 13.2857 0.446777Z" fill="#2E80E6"/>
</svg>
