<svg width="12" height="17" viewBox="0 0 12 17" fill="none" xmlns="http://www.w3.org/2000/svg">
<path d="M1.15616 5.66663H10.8437L10.2645 14.9375C10.238 15.3606 10.0512 15.7578 9.7422 16.048C9.43318 16.3383 9.02514 16.4999 8.60116 16.5H3.39949C2.97551 16.4999 2.56747 16.3383 2.25845 16.048C1.94943 15.7578 1.76266 15.3606 1.73616 14.9375L1.15616 5.66663ZM11.8337 3.16663V4.83329H0.166992V3.16663H2.66699V2.33329C2.66699 1.89127 2.84259 1.46734 3.15515 1.15478C3.46771 0.842221 3.89163 0.666626 4.33366 0.666626H7.66699C8.10902 0.666626 8.53294 0.842221 8.8455 1.15478C9.15806 1.46734 9.33366 1.89127 9.33366 2.33329V3.16663H11.8337ZM4.33366 3.16663H7.66699V2.33329H4.33366V3.16663Z" fill="#6BC8E1"/>
</svg>
