<svg width="20" height="20" viewBox="0 0 20 20" fill="none" xmlns="http://www.w3.org/2000/svg">
<path d="M5.15591 6.66663H14.8434L14.2642 15.9375C14.2377 16.3606 14.051 16.7578 13.742 17.048C13.4329 17.3383 13.0249 17.4999 12.6009 17.5H7.39925C6.97526 17.4999 6.56723 17.3383 6.25821 17.048C5.94919 16.7578 5.76241 16.3606 5.73591 15.9375L5.15591 6.66663ZM15.8334 4.16663V5.83329H4.16675V4.16663H6.66675V3.33329C6.66675 2.89127 6.84234 2.46734 7.1549 2.15478C7.46746 1.84222 7.89139 1.66663 8.33341 1.66663H11.6667C12.1088 1.66663 12.5327 1.84222 12.8453 2.15478C13.1578 2.46734 13.3334 2.89127 13.3334 3.33329V4.16663H15.8334ZM8.33341 4.16663H11.6667V3.33329H8.33341V4.16663Z" fill="#8FBFFA"/>
</svg>
