<svg width="7" height="10" viewBox="0 0 7 10" fill="none" xmlns="http://www.w3.org/2000/svg">
<path d="M3.5 9.33333C3.5 9.33333 7 6.53333 7 3.5C7 1.56707 5.43293 0 3.5 0C1.56707 0 0 1.56707 0 3.5C0 6.53333 3.5 9.33333 3.5 9.33333Z" fill="#4ABAD9"/>
<path d="M3.49993 4.89993C3.68379 4.89993 3.86584 4.86372 4.03569 4.79337C4.20555 4.72301 4.35988 4.61989 4.48988 4.48988C4.61989 4.35988 4.72301 4.20555 4.79337 4.03569C4.86372 3.86584 4.89993 3.68379 4.89993 3.49993C4.89993 3.31608 4.86372 3.13403 4.79337 2.96418C4.72301 2.79432 4.61989 2.63999 4.48988 2.50999C4.35988 2.37998 4.20555 2.27686 4.03569 2.2065C3.86584 2.13615 3.68379 2.09993 3.49993 2.09993C3.12863 2.09993 2.77254 2.24743 2.50999 2.50999C2.24743 2.77254 2.09993 3.12863 2.09993 3.49993C2.09993 3.87124 2.24743 4.22733 2.50999 4.48988C2.77254 4.75244 3.12863 4.89993 3.49993 4.89993Z" fill="white"/>
</svg>
