<svg width="29" height="29" viewBox="0 0 29 29" fill="none" xmlns="http://www.w3.org/2000/svg">
<path d="M16.8353 1.24106C16.2165 0.727948 15.4332 0.446533 14.6239 0.446533C13.8146 0.446533 13.0314 0.727948 12.4126 1.24106L2.11826 9.78596C1.73616 10.1028 1.42901 10.4979 1.21827 10.9436C1.00754 11.3894 0.898297 11.8751 0.898193 12.3667V26.3281C0.898193 27.7775 2.09386 28.9539 3.56709 28.9539H25.6808C26.3886 28.9539 27.0675 28.6772 27.568 28.1848C28.0685 27.6924 28.3497 27.0245 28.3497 26.3281V12.3652C28.3496 11.8736 28.2403 11.3879 28.0296 10.9421C27.8189 10.4964 27.5117 10.1013 27.1296 9.78446L16.8353 1.24106ZM15.7678 6.81813V9.06876C15.7678 9.36722 15.6472 9.65344 15.4327 9.86448C15.2182 10.0755 14.9273 10.1941 14.6239 10.1941C14.3206 10.1941 14.0297 10.0755 13.8151 9.86448C13.6006 9.65344 13.4801 9.36722 13.4801 9.06876V6.81813C13.4801 6.51968 13.6006 6.23345 13.8151 6.02241C14.0297 5.81137 14.3206 5.69281 14.6239 5.69281C14.9273 5.69281 15.2182 5.81137 15.4327 6.02241C15.6472 6.23345 15.7678 6.51968 15.7678 6.81813ZM14.6239 13.1949C14.9273 13.1949 15.2182 13.3135 15.4327 13.5245C15.6472 13.7356 15.7678 14.0218 15.7678 14.3202V16.5709C15.7678 16.8693 15.6472 17.1556 15.4327 17.3666C15.2182 17.5776 14.9273 17.6962 14.6239 17.6962C14.3206 17.6962 14.0297 17.5776 13.8151 17.3666C13.6006 17.1556 13.4801 16.8693 13.4801 16.5709V14.3202C13.4801 14.0218 13.6006 13.7356 13.8151 13.5245C14.0297 13.3135 14.3206 13.1949 14.6239 13.1949ZM15.7678 21.8224V24.073C15.7678 24.3714 15.6472 24.6577 15.4327 24.8687C15.2182 25.0797 14.9273 25.1983 14.6239 25.1983C14.3206 25.1983 14.0297 25.0797 13.8151 24.8687C13.6006 24.6577 13.4801 24.3714 13.4801 24.073V21.8224C13.4801 21.5239 13.6006 21.2377 13.8151 21.0266C14.0297 20.8156 14.3206 20.697 14.6239 20.697C14.9273 20.697 15.2182 20.8156 15.4327 21.0266C15.6472 21.2377 15.7678 21.5239 15.7678 21.8224Z" fill="#4ABAD9"/>
</svg>
