<svg width="7" height="10" viewBox="0 0 7 10" fill="none" xmlns="http://www.w3.org/2000/svg">
<path d="M3.5 9.33333C3.5 9.33333 7 6.53333 7 3.5C7 1.56707 5.43293 0 3.5 0C1.56707 0 0 1.56707 0 3.5C0 6.53333 3.5 9.33333 3.5 9.33333Z" fill="#4ABAD9"/>
<path d="M3.49961 4.89998C3.68346 4.89998 3.86551 4.86376 4.03537 4.79341C4.20522 4.72305 4.35956 4.61993 4.48956 4.48993C4.61956 4.35992 4.72268 4.20559 4.79304 4.03573C4.8634 3.86588 4.89961 3.68383 4.89961 3.49998C4.89961 3.31612 4.8634 3.13407 4.79304 2.96422C4.72268 2.79436 4.61956 2.64003 4.48956 2.51003C4.35956 2.38002 4.20522 2.2769 4.03537 2.20654C3.86551 2.13619 3.68346 2.09998 3.49961 2.09998C3.12831 2.09998 2.77221 2.24748 2.50966 2.51003C2.24711 2.77258 2.09961 3.12867 2.09961 3.49998C2.09961 3.87128 2.24711 4.22737 2.50966 4.48993C2.77221 4.75248 3.12831 4.89998 3.49961 4.89998Z" fill="white"/>
</svg>
