<svg width="21" height="21" viewBox="0 0 21 21" fill="none" xmlns="http://www.w3.org/2000/svg">
<g clip-path="url(#clip0_424_2343)">
<path fill-rule="evenodd" clip-rule="evenodd" d="M16.6878 1.37705C16.1958 0.177051 14.4978 0.177051 14.0058 1.37705L13.2963 3.10505L11.3628 3.27455C10.0698 3.38855 9.56585 5.01455 10.5693 5.83955L11.9658 6.98705L11.5008 9.13655C11.2263 10.4101 12.6408 11.3716 13.7253 10.6471L15.3453 9.56255L16.9683 10.6471C18.0513 11.3716 19.4658 10.4101 19.1913 9.13655L18.7263 6.98705L20.1228 5.83955C21.1278 5.01455 20.6238 3.38855 19.3293 3.27455L17.3943 3.10505L16.6878 1.38005V1.37705Z" fill="#146277"/>
<path fill-rule="evenodd" clip-rule="evenodd" d="M12.7757 15.1305L16.5077 14.2455C16.9633 14.1401 17.4418 14.2099 17.8484 14.4411C18.2549 14.6722 18.5596 15.0478 18.702 15.4932C18.8444 15.9386 18.8141 16.4213 18.6172 16.8454C18.4202 17.2695 18.0709 17.604 17.6387 17.7825L12.7817 19.755C10.4192 20.715 7.78668 20.775 5.38218 19.9245L0.84618 18.3195C0.699904 18.2677 0.573309 18.1717 0.483846 18.0449C0.394383 17.9181 0.346459 17.7667 0.34668 17.6115V11.076C0.346946 10.8866 0.418848 10.7044 0.547949 10.5658C0.677049 10.4272 0.853789 10.3426 1.04268 10.329L2.40018 10.23C3.13591 10.1775 3.8753 10.2434 4.59018 10.425L8.04468 11.307C8.37377 11.3888 8.65809 11.5955 8.83743 11.8833C9.01677 12.1711 9.07705 12.5174 9.00549 12.8488C8.93393 13.1803 8.73616 13.4709 8.45407 13.6591C8.17197 13.8473 7.8277 13.9183 7.49418 13.857L7.12968 13.7925L5.43168 13.4595C5.23655 13.4203 5.03384 13.4603 4.86815 13.5705C4.70246 13.6808 4.58737 13.8524 4.54818 14.0475C4.509 14.2426 4.54893 14.4453 4.6592 14.611C4.76947 14.7767 4.94105 14.8918 5.13618 14.931L8.93568 15.7065C9.48287 15.8184 10.0481 15.8066 10.5902 15.672L12.7742 15.129L12.7757 15.1305Z" fill="#6BC8E1"/>
</g>
<defs>
<clipPath id="clip0_424_2343">
<rect width="21" height="21" fill="white"/>
</clipPath>
</defs>
</svg>
