<svg width="22" height="22" viewBox="0 0 22 22" fill="none" xmlns="http://www.w3.org/2000/svg">
<path fill-rule="evenodd" clip-rule="evenodd" d="M4 0C2.93913 0 1.92172 0.421427 1.17157 1.17157C0.421427 1.92172 0 2.93913 0 4V18C0 19.0609 0.421427 20.0783 1.17157 20.8284C1.92172 21.5786 2.93913 22 4 22H18C19.0609 22 20.0783 21.5786 20.8284 20.8284C21.5786 20.0783 22 19.0609 22 18V4C22 2.93913 21.5786 1.92172 20.8284 1.17157C20.0783 0.421427 19.0609 0 18 0H4ZM3 9.909C3 6.226 6.657 3.364 11 3.364C15.343 3.364 19 6.226 19 9.909C19 13.592 15.343 16.454 11 16.454C10.664 16.4542 10.3283 16.4376 9.994 16.404L6.464 18.582C6.40448 18.6187 6.33566 18.6375 6.26576 18.6361C6.19585 18.6347 6.12783 18.6132 6.06982 18.5742C6.01181 18.5351 5.96627 18.4802 5.93863 18.416C5.911 18.3518 5.90245 18.281 5.914 18.212L6.41 15.272C4.371 14.102 3 12.151 3 9.909ZM5.545 7.954C5.41239 7.954 5.28521 8.00668 5.19145 8.10045C5.09768 8.19421 5.045 8.32139 5.045 8.454C5.045 8.58661 5.09768 8.71379 5.19145 8.80755C5.28521 8.90132 5.41239 8.954 5.545 8.954H6.136V11.727C6.136 11.8596 6.18868 11.9868 6.28245 12.0806C6.37621 12.1743 6.50339 12.227 6.636 12.227C6.76861 12.227 6.89579 12.1743 6.98955 12.0806C7.08332 11.9868 7.136 11.8596 7.136 11.727V8.954H7.727C7.85961 8.954 7.98678 8.90132 8.08055 8.80755C8.17432 8.71379 8.227 8.58661 8.227 8.454C8.227 8.32139 8.17432 8.19421 8.08055 8.10045C7.98678 8.00668 7.85961 7.954 7.727 7.954H5.545ZM9.83 8.274C9.79348 8.1801 9.72945 8.09943 9.6463 8.04255C9.56315 7.98566 9.46475 7.95523 9.364 7.95523C9.26325 7.95523 9.16485 7.98566 9.0817 8.04255C8.99855 8.09943 8.93452 8.1801 8.898 8.274L7.625 11.546C7.57979 11.669 7.58467 11.8048 7.63858 11.9242C7.69249 12.0437 7.79113 12.1371 7.91327 12.1846C8.03541 12.232 8.17129 12.2296 8.29168 12.1779C8.41207 12.1262 8.50734 12.0293 8.557 11.908L8.716 11.5H10.012L10.17 11.908C10.1929 11.9703 10.228 12.0275 10.2733 12.0761C10.3185 12.1248 10.373 12.1639 10.4336 12.1912C10.4941 12.2185 10.5595 12.2335 10.6259 12.2353C10.6923 12.2371 10.7584 12.2256 10.8203 12.2016C10.8822 12.1775 10.9388 12.1414 10.9866 12.0952C11.0343 12.0491 11.0725 11.9939 11.0987 11.9329C11.1249 11.8718 11.1387 11.8062 11.1393 11.7398C11.1398 11.6733 11.1272 11.6075 11.102 11.546L9.83 8.274ZM9.364 9.834L9.623 10.5H9.105L9.364 9.834ZM12.227 8.454C12.227 8.32139 12.1743 8.19421 12.0806 8.10045C11.9868 8.00668 11.8596 7.954 11.727 7.954C11.5944 7.954 11.4672 8.00668 11.3734 8.10045C11.2797 8.19421 11.227 8.32139 11.227 8.454V11.727C11.227 11.8596 11.2797 11.9868 11.3734 12.0806C11.4672 12.1743 11.5944 12.227 11.727 12.227H13.182C13.3146 12.227 13.4418 12.1743 13.5356 12.0806C13.6293 11.9868 13.682 11.8596 13.682 11.727C13.682 11.5944 13.6293 11.4672 13.5356 11.3734C13.4418 11.2797 13.3146 11.227 13.182 11.227H12.227V8.454ZM14.273 7.954C14.4056 7.954 14.5328 8.00668 14.6266 8.10045C14.7203 8.19421 14.773 8.32139 14.773 8.454V9.429L16.1 8.101C16.1461 8.05324 16.2013 8.01515 16.2623 7.98895C16.3233 7.96274 16.3889 7.94895 16.4553 7.94837C16.5217 7.9478 16.5875 7.96045 16.649 7.98559C16.7104 8.01073 16.7663 8.04786 16.8132 8.0948C16.8601 8.14175 16.8973 8.19757 16.9224 8.25902C16.9476 8.32047 16.9602 8.38631 16.9596 8.4527C16.959 8.51909 16.9453 8.5847 16.9191 8.6457C16.8928 8.7067 16.8548 8.76188 16.807 8.808L15.669 9.946L16.844 11.415C16.922 11.5189 16.9566 11.649 16.9403 11.7779C16.924 11.9068 16.8583 12.0243 16.7569 12.1055C16.6555 12.1867 16.5265 12.2253 16.3972 12.2131C16.2678 12.2009 16.1484 12.1388 16.064 12.04L14.957 10.658L14.772 10.843V11.727C14.772 11.8596 14.7193 11.9868 14.6256 12.0806C14.5318 12.1743 14.4046 12.227 14.272 12.227C14.1394 12.227 14.0122 12.1743 13.9184 12.0806C13.8247 11.9868 13.772 11.8596 13.772 11.727V8.454C13.772 8.32139 13.8247 8.19421 13.9184 8.10045C14.0122 8.00668 14.1404 7.954 14.273 7.954Z" fill="#6E6E6E"/>
</svg>
