<svg width="216" height="79" viewBox="0 0 216 79" fill="none" xmlns="http://www.w3.org/2000/svg">
<path d="M16.6016 68.4999V70.0038H12.4805V72.0351H14.6484V77.6601H12.7734V73.4999H2.42188V72.0351H4.72656V70.0038H0.644531V68.4999H16.6016ZM8.61328 60.5507C12.4414 60.5312 14.8633 61.8202 14.8633 63.9296C14.8633 66.039 12.4414 67.328 8.61328 67.3085C4.78516 67.328 2.36328 66.039 2.36328 63.9296C2.36328 61.8202 4.78516 60.5312 8.61328 60.5507ZM8.61328 62.0155C5.91797 61.996 4.25781 62.7187 4.27734 63.9296C4.25781 65.1601 5.91797 65.8632 8.61328 65.8632C11.2891 65.8632 12.9492 65.1601 12.9492 63.9296C12.9492 62.7187 11.2891 61.996 8.61328 62.0155ZM6.58203 72.0351H10.6641V70.0038H6.58203V72.0351Z" fill="#4ABAD9"/>
<path d="M22.6172 61.4687C25.2344 61.4687 27.0898 63.8515 27.1094 67.6015C27.0898 71.371 25.2344 73.7538 22.6172 73.7538C20 73.7538 18.125 71.371 18.1445 67.6015C18.125 63.8515 20 61.4687 22.6172 61.4687ZM22.6172 63.1288C21.0156 63.1288 19.9219 64.8476 19.9219 67.6015C19.9219 70.3749 21.0156 72.0937 22.6172 72.0937C24.2383 72.0937 25.332 70.3749 25.332 67.6015C25.332 64.8476 24.2383 63.1288 22.6172 63.1288ZM31.5625 60.1601V67.0155H34.375V68.578H31.5625V77.6601H29.707V60.1601H31.5625Z" fill="#4ABAD9"/>
<path d="M51.1719 68.6952V70.1991H35.2148V68.6952H39.043V66.332C37.6953 65.7851 36.9336 64.9062 36.9336 63.7538C36.9336 61.6835 39.3359 60.4726 43.1836 60.4726C47.0117 60.4726 49.4336 61.6835 49.4336 63.7538C49.4336 64.9062 48.6621 65.7948 47.3047 66.332V68.6952H51.1719ZM43.1836 71.3905C46.9531 71.3905 49.2188 72.5038 49.2188 74.496C49.2188 76.5273 46.9531 77.621 43.1836 77.621C39.375 77.621 37.1094 76.5273 37.1094 74.496C37.1094 72.5038 39.375 71.3905 43.1836 71.3905ZM43.1836 72.8163C40.5078 72.8163 38.9844 73.4218 38.9844 74.496C38.9844 75.5898 40.5078 76.2148 43.1836 76.1952C45.8203 76.2148 47.3633 75.5898 47.3633 74.496C47.3633 73.4218 45.8203 72.8163 43.1836 72.8163ZM43.1836 61.8984C40.4688 61.8984 38.8281 62.582 38.8477 63.7538C38.8281 64.9257 40.4688 65.5898 43.1836 65.5898C45.8984 65.5898 47.5195 64.9257 47.5195 63.7538C47.5195 62.582 45.8984 61.8984 43.1836 61.8984ZM40.918 68.6952H45.4688V66.8202C44.7852 66.9374 44.0137 66.996 43.1836 66.996C42.3633 66.996 41.6016 66.9374 40.918 66.8398V68.6952Z" fill="#4ABAD9"/>
<path d="M68.457 68.539V70.0234H61.3867V71.8984H66.5039V77.4452H54.4141V71.8984H59.5508V70.0234H52.5V68.539H68.457ZM66.9531 60.707V62.2109H64.4141V65.5507H66.875V67.0546H54.043V65.5507H56.5234V62.2109H53.9648V60.707H66.9531ZM56.25 73.3632V75.9413H64.707V73.3632H56.25ZM58.3594 65.5507H62.5586V62.2109H58.3594V65.5507Z" fill="#4ABAD9"/>
<path d="M88.8867 61.8398V63.7148C88.8672 65.9218 88.8672 68.2265 88.2422 71.5663L86.4258 71.371C87.0312 68.207 87.0312 65.8632 87.0312 63.7148V63.3437H76.3086V61.8398H88.8867ZM90.625 73.7538V75.2968H74.668V73.7538H78.4375V68.0898H80.293V73.7538H82.8125V68.0898H84.6289V73.7538H90.625Z" fill="#4ABAD9"/>
<path d="M105.723 60.1601V66.1562H108.223V67.6991H105.723V73.832H103.867V60.1601H105.723ZM106.348 75.7851V77.289H94.4141V72.914H96.2695V75.7851H106.348ZM91.8359 70.4335C93.1836 70.4335 94.7559 70.4238 96.4062 70.3554V69.1445C94.4141 68.9296 93.1445 67.9628 93.1641 66.5273C93.1445 64.828 94.8047 63.8124 97.3242 63.832C99.8242 63.8124 101.484 64.828 101.484 66.5273C101.484 67.953 100.234 68.9198 98.2617 69.1445V70.2773C99.8242 70.1894 101.406 70.0527 102.871 69.828L103.027 71.1366C99.2969 71.8398 95.0781 71.8984 92.0312 71.9179L91.8359 70.4335ZM102.383 61.7812V63.1484H92.2852V61.7812H96.4062V60.1015H98.2617V61.7812H102.383ZM97.3242 65.1015C95.8203 65.1015 94.9219 65.6288 94.9219 66.5273C94.9219 67.3866 95.8203 67.914 97.3242 67.914C98.8086 67.914 99.707 67.3866 99.707 66.5273C99.707 65.6288 98.8086 65.1015 97.3242 65.1015Z" fill="#4ABAD9"/>
<path d="M120.137 61.1952L115.586 78.1288H113.73L118.281 61.1952H120.137Z" fill="#4ABAD9"/>
<path d="M142.285 67.0351V68.5585H139.57V77.6405H137.715V60.1601H139.57V67.0351H142.285ZM128.438 61.8593V71.703C130.879 71.703 133.428 71.498 136.211 70.9218L136.426 72.4843C133.438 73.0898 130.664 73.246 128.047 73.246H126.602V61.8593H128.438Z" fill="#4ABAD9"/>
<path d="M157.363 64.789V66.2734H145.352V60.4726H147.188V64.789H157.363ZM159.199 67.9726V69.4765H152.07V71.4491H157.188V77.4257H145.254V71.4491H150.254V69.4765H143.223V67.9726H159.199ZM147.07 72.8945V75.9413H155.391V72.8945H147.07Z" fill="#4ABAD9"/>
<path d="M179.844 60.6874V62.0937H177.305V65.121H179.766V66.5468H166.934V65.121H169.414V62.0937H166.855V60.6874H179.844ZM181.348 67.8359V69.3007H165.391V67.8359H181.348ZM179.336 70.6679V74.6718H169.141V76.078H179.824V77.4843H167.324V73.3632H177.5V72.0546H167.305V70.6679H179.336ZM171.25 65.121H175.449V62.0937H171.25V65.121Z" fill="#4ABAD9"/>
<path d="M197.598 60.1796V72.0546H195.84V66.1562H193.691V70.5507H191.953V60.4921H193.691V64.6327H195.84V60.1796H197.598ZM190.059 61.4882V66.5077H185.254V68.832C187.422 68.8124 189.072 68.7148 190.996 68.3241L191.191 69.789C189.004 70.2382 187.207 70.3163 184.609 70.3163H183.457V65.1405H188.281V62.9921H183.418V61.4882H190.059ZM192.598 71.6445C192.598 73.7929 195.195 75.6679 198.496 76.1366L197.754 77.582C195.068 77.162 192.754 75.8632 191.68 74.0077C190.586 75.8632 188.281 77.162 185.605 77.582L184.863 76.1366C188.145 75.6679 190.742 73.7929 190.742 71.6445V71.2343H192.598V71.6445Z" fill="#4ABAD9"/>
<path d="M215.918 68.871V70.3554H199.961V68.871H206.992V67.0546H201.504V65.5507H203.984V62.2109H201.426V60.707H214.414V62.2109H211.875V65.5507H214.336V67.0546H208.848V68.871H215.918ZM213.965 71.8788V77.4452H201.875V71.8788H213.965ZM203.711 73.3241V75.9413H212.168V73.3241H203.711ZM205.82 65.5507H210.02V62.2109H205.82V65.5507Z" fill="#4ABAD9"/>
<path d="M27.0018 15.0003C27.0018 11.4194 26.9978 7.83859 27.0018 4.25572C27.0038 2.30947 27.7076 1.36047 29.6178 1.30619C33.0181 1.20968 36.4404 1.01466 39.8045 1.81889C44.7732 3.00715 48.459 7.12684 49.1386 12.1794C49.6976 16.3373 49.2009 20.2479 46.6452 23.7122C44.359 26.8125 41.1718 28.3164 37.4338 28.7628C35.0369 29.0483 32.622 28.9478 30.213 28.9256C27.782 28.9035 27.0018 28.0832 27.0018 25.6423C27.0018 22.0937 27.0018 18.547 27.0018 14.9983V15.0003ZM32.5093 14.94H32.5033C32.5033 17.7186 32.5194 20.4972 32.4913 23.2739C32.4852 23.8992 32.5978 24.2008 33.3056 24.1485C34.1381 24.0882 34.9786 24.1505 35.8151 24.1284C39.1228 24.0359 41.8736 22.1298 42.883 19.1361C43.7839 16.466 43.8241 13.7517 42.9072 11.0696C41.9601 8.30102 39.9996 6.65837 37.1342 6.0934C35.8774 5.84609 34.6026 5.91848 33.3358 5.86218C32.6642 5.83202 32.4872 6.04917 32.4953 6.70663C32.5295 9.45108 32.5093 12.1955 32.5093 14.94Z" fill="#4ABAD9"/>
<path d="M111.749 27.3395C111.236 28.6786 110.22 28.9983 109.038 28.9098C107.624 28.8032 107.017 28.1136 107.015 26.6901C107.011 18.7242 107.011 10.7602 107.017 2.79428C107.017 1.30243 107.902 0.506231 109.549 0.46803C111.238 0.427818 112.273 1.21195 112.3 2.69375C112.348 5.29545 112.314 7.89916 112.314 10.7482C113.428 9.46139 114.644 8.7034 116.128 8.4762C119.462 7.9635 122.114 9.10953 124.008 11.8882C126.94 16.1868 126.182 23.4732 122.36 26.9636C119.947 29.1672 117.087 29.8709 113.898 28.8153C113.084 28.5459 112.408 28.0794 111.749 27.3436V27.3395ZM112.318 19.0499H112.322C112.322 19.9205 112.312 20.7911 112.324 21.6596C112.35 23.4008 113.104 24.3237 114.787 24.6936C116.464 25.0615 118.38 24.3498 119.221 22.8378C120.64 20.2824 120.751 17.6002 119.466 14.9603C118.69 13.368 116.902 12.7286 115.083 13.2031C113.261 13.6776 112.324 14.8759 112.32 16.7417C112.318 17.5118 112.32 18.2818 112.32 19.0499H112.318Z" fill="#4ABAD9"/>
<path d="M152.562 27.3473C152.166 28.5738 151.235 28.9136 150.133 28.9397C148.528 28.9779 147.788 28.2541 147.788 26.6557C147.786 18.7862 147.796 10.9168 147.78 3.04735C147.778 2.03 147.957 1.14534 148.999 0.755285C150.181 0.312956 151.371 0.306923 152.419 1.12523C152.954 1.54343 153.095 2.16069 153.089 2.83423C153.07 5.07805 153.08 7.32187 153.078 9.56568C153.078 9.88738 153.078 10.2071 153.078 10.7439C154.211 9.46716 155.397 8.66292 156.915 8.45583C160.949 7.90493 164.256 9.75065 165.648 13.5708C167.184 17.795 166.951 21.9228 164.315 25.7127C162.342 28.5456 158.66 29.8485 155.363 28.99C154.301 28.7145 153.402 28.1717 152.562 27.3473ZM161.096 18.559C161.142 17.4914 160.957 16.4137 160.496 15.3904C159.352 12.8409 156.056 12.2257 154.046 14.184C153.448 14.7651 153.07 15.4346 153.078 16.3012C153.093 18.173 153.07 20.0469 153.089 21.9187C153.101 23.105 153.674 23.9333 154.772 24.4098C156.796 25.2885 159.117 24.5124 160.213 22.5621C160.9 21.3357 161.136 20.0006 161.096 18.557V18.559Z" fill="#4ABAD9"/>
<path d="M83.314 26.7167C80.9795 29.0088 78.4037 29.7044 75.4921 29.055C72.8619 28.4699 71.193 26.6825 71.0261 24.4166C70.7948 21.2559 72.124 18.9438 74.7963 17.9163C77.0886 17.0357 79.5036 17.0035 81.9105 16.9352C83.1773 16.899 83.2618 16.8065 83.0707 15.5438C82.7028 13.1151 80.6437 12.4998 78.3092 12.7632C77.0564 12.904 75.9545 13.4729 74.8647 14.0721C73.6984 14.7155 72.9524 14.6511 72.3331 13.9233C71.6474 13.1151 71.6716 11.8765 72.4397 10.9718C73.6542 9.54225 75.3272 8.95516 77.0866 8.61135C79.8012 8.08055 82.4755 8.11674 84.985 9.48796C87.1868 10.6903 88.2586 12.6386 88.3109 15.0694C88.3933 18.8854 88.331 22.7056 88.337 26.5237C88.337 27.529 87.9328 28.305 86.9878 28.6629C85.8879 29.0791 84.7538 29.1616 83.7403 28.4036C83.2718 28.0537 83.2336 27.4867 83.312 26.7147L83.314 26.7167ZM78.9446 25.1947C81.6974 25.2248 83.2939 23.5219 83.1391 20.7633C83.113 20.2989 82.9883 20.122 82.5037 20.1179C81.1605 20.1079 79.8273 20.1843 78.5344 20.5603C77.7944 20.7754 77.0665 21.0669 76.6342 21.7727C76.1657 22.5387 76.0752 23.3731 76.4975 24.1632C77.0142 25.1283 77.9874 25.1866 78.9466 25.1947H78.9446Z" fill="#4ABAD9"/>
<path d="M138.054 20.1417C136.58 20.1417 135.106 20.1658 133.634 20.1296C132.999 20.1135 132.916 20.3669 133.017 20.9117C133.606 24.1246 136.494 25.6145 139.864 24.4041C140.394 24.2131 140.917 23.9638 141.388 23.6562C142.2 23.1254 143.004 22.7856 143.861 23.4973C144.535 24.0583 144.669 25.4597 144.191 26.4006C143.843 27.0842 143.27 27.5668 142.622 27.9146C139.206 29.7442 135.651 29.9171 132.245 28.1317C128.995 26.4288 127.737 23.3445 127.527 19.8019C127.354 16.8463 127.905 14.0737 129.767 11.6751C132.663 7.94544 138.725 7.12512 142.158 10.0807C144.352 11.9686 145.124 14.5764 145.176 17.359C145.208 19.1183 144.044 20.1035 142.275 20.1316C140.869 20.1537 139.461 20.1356 138.056 20.1356V20.1417H138.054ZM136.65 16.8785C137.42 16.8785 138.189 16.8785 138.959 16.8785C139.909 16.8785 140.317 16.4047 140.181 15.457C139.924 13.6696 138.902 12.4954 137.435 12.3024C135.56 12.0551 134.205 12.8473 133.497 14.6548C133.292 15.1775 133.21 15.7465 133.051 16.2894C132.918 16.7478 133.097 16.8885 133.542 16.8805C134.579 16.8644 135.615 16.8745 136.652 16.8765L136.65 16.8785Z" fill="#4ABAD9"/>
<path d="M61.6377 20.1397C60.198 20.1397 58.7582 20.1517 57.3185 20.1336C56.8379 20.1276 56.6489 20.1658 56.7193 20.777C57.0511 23.6662 59.4821 25.329 62.5626 24.6836C63.4132 24.5046 64.2437 24.2413 64.9655 23.7286C65.7719 23.1576 66.5983 22.7273 67.5032 23.5034C68.1587 24.0663 68.2693 25.5703 67.7666 26.5052C67.4026 27.1807 66.8114 27.6251 66.16 27.9769C60.9801 30.7877 52.5027 29.5653 51.3062 20.968C50.7734 17.1338 51.4027 13.6032 54.3023 10.8166C56.9224 8.29931 60.1175 7.71624 63.5037 8.79995C66.7531 9.84143 67.9938 12.5718 68.6151 15.6661C68.7076 16.1225 68.77 16.591 68.782 17.0574C68.8323 18.9172 67.7163 20.0954 65.8563 20.1276C64.4508 20.1517 63.0432 20.1316 61.6377 20.1316V20.1397ZM60.3287 16.8785C60.9299 16.8785 61.5331 16.8785 62.1343 16.8785C64.2618 16.8805 64.306 16.8162 63.6364 14.7111C63.1257 13.1086 62.2289 12.3346 60.8314 12.2883C58.5491 12.2139 56.7876 13.9611 56.7615 16.2954C56.7575 16.7237 56.8741 16.8946 57.3205 16.8825C58.3239 16.8584 59.3273 16.8745 60.3287 16.8765V16.8785Z" fill="#4ABAD9"/>
<path d="M178.955 20.1397C177.481 20.1397 176.01 20.1498 174.536 20.1337C174.069 20.1297 173.85 20.1478 173.918 20.7731C174.236 23.7065 176.754 25.3753 179.951 24.6816C180.769 24.5047 181.571 24.2494 182.257 23.7467C183.031 23.1797 183.813 22.7615 184.698 23.4954C185.318 24.0101 185.478 25.3954 185.07 26.3042C184.692 27.1446 184.002 27.6814 183.22 28.0755C177.49 30.9527 169.386 29.0989 168.509 20.3167C168.137 16.5951 168.905 13.2675 171.708 10.6136C174.516 7.95556 179.585 7.47704 182.573 9.7088C185.299 11.7455 186.142 14.7091 185.981 17.9663C185.917 19.2691 184.781 20.0975 183.375 20.1257C181.903 20.1558 180.429 20.1317 178.955 20.1317V20.1397ZM177.59 16.8806C178.591 16.8806 179.591 16.8866 180.592 16.8765C180.842 16.8745 181.105 16.9429 181.211 16.5549C181.69 14.8278 179.991 12.3949 178.211 12.2944C175.857 12.1617 173.985 13.9712 173.975 16.3538C173.973 16.8444 174.21 16.8866 174.59 16.8826C175.591 16.8705 176.591 16.8786 177.592 16.8806H177.59Z" fill="#4ABAD9"/>
<path d="M97.2026 11.0215C98.588 9.47339 100.098 8.40577 102.181 8.45403C103.901 8.49424 104.85 9.44726 104.832 11.1482C104.813 12.8854 103.983 13.6856 102.197 13.6775C101.463 13.6735 100.719 13.5871 100.002 13.7861C98.4432 14.2184 97.3976 15.6881 97.3815 17.5318C97.3554 20.4411 97.3634 23.3525 97.3715 26.2638C97.3755 27.247 97.2609 28.1658 96.2314 28.6202C95.0591 29.1369 93.8828 29.0907 92.7829 28.4192C92.2962 28.1216 92.1293 27.6009 92.1293 27.0278C92.1334 21.5751 92.1193 16.1224 92.1414 10.6677C92.1474 9.29043 93.1448 8.51233 94.7434 8.52842C96.35 8.5445 97.09 9.2663 97.2026 11.0215Z" fill="#4ABAD9"/>
</svg>
