<svg width="216" height="89" viewBox="0 0 216 89" fill="none" xmlns="http://www.w3.org/2000/svg">
<path d="M51.975 28.385C50.3183 28.385 47.9267 28.2567 44.8 28L45.22 19.495L44.8 3.85003H54.145C57.295 3.85003 59.7567 4.79503 61.53 6.68503C63.3033 8.57504 64.19 11.2 64.19 14.56C64.19 18.8067 63.0933 22.1784 60.9 24.675C58.7067 27.1484 55.7317 28.385 51.975 28.385ZM52.885 7.63004C51.345 7.63004 50.26 7.6417 49.63 7.66503L49.28 18.9L49.525 24.57C51.485 24.71 52.8033 24.78 53.48 24.78C55.3233 24.78 56.77 24.0334 57.82 22.54C58.8933 21.0467 59.43 18.8767 59.43 16.03C59.43 13.1834 58.905 11.0717 57.855 9.69504C56.8283 8.31837 55.1717 7.63004 52.885 7.63004Z" fill="#2E80E6"/>
<path d="M73.5722 24.43C74.2489 24.43 74.9605 24.255 75.7072 23.905C76.4539 23.555 77.0372 23.205 77.4572 22.855L78.0872 22.33L79.6972 24.29C79.4639 24.6867 79.1022 25.1417 78.6122 25.655C78.1222 26.1684 77.6205 26.6117 77.1072 26.985C76.6172 27.335 75.9522 27.6617 75.1122 27.965C74.2955 28.245 73.4439 28.385 72.5572 28.385C70.6672 28.385 69.1272 27.6734 67.9372 26.25C66.7472 24.8034 66.1522 22.9484 66.1522 20.685C66.1522 17.8384 66.9805 15.3417 68.6372 13.195C70.2939 11.0484 72.2305 9.97503 74.4472 9.97503C76.1505 9.97503 77.4689 10.4534 78.4022 11.41C79.3589 12.3667 79.8372 13.7084 79.8372 15.435C79.8372 16.4617 79.6622 17.6284 79.3122 18.935L78.6122 19.67L69.8622 20.475C70.2589 23.1117 71.4955 24.43 73.5722 24.43ZM73.5722 13.58C72.5455 13.58 71.6822 14 70.9822 14.84C70.2822 15.6567 69.8739 16.7067 69.7572 17.99L75.7072 17.255C75.7772 16.7184 75.8122 16.275 75.8122 15.925C75.8122 14.3617 75.0655 13.58 73.5722 13.58Z" fill="#2E80E6"/>
<path d="M86.3923 28C85.0156 28 83.884 27.5684 82.9973 26.705C82.134 25.8184 81.7023 24.64 81.7023 23.17C81.7023 21.6767 82.379 20.3934 83.7323 19.32C85.0856 18.2234 86.7306 17.675 88.6673 17.675H91.0473V17.08C91.0473 15.9367 90.814 15.155 90.3473 14.735C89.8806 14.315 89.0056 14.105 87.7223 14.105C87.1856 14.105 86.544 14.2217 85.7973 14.455C85.074 14.665 84.2573 15.0034 83.3473 15.47L82.3323 12.705C83.3356 12.005 84.549 11.375 85.9723 10.815C87.419 10.255 88.609 9.97503 89.5423 9.97503C93.2056 9.97503 95.0373 11.7484 95.0373 15.295V22.155C95.0373 23.4617 95.4456 24.92 96.2623 26.53L92.5523 28.105C91.969 26.985 91.5373 25.9817 91.2573 25.095C89.974 27.0317 88.3523 28 86.3923 28ZM87.8623 24.43C88.7956 24.43 89.8573 23.9517 91.0473 22.995V20.65C89.8106 20.37 88.8073 20.23 88.0373 20.23C86.5673 20.23 85.8323 20.8834 85.8323 22.19C85.8323 22.8667 86.019 23.415 86.3923 23.835C86.7656 24.2317 87.2556 24.43 87.8623 24.43Z" fill="#2E80E6"/>
<path d="M98.9136 11.095L103.149 10.185C103.359 11.9817 103.499 13.685 103.569 15.295C105.692 12.005 107.687 10.36 109.554 10.36L109.169 15.82C107.815 15.82 106.742 15.9484 105.949 16.205C105.179 16.4384 104.385 16.9167 103.569 17.64V18.9L103.954 27.125L99.2636 28L99.6836 19.495C99.5902 16.3684 99.3336 13.5684 98.9136 11.095Z" fill="#2E80E6"/>
<path d="M121.049 10.325C122.612 10.325 123.884 11.0017 124.864 12.355C125.844 13.7084 126.334 15.4467 126.334 17.57C126.334 20.6267 125.529 23.135 123.919 25.095C122.332 27.0317 120.267 28 117.724 28C116.557 28 114.597 27.8134 111.844 27.44L112.194 19.495L111.774 1.78504L116.569 0.910034L116.114 9.94003V13.72C116.371 13.3467 116.686 12.95 117.059 12.53C117.432 12.11 118.016 11.6434 118.809 11.13C119.602 10.5934 120.349 10.325 121.049 10.325ZM119.684 14.875C118.611 14.875 117.421 15.2017 116.114 15.855V18.9L116.324 24.045C117.304 24.1617 118.226 24.22 119.089 24.22C121.329 24.22 122.449 22.6684 122.449 19.565C122.449 16.4384 121.527 14.875 119.684 14.875Z" fill="#2E80E6"/>
<path d="M135.54 24.43C136.217 24.43 136.928 24.255 137.675 23.905C138.422 23.555 139.005 23.205 139.425 22.855L140.055 22.33L141.665 24.29C141.432 24.6867 141.07 25.1417 140.58 25.655C140.09 26.1684 139.588 26.6117 139.075 26.985C138.585 27.335 137.92 27.6617 137.08 27.965C136.263 28.245 135.412 28.385 134.525 28.385C132.635 28.385 131.095 27.6734 129.905 26.25C128.715 24.8034 128.12 22.9484 128.12 20.685C128.12 17.8384 128.948 15.3417 130.605 13.195C132.262 11.0484 134.198 9.97503 136.415 9.97503C138.118 9.97503 139.437 10.4534 140.37 11.41C141.327 12.3667 141.805 13.7084 141.805 15.435C141.805 16.4617 141.63 17.6284 141.28 18.935L140.58 19.67L131.83 20.475C132.227 23.1117 133.463 24.43 135.54 24.43ZM135.54 13.58C134.513 13.58 133.65 14 132.95 14.84C132.25 15.6567 131.842 16.7067 131.725 17.99L137.675 17.255C137.745 16.7184 137.78 16.275 137.78 15.925C137.78 14.3617 137.033 13.58 135.54 13.58Z" fill="#2E80E6"/>
<path d="M154.135 10.325C155.698 10.325 156.97 11.0017 157.95 12.355C158.93 13.7084 159.42 15.4467 159.42 17.57C159.42 20.6267 158.615 23.135 157.005 25.095C155.418 27.0317 153.353 28 150.81 28C149.643 28 147.683 27.8134 144.93 27.44L145.28 19.495L144.86 1.78504L149.655 0.910034L149.2 9.94003V13.72C149.457 13.3467 149.772 12.95 150.145 12.53C150.518 12.11 151.102 11.6434 151.895 11.13C152.688 10.5934 153.435 10.325 154.135 10.325ZM152.77 14.875C151.697 14.875 150.507 15.2017 149.2 15.855V18.9L149.41 24.045C150.39 24.1617 151.312 24.22 152.175 24.22C154.415 24.22 155.535 22.6684 155.535 19.565C155.535 16.4384 154.613 14.875 152.77 14.875Z" fill="#2E80E6"/>
<path d="M168.626 24.43C169.303 24.43 170.014 24.255 170.761 23.905C171.508 23.555 172.091 23.205 172.511 22.855L173.141 22.33L174.751 24.29C174.518 24.6867 174.156 25.1417 173.666 25.655C173.176 26.1684 172.674 26.6117 172.161 26.985C171.671 27.335 171.006 27.6617 170.166 27.965C169.349 28.245 168.498 28.385 167.611 28.385C165.721 28.385 164.181 27.6734 162.991 26.25C161.801 24.8034 161.206 22.9484 161.206 20.685C161.206 17.8384 162.034 15.3417 163.691 13.195C165.348 11.0484 167.284 9.97503 169.501 9.97503C171.204 9.97503 172.523 10.4534 173.456 11.41C174.413 12.3667 174.891 13.7084 174.891 15.435C174.891 16.4617 174.716 17.6284 174.366 18.935L173.666 19.67L164.916 20.475C165.313 23.1117 166.549 24.43 168.626 24.43ZM168.626 13.58C167.599 13.58 166.736 14 166.036 14.84C165.336 15.6567 164.928 16.7067 164.811 17.99L170.761 17.255C170.831 16.7184 170.866 16.275 170.866 15.925C170.866 14.3617 170.119 13.58 168.626 13.58Z" fill="#2E80E6"/>
<path d="M16.6016 78.5V80.0039H12.4805V82.0352H14.6484V87.6602H12.7734V83.5H2.42188V82.0352H4.72656V80.0039H0.644531V78.5H16.6016ZM8.61328 70.5508C12.4414 70.5313 14.8633 71.8204 14.8633 73.9297C14.8633 76.0391 12.4414 77.3282 8.61328 77.3086C4.78516 77.3282 2.36328 76.0391 2.36328 73.9297C2.36328 71.8204 4.78516 70.5313 8.61328 70.5508ZM8.61328 72.0157C5.91797 71.9961 4.25781 72.7188 4.27734 73.9297C4.25781 75.1602 5.91797 75.8633 8.61328 75.8633C11.2891 75.8633 12.9492 75.1602 12.9492 73.9297C12.9492 72.7188 11.2891 71.9961 8.61328 72.0157ZM6.58203 82.0352H10.6641V80.0039H6.58203V82.0352Z" fill="#2E80E6"/>
<path d="M22.6172 71.4688C25.2344 71.4688 27.0898 73.8516 27.1094 77.6016C27.0898 81.3711 25.2344 83.7539 22.6172 83.7539C20 83.7539 18.125 81.3711 18.1445 77.6016C18.125 73.8516 20 71.4688 22.6172 71.4688ZM22.6172 73.1289C21.0156 73.1289 19.9219 74.8477 19.9219 77.6016C19.9219 80.375 21.0156 82.0938 22.6172 82.0938C24.2383 82.0938 25.332 80.375 25.332 77.6016C25.332 74.8477 24.2383 73.1289 22.6172 73.1289ZM31.5625 70.1602V77.0157H34.375V78.5782H31.5625V87.6602H29.707V70.1602H31.5625Z" fill="#2E80E6"/>
<path d="M51.1719 78.6954V80.1993H35.2148V78.6954H39.043V76.3321C37.6953 75.7852 36.9336 74.9063 36.9336 73.7539C36.9336 71.6836 39.3359 70.4727 43.1836 70.4727C47.0117 70.4727 49.4336 71.6836 49.4336 73.7539C49.4336 74.9063 48.6621 75.795 47.3047 76.3321V78.6954H51.1719ZM43.1836 81.3907C46.9531 81.3907 49.2188 82.5039 49.2188 84.4961C49.2188 86.5274 46.9531 87.6211 43.1836 87.6211C39.375 87.6211 37.1094 86.5274 37.1094 84.4961C37.1094 82.5039 39.375 81.3907 43.1836 81.3907ZM43.1836 82.8164C40.5078 82.8164 38.9844 83.4219 38.9844 84.4961C38.9844 85.5899 40.5078 86.2149 43.1836 86.1954C45.8203 86.2149 47.3633 85.5899 47.3633 84.4961C47.3633 83.4219 45.8203 82.8164 43.1836 82.8164ZM43.1836 71.8985C40.4688 71.8985 38.8281 72.5821 38.8477 73.7539C38.8281 74.9258 40.4688 75.5899 43.1836 75.5899C45.8984 75.5899 47.5195 74.9258 47.5195 73.7539C47.5195 72.5821 45.8984 71.8985 43.1836 71.8985ZM40.918 78.6954H45.4688V76.8204C44.7852 76.9375 44.0137 76.9961 43.1836 76.9961C42.3633 76.9961 41.6016 76.9375 40.918 76.8399V78.6954Z" fill="#2E80E6"/>
<path d="M68.457 78.5391V80.0235H61.3867V81.8985H66.5039V87.4454H54.4141V81.8985H59.5508V80.0235H52.5V78.5391H68.457ZM66.9531 70.7071V72.211H64.4141V75.5508H66.875V77.0547H54.043V75.5508H56.5234V72.211H53.9648V70.7071H66.9531ZM56.25 83.3633V85.9414H64.707V83.3633H56.25ZM58.3594 75.5508H62.5586V72.211H58.3594V75.5508Z" fill="#2E80E6"/>
<path d="M88.8867 71.8399V73.7149C88.8672 75.9219 88.8672 78.2266 88.2422 81.5664L86.4258 81.3711C87.0312 78.2071 87.0312 75.8633 87.0312 73.7149V73.3438H76.3086V71.8399H88.8867ZM90.625 83.7539V85.2969H74.668V83.7539H78.4375V78.0899H80.293V83.7539H82.8125V78.0899H84.6289V83.7539H90.625Z" fill="#2E80E6"/>
<path d="M105.723 70.1602V76.1563H108.223V77.6993H105.723V83.8321H103.867V70.1602H105.723ZM106.348 85.7852V87.2891H94.4141V82.9141H96.2695V85.7852H106.348ZM91.8359 80.4336C93.1836 80.4336 94.7559 80.4239 96.4062 80.3555V79.1446C94.4141 78.9297 93.1445 77.9629 93.1641 76.5274C93.1445 74.8282 94.8047 73.8125 97.3242 73.8321C99.8242 73.8125 101.484 74.8282 101.484 76.5274C101.484 77.9532 100.234 78.92 98.2617 79.1446V80.2774C99.8242 80.1895 101.406 80.0528 102.871 79.8282L103.027 81.1368C99.2969 81.8399 95.0781 81.8985 92.0312 81.918L91.8359 80.4336ZM102.383 71.7813V73.1485H92.2852V71.7813H96.4062V70.1016H98.2617V71.7813H102.383ZM97.3242 75.1016C95.8203 75.1016 94.9219 75.6289 94.9219 76.5274C94.9219 77.3868 95.8203 77.9141 97.3242 77.9141C98.8086 77.9141 99.707 77.3868 99.707 76.5274C99.707 75.6289 98.8086 75.1016 97.3242 75.1016Z" fill="#2E80E6"/>
<path d="M120.137 71.1954L115.586 88.1289H113.73L118.281 71.1954H120.137Z" fill="#2E80E6"/>
<path d="M142.285 77.0352V78.5586H139.57V87.6407H137.715V70.1602H139.57V77.0352H142.285ZM128.438 71.8594V81.7032C130.879 81.7032 133.428 81.4981 136.211 80.9219L136.426 82.4844C133.438 83.0899 130.664 83.2461 128.047 83.2461H126.602V71.8594H128.438Z" fill="#2E80E6"/>
<path d="M157.363 74.7891V76.2735H145.352V70.4727H147.188V74.7891H157.363ZM159.199 77.9727V79.4766H152.07V81.4493H157.188V87.4258H145.254V81.4493H150.254V79.4766H143.223V77.9727H159.199ZM147.07 82.8946V85.9414H155.391V82.8946H147.07Z" fill="#2E80E6"/>
<path d="M179.844 70.6875V72.0938H177.305V75.1211H179.766V76.5469H166.934V75.1211H169.414V72.0938H166.855V70.6875H179.844ZM181.348 77.836V79.3008H165.391V77.836H181.348ZM179.336 80.668V84.6719H169.141V86.0782H179.824V87.4844H167.324V83.3633H177.5V82.0547H167.305V80.668H179.336ZM171.25 75.1211H175.449V72.0938H171.25V75.1211Z" fill="#2E80E6"/>
<path d="M197.598 70.1797V82.0547H195.84V76.1563H193.691V80.5508H191.953V70.4922H193.691V74.6329H195.84V70.1797H197.598ZM190.059 71.4883V76.5079H185.254V78.8321C187.422 78.8125 189.072 78.7149 190.996 78.3243L191.191 79.7891C189.004 80.2383 187.207 80.3164 184.609 80.3164H183.457V75.1407H188.281V72.9922H183.418V71.4883H190.059ZM192.598 81.6446C192.598 83.793 195.195 85.668 198.496 86.1368L197.754 87.5821C195.068 87.1621 192.754 85.8633 191.68 84.0079C190.586 85.8633 188.281 87.1621 185.605 87.5821L184.863 86.1368C188.145 85.668 190.742 83.793 190.742 81.6446V81.2344H192.598V81.6446Z" fill="#2E80E6"/>
<path d="M215.918 78.8711V80.3555H199.961V78.8711H206.992V77.0547H201.504V75.5508H203.984V72.211H201.426V70.7071H214.414V72.211H211.875V75.5508H214.336V77.0547H208.848V78.8711H215.918ZM213.965 81.8789V87.4454H201.875V81.8789H213.965ZM203.711 83.3243V85.9414H212.168V83.3243H203.711ZM205.82 75.5508H210.02V72.211H205.82V75.5508Z" fill="#2E80E6"/>
</svg>
