<svg width="216" height="303" viewBox="0 0 216 303" fill="none" xmlns="http://www.w3.org/2000/svg">
<path d="M42.255 250.473C40.2197 250.473 37.2813 250.315 33.44 250L33.956 239.551L33.44 220.33H44.921C48.791 220.33 51.8153 221.491 53.994 223.813C56.1727 226.135 57.262 229.36 57.262 233.488C57.262 238.705 55.9147 242.848 53.22 245.915C50.5253 248.954 46.8703 250.473 42.255 250.473ZM43.373 224.974C41.481 224.974 40.148 224.988 39.374 225.017L38.944 238.82L39.245 245.786C41.653 245.958 43.2727 246.044 44.104 246.044C46.3687 246.044 48.146 245.127 49.436 243.292C50.7547 241.457 51.414 238.791 51.414 235.294C51.414 231.797 50.769 229.202 49.479 227.511C48.2177 225.82 46.1823 224.974 43.373 224.974Z" fill="#2E80E6"/>
<path d="M68.7887 245.614C69.62 245.614 70.4944 245.399 71.4117 244.969C72.329 244.539 73.0457 244.109 73.5617 243.679L74.3357 243.034L76.3137 245.442C76.027 245.929 75.5827 246.488 74.9807 247.119C74.3787 247.75 73.7624 248.294 73.1317 248.753C72.5297 249.183 71.7127 249.584 70.6807 249.957C69.6774 250.301 68.631 250.473 67.5417 250.473C65.2197 250.473 63.3277 249.599 61.8657 247.85C60.4037 246.073 59.6727 243.794 59.6727 241.013C59.6727 237.516 60.6904 234.448 62.7257 231.811C64.761 229.174 67.1404 227.855 69.8637 227.855C71.9564 227.855 73.576 228.443 74.7227 229.618C75.898 230.793 76.4857 232.442 76.4857 234.563C76.4857 235.824 76.2707 237.258 75.8407 238.863L74.9807 239.766L64.2307 240.755C64.718 243.994 66.2374 245.614 68.7887 245.614ZM68.7887 232.284C67.5274 232.284 66.4667 232.8 65.6067 233.832C64.7467 234.835 64.245 236.125 64.1017 237.702L71.4117 236.799C71.4977 236.14 71.5407 235.595 71.5407 235.165C71.5407 233.244 70.6234 232.284 68.7887 232.284Z" fill="#2E80E6"/>
<path d="M84.5391 250C82.8478 250 81.4575 249.47 80.3681 248.409C79.3075 247.32 78.7771 245.872 78.7771 244.066C78.7771 242.231 79.6085 240.655 81.2711 239.336C82.9338 237.989 84.9548 237.315 87.3341 237.315H90.2581V236.584C90.2581 235.179 89.9714 234.219 89.3981 233.703C88.8248 233.187 87.7498 232.929 86.1731 232.929C85.5138 232.929 84.7255 233.072 83.8081 233.359C82.9195 233.617 81.9161 234.033 80.7981 234.606L79.5511 231.209C80.7838 230.349 82.2745 229.575 84.0231 228.887C85.8005 228.199 87.2625 227.855 88.4091 227.855C92.9098 227.855 95.1601 230.034 95.1601 234.391V242.819C95.1601 244.424 95.6618 246.216 96.6651 248.194L92.1071 250.129C91.3904 248.753 90.8601 247.52 90.5161 246.431C88.9395 248.81 86.9471 250 84.5391 250ZM86.3451 245.614C87.4918 245.614 88.7961 245.026 90.2581 243.851V240.97C88.7388 240.626 87.5061 240.454 86.5601 240.454C84.7541 240.454 83.8511 241.257 83.8511 242.862C83.8511 243.693 84.0804 244.367 84.5391 244.883C84.9978 245.37 85.5998 245.614 86.3451 245.614Z" fill="#2E80E6"/>
<path d="M99.9224 229.231L105.125 228.113C105.383 230.32 105.555 232.413 105.641 234.391C108.25 230.349 110.701 228.328 112.994 228.328L112.521 235.036C110.859 235.036 109.54 235.194 108.565 235.509C107.619 235.796 106.645 236.383 105.641 237.272V238.82L106.114 248.925L100.352 250L100.868 239.551C100.754 235.71 100.438 232.27 99.9224 229.231Z" fill="#2E80E6"/>
<path d="M127.118 228.285C129.038 228.285 130.601 229.116 131.805 230.779C133.009 232.442 133.611 234.577 133.611 237.186C133.611 240.941 132.622 244.023 130.644 246.431C128.694 248.81 126.157 250 123.033 250C121.599 250 119.191 249.771 115.809 249.312L116.239 239.551L115.723 217.793L121.614 216.718L121.055 227.812V232.456C121.37 231.997 121.757 231.51 122.216 230.994C122.674 230.478 123.391 229.905 124.366 229.274C125.34 228.615 126.258 228.285 127.118 228.285ZM125.441 233.875C124.122 233.875 122.66 234.276 121.055 235.079V238.82L121.313 245.141C122.517 245.284 123.649 245.356 124.71 245.356C127.462 245.356 128.838 243.45 128.838 239.637C128.838 235.796 127.705 233.875 125.441 233.875Z" fill="#2E80E6"/>
<path d="M144.921 245.614C145.752 245.614 146.626 245.399 147.544 244.969C148.461 244.539 149.178 244.109 149.694 243.679L150.468 243.034L152.446 245.442C152.159 245.929 151.715 246.488 151.113 247.119C150.511 247.75 149.894 248.294 149.264 248.753C148.662 249.183 147.845 249.584 146.813 249.957C145.809 250.301 144.763 250.473 143.674 250.473C141.352 250.473 139.46 249.599 137.998 247.85C136.536 246.073 135.805 243.794 135.805 241.013C135.805 237.516 136.822 234.448 138.858 231.811C140.893 229.174 143.272 227.855 145.996 227.855C148.088 227.855 149.708 228.443 150.855 229.618C152.03 230.793 152.618 232.442 152.618 234.563C152.618 235.824 152.403 237.258 151.973 238.863L151.113 239.766L140.363 240.755C140.85 243.994 142.369 245.614 144.921 245.614ZM144.921 232.284C143.659 232.284 142.599 232.8 141.739 233.832C140.879 234.835 140.377 236.125 140.234 237.702L147.544 236.799C147.63 236.14 147.673 235.595 147.673 235.165C147.673 233.244 146.755 232.284 144.921 232.284Z" fill="#2E80E6"/>
<path d="M167.766 228.285C169.687 228.285 171.249 229.116 172.453 230.779C173.657 232.442 174.259 234.577 174.259 237.186C174.259 240.941 173.27 244.023 171.292 246.431C169.343 248.81 166.806 250 163.681 250C162.248 250 159.84 249.771 156.457 249.312L156.887 239.551L156.371 217.793L162.262 216.718L161.703 227.812V232.456C162.018 231.997 162.405 231.51 162.864 230.994C163.323 230.478 164.039 229.905 165.014 229.274C165.989 228.615 166.906 228.285 167.766 228.285ZM166.089 233.875C164.77 233.875 163.308 234.276 161.703 235.079V238.82L161.961 245.141C163.165 245.284 164.297 245.356 165.358 245.356C168.11 245.356 169.486 243.45 169.486 239.637C169.486 235.796 168.354 233.875 166.089 233.875Z" fill="#2E80E6"/>
<path d="M185.569 245.614C186.4 245.614 187.275 245.399 188.192 244.969C189.109 244.539 189.826 244.109 190.342 243.679L191.116 243.034L193.094 245.442C192.807 245.929 192.363 246.488 191.761 247.119C191.159 247.75 190.543 248.294 189.912 248.753C189.31 249.183 188.493 249.584 187.461 249.957C186.458 250.301 185.411 250.473 184.322 250.473C182 250.473 180.108 249.599 178.646 247.85C177.184 246.073 176.453 243.794 176.453 241.013C176.453 237.516 177.471 234.448 179.506 231.811C181.541 229.174 183.921 227.855 186.644 227.855C188.737 227.855 190.356 228.443 191.503 229.618C192.678 230.793 193.266 232.442 193.266 234.563C193.266 235.824 193.051 237.258 192.621 238.863L191.761 239.766L181.011 240.755C181.498 243.994 183.018 245.614 185.569 245.614ZM185.569 232.284C184.308 232.284 183.247 232.8 182.387 233.832C181.527 234.835 181.025 236.125 180.882 237.702L188.192 236.799C188.278 236.14 188.321 235.595 188.321 235.165C188.321 233.244 187.404 232.284 185.569 232.284Z" fill="#2E80E6"/>
<path d="M16.6016 292.5V294.004H12.4805V296.035H14.6484V301.66H12.7734V297.5H2.42188V296.035H4.72656V294.004H0.644531V292.5H16.6016ZM8.61328 284.551C12.4414 284.531 14.8633 285.82 14.8633 287.93C14.8633 290.039 12.4414 291.328 8.61328 291.309C4.78516 291.328 2.36328 290.039 2.36328 287.93C2.36328 285.82 4.78516 284.531 8.61328 284.551ZM8.61328 286.016C5.91797 285.996 4.25781 286.719 4.27734 287.93C4.25781 289.16 5.91797 289.863 8.61328 289.863C11.2891 289.863 12.9492 289.16 12.9492 287.93C12.9492 286.719 11.2891 285.996 8.61328 286.016ZM6.58203 296.035H10.6641V294.004H6.58203V296.035Z" fill="#2B77D3"/>
<path d="M22.6172 285.469C25.2344 285.469 27.0898 287.852 27.1094 291.602C27.0898 295.371 25.2344 297.754 22.6172 297.754C20 297.754 18.125 295.371 18.1445 291.602C18.125 287.852 20 285.469 22.6172 285.469ZM22.6172 287.129C21.0156 287.129 19.9219 288.848 19.9219 291.602C19.9219 294.375 21.0156 296.094 22.6172 296.094C24.2383 296.094 25.332 294.375 25.332 291.602C25.332 288.848 24.2383 287.129 22.6172 287.129ZM31.5625 284.16V291.016H34.375V292.578H31.5625V301.66H29.707V284.16H31.5625Z" fill="#2B77D3"/>
<path d="M51.1719 292.695V294.199H35.2148V292.695H39.043V290.332C37.6953 289.785 36.9336 288.906 36.9336 287.754C36.9336 285.684 39.3359 284.473 43.1836 284.473C47.0117 284.473 49.4336 285.684 49.4336 287.754C49.4336 288.906 48.6621 289.795 47.3047 290.332V292.695H51.1719ZM43.1836 295.391C46.9531 295.391 49.2188 296.504 49.2188 298.496C49.2188 300.527 46.9531 301.621 43.1836 301.621C39.375 301.621 37.1094 300.527 37.1094 298.496C37.1094 296.504 39.375 295.391 43.1836 295.391ZM43.1836 296.816C40.5078 296.816 38.9844 297.422 38.9844 298.496C38.9844 299.59 40.5078 300.215 43.1836 300.195C45.8203 300.215 47.3633 299.59 47.3633 298.496C47.3633 297.422 45.8203 296.816 43.1836 296.816ZM43.1836 285.898C40.4688 285.898 38.8281 286.582 38.8477 287.754C38.8281 288.926 40.4688 289.59 43.1836 289.59C45.8984 289.59 47.5195 288.926 47.5195 287.754C47.5195 286.582 45.8984 285.898 43.1836 285.898ZM40.918 292.695H45.4688V290.82C44.7852 290.938 44.0137 290.996 43.1836 290.996C42.3633 290.996 41.6016 290.938 40.918 290.84V292.695Z" fill="#2B77D3"/>
<path d="M68.457 292.539V294.023H61.3867V295.898H66.5039V301.445H54.4141V295.898H59.5508V294.023H52.5V292.539H68.457ZM66.9531 284.707V286.211H64.4141V289.551H66.875V291.055H54.043V289.551H56.5234V286.211H53.9648V284.707H66.9531ZM56.25 297.363V299.941H64.707V297.363H56.25ZM58.3594 289.551H62.5586V286.211H58.3594V289.551Z" fill="#2B77D3"/>
<path d="M88.8867 285.84V287.715C88.8672 289.922 88.8672 292.227 88.2422 295.566L86.4258 295.371C87.0312 292.207 87.0312 289.863 87.0312 287.715V287.344H76.3086V285.84H88.8867ZM90.625 297.754V299.297H74.668V297.754H78.4375V292.09H80.293V297.754H82.8125V292.09H84.6289V297.754H90.625Z" fill="#2B77D3"/>
<path d="M105.723 284.16V290.156H108.223V291.699H105.723V297.832H103.867V284.16H105.723ZM106.348 299.785V301.289H94.4141V296.914H96.2695V299.785H106.348ZM91.8359 294.434C93.1836 294.434 94.7559 294.424 96.4062 294.355V293.145C94.4141 292.93 93.1445 291.963 93.1641 290.527C93.1445 288.828 94.8047 287.812 97.3242 287.832C99.8242 287.812 101.484 288.828 101.484 290.527C101.484 291.953 100.234 292.92 98.2617 293.145V294.277C99.8242 294.189 101.406 294.053 102.871 293.828L103.027 295.137C99.2969 295.84 95.0781 295.898 92.0312 295.918L91.8359 294.434ZM102.383 285.781V287.148H92.2852V285.781H96.4062V284.102H98.2617V285.781H102.383ZM97.3242 289.102C95.8203 289.102 94.9219 289.629 94.9219 290.527C94.9219 291.387 95.8203 291.914 97.3242 291.914C98.8086 291.914 99.707 291.387 99.707 290.527C99.707 289.629 98.8086 289.102 97.3242 289.102Z" fill="#2B77D3"/>
<path d="M120.137 285.195L115.586 302.129H113.73L118.281 285.195H120.137Z" fill="#2B77D3"/>
<path d="M142.285 291.035V292.559H139.57V301.641H137.715V284.16H139.57V291.035H142.285ZM128.438 285.859V295.703C130.879 295.703 133.428 295.498 136.211 294.922L136.426 296.484C133.438 297.09 130.664 297.246 128.047 297.246H126.602V285.859H128.438Z" fill="#2B77D3"/>
<path d="M157.363 288.789V290.273H145.352V284.473H147.188V288.789H157.363ZM159.199 291.973V293.477H152.07V295.449H157.188V301.426H145.254V295.449H150.254V293.477H143.223V291.973H159.199ZM147.07 296.895V299.941H155.391V296.895H147.07Z" fill="#2B77D3"/>
<path d="M179.844 284.688V286.094H177.305V289.121H179.766V290.547H166.934V289.121H169.414V286.094H166.855V284.688H179.844ZM181.348 291.836V293.301H165.391V291.836H181.348ZM179.336 294.668V298.672H169.141V300.078H179.824V301.484H167.324V297.363H177.5V296.055H167.305V294.668H179.336ZM171.25 289.121H175.449V286.094H171.25V289.121Z" fill="#2B77D3"/>
<path d="M197.598 284.18V296.055H195.84V290.156H193.691V294.551H191.953V284.492H193.691V288.633H195.84V284.18H197.598ZM190.059 285.488V290.508H185.254V292.832C187.422 292.812 189.072 292.715 190.996 292.324L191.191 293.789C189.004 294.238 187.207 294.316 184.609 294.316H183.457V289.141H188.281V286.992H183.418V285.488H190.059ZM192.598 295.645C192.598 297.793 195.195 299.668 198.496 300.137L197.754 301.582C195.068 301.162 192.754 299.863 191.68 298.008C190.586 299.863 188.281 301.162 185.605 301.582L184.863 300.137C188.145 299.668 190.742 297.793 190.742 295.645V295.234H192.598V295.645Z" fill="#2B77D3"/>
<path d="M215.918 292.871V294.355H199.961V292.871H206.992V291.055H201.504V289.551H203.984V286.211H201.426V284.707H214.414V286.211H211.875V289.551H214.336V291.055H208.848V292.871H215.918ZM213.965 295.879V301.445H201.875V295.879H213.965ZM203.711 297.324V299.941H212.168V297.324H203.711ZM205.82 289.551H210.02V286.211H205.82V289.551Z" fill="#2B77D3"/>
<path d="M73.5961 102.265C75.1675 101.26 76.6164 100.333 78.1665 99.3425C75.8414 96.7466 74.1842 93.8297 73.4061 90.4542C72.5729 86.8524 72.3493 83.2507 73.495 79.6764C73.7615 78.8447 73.4429 78.5849 72.7873 78.2179C69.3166 76.2672 67.154 72.0662 67.7421 68.5103C68.5692 63.4867 71.8193 60.2335 75.9425 59.3071C79.5848 58.4907 82.933 59.677 85.4295 62.5817C86.2536 63.5418 86.6916 63.8078 88.0977 63.2819C94.3069 60.9581 100.614 60.8634 106.781 63.5632C107.663 63.9484 107.917 63.7619 108.423 63.0984C110.876 59.8666 115.33 58.4112 119.215 59.4875C123.338 60.6279 126.429 64.2847 127.001 68.709C127.492 72.4728 125.375 76.4109 121.708 78.4197C121.028 78.7928 121.022 79.0832 121.151 79.817C122.4 86.8463 121.448 93.3803 116.494 98.9053C116.032 99.422 115.946 99.5932 116.62 99.9784C117.631 100.556 118.734 101.137 119.472 101.996C120.673 103.397 121.53 102.969 122.704 102.006C123.993 100.948 125.485 100.141 127.127 99.688C129.621 99 131.59 99.7583 132.809 102.027C133.594 103.489 134.209 105.039 134.914 106.577C135.079 106.515 135.236 106.494 135.349 106.408C136.974 105.187 137.297 103.682 136.317 101.892C134.173 97.9941 133.1 93.8022 132.929 89.381C132.785 85.6722 130.76 83.7001 127.026 83.7368C126.061 83.746 125.093 83.9569 124.137 83.6512C123.525 83.4555 123.175 83.0091 123.185 82.4221C123.194 81.8167 123.638 81.2785 124.208 81.248C127.424 81.0798 130.659 80.8841 133.232 83.4525C134.396 84.6143 135.165 85.9749 135.3 87.5832C135.373 88.4362 135.695 88.5463 136.409 88.5433C141.717 88.5249 147.026 88.5005 152.332 88.5647C153.462 88.5799 153.382 88.0174 153.382 87.2591C153.373 80.7374 153.373 74.2187 153.395 67.697C153.401 65.2784 154.246 64.456 156.679 64.6883C169.21 65.8961 182.183 77.1233 181.546 91.3042C181.176 99.5443 177.227 105.962 170.607 110.796C170.362 110.973 170.108 111.138 169.86 111.316C169.823 111.34 169.811 111.401 169.722 111.567C172.084 112.04 174.066 113.071 175.214 115.284C176.385 117.541 176.207 119.77 175.006 121.99C179.166 122.042 179.999 122.837 179.457 127.181C178.799 132.474 178.278 137.785 177.708 143.09C177.157 148.239 176.624 153.391 176.075 158.54C175.512 163.838 174.939 169.137 174.372 174.439C174.271 175.399 174.259 176.374 174.093 177.322C173.551 180.431 171.692 181.985 168.512 181.988C160.14 182 151.771 181.991 143.399 181.991C112.163 181.991 80.9234 181.991 49.6871 181.994C46.3359 181.994 44.4581 180.043 44.069 176.683C43.4993 171.766 42.9448 166.844 42.3903 161.93C41.8053 156.739 41.2539 151.535 40.7239 146.331C40.1051 140.268 39.3853 134.211 38.7052 128.154C38.5919 127.145 38.4356 126.139 38.3468 125.127C38.1998 123.473 39.3638 122.231 41.0578 122.124C42.0503 122.06 43.4686 122.61 43.9159 121.867C44.2835 121.256 43.5728 119.987 43.3155 119.015C42.0166 114.071 40.7025 109.133 39.4159 104.186C38.9074 102.235 39.2229 100.345 40.1082 98.5659C40.436 97.9085 40.6351 97.5997 39.7498 97.1105C36.4966 95.3065 35.7461 89.5584 38.31 86.8219C38.5704 86.5436 38.9411 86.4274 38.647 85.8587C37.7219 84.0731 38.2457 82.4159 39.3056 80.8627C39.5905 80.4438 39.903 80.0372 40.2369 79.655C42.1606 77.4505 42.9816 75.1237 42.0503 72.0998C41.0119 68.7273 41.94 66.2599 44.1793 64.7678C47.6071 62.4839 52.6187 64.2909 53.4703 68.4889C54.1656 71.9164 56.218 73.4574 59.1863 74.4633C60.8252 75.0167 62.6999 75.6007 63.0553 77.5208C63.3463 79.0985 64.1581 79.6825 65.4692 80.3277C67.8738 81.517 69.1022 86.3969 67.7911 89.0477C67.4511 89.7387 67.4542 89.9772 68.1281 90.4145C70.0855 91.6895 71.2465 93.579 71.8653 95.8018C72.4473 97.8993 72.9987 100.003 73.6052 102.256L73.5961 102.265ZM149.275 124.57C140.394 124.57 131.514 124.589 122.636 124.546C121.561 124.54 121.175 124.711 121.178 125.922C121.227 143.34 121.224 160.762 121.178 178.181C121.175 179.383 121.549 179.578 122.636 179.572C131.823 179.533 141.007 179.554 150.194 179.557C156.115 179.557 162.033 179.572 167.954 179.557C170.494 179.551 171.621 178.398 171.814 175.897C172.078 172.509 172.265 169.103 172.782 165.749C173.72 159.665 174.047 153.516 174.832 147.416C175.276 143.949 175.613 140.466 175.888 136.975C176.189 133.196 176.697 129.426 177.056 125.646C177.166 124.494 176.706 124.552 175.91 124.555C167.029 124.57 158.149 124.564 149.271 124.567L149.275 124.57ZM96.8005 152.067H96.7943C96.7943 143.411 96.7637 134.758 96.828 126.102C96.8372 124.818 96.5094 124.534 95.2474 124.54C78.1083 124.586 60.9692 124.57 43.8301 124.576C42.8652 124.576 41.6276 124.255 41.0027 124.726C40.1541 125.365 40.9598 126.604 41.0456 127.567C41.4989 132.587 41.9033 137.617 42.5986 142.604C43.4196 148.471 43.922 154.372 44.6664 160.246C45.3464 165.602 45.8488 170.981 46.4829 176.347C46.7617 178.716 47.8246 179.566 50.2507 179.566C65.2976 179.566 80.3445 179.548 95.3944 179.581C96.5064 179.581 96.8403 179.364 96.8311 178.184C96.7729 169.479 96.8005 160.771 96.8005 152.067ZM78.0623 122.118C81.7781 122.118 85.1845 122.103 88.5878 122.133C89.1453 122.139 89.3965 121.916 89.617 121.467C90.8301 118.975 92.7814 117.107 94.9196 115.443C99.1898 112.123 103.292 108.631 107.029 104.702C110.573 100.978 110.947 101.003 115.146 103.984C116.179 104.718 117.217 105.026 118.47 104.287C117.11 103.054 115.597 102.131 114.114 101.171C112.552 100.159 112.515 99.7124 113.771 98.4099C119.257 92.7076 120.667 86.085 118.158 78.6185C117.821 77.6156 118.066 77.0805 119.117 76.8665C120.29 76.628 121.291 76.0318 122.158 75.2216C124.499 73.0324 125.24 69.9993 124.079 67.006C122.875 63.9087 120.605 61.9824 117.282 61.6369C113.863 61.2822 111.232 62.7193 109.62 65.7799C109.026 66.9051 108.355 67.1649 107.329 66.4403C105.068 64.8443 102.336 64.5293 99.7749 64.1533C95.324 63.502 90.9526 64.2756 86.955 66.5106C85.9043 67.0977 85.307 66.8622 84.7893 65.8105C82.9238 62.0191 78.4544 60.5331 74.61 62.4624C71.899 63.8231 70.3704 66.1223 70.1621 69.1157C69.9507 72.1518 71.3537 74.4572 73.8472 76.1969C74.7111 76.7992 76.1079 76.4171 76.5521 77.5942C76.984 78.7377 75.8445 79.5205 75.627 80.5539C74.1934 87.4058 75.627 93.4414 80.6355 98.4833C81.8853 99.74 81.8149 100.211 80.2373 101.049C76.5797 102.996 73.1243 105.234 70.3245 108.341C68.3885 110.487 66.8415 112.835 66.6148 115.841C66.3759 119.002 68.2843 121.488 71.4303 122.054C74.6284 122.629 76.9902 121.1 77.7958 117.874C78.0654 116.795 78.1542 115.67 78.433 114.59C78.6107 113.912 78.9384 113.117 79.8452 113.276C80.8377 113.45 80.7059 114.288 80.5191 114.985C79.888 117.351 79.8942 119.917 78.0654 122.115L78.0623 122.118ZM99.2388 152.085C99.2388 160.796 99.2572 169.504 99.2143 178.212C99.2082 179.257 99.4441 179.588 100.544 179.575C106.208 179.514 111.872 179.526 117.536 179.563C118.436 179.569 118.764 179.383 118.761 178.401C118.727 160.882 118.727 143.359 118.746 125.839C118.746 124.867 118.51 124.546 117.475 124.555C111.863 124.61 106.248 124.613 100.636 124.552C99.5084 124.54 99.1929 124.79 99.199 125.958C99.2541 134.666 99.2296 143.377 99.2296 152.085H99.2388ZM157.447 90.9832C150.613 90.9832 143.779 90.9923 136.945 90.9709C136.072 90.9709 135.484 90.9985 135.671 92.1634C136.277 95.967 137.619 99.477 139.683 102.721C140.002 103.222 140.33 103.406 141.037 103.33C143.813 103.024 146.741 105.384 147.06 108.212C147.158 109.075 147.51 109.426 148.178 109.747C154.289 112.664 160.52 112.887 166.628 110.019C173.94 106.589 177.589 100.422 178.912 92.6373C179.188 91.0168 178.609 90.9557 177.337 90.9648C170.708 91.0107 164.076 90.9862 157.447 90.9832ZM66.6516 122.149C65.1199 120.29 64.2898 118.434 64.3204 116.284C64.3756 112.105 66.3269 108.738 69.3136 106.084C71.127 104.473 71.6417 102.999 70.7258 100.798C69.8772 98.7554 69.7271 96.4653 68.6274 94.4993C67.2887 92.0992 65.6284 91.3929 63.0246 92.1328C57.2963 93.7625 51.5771 95.4258 45.8427 97.0279C43.0918 97.7954 41.6919 99.4984 41.6184 102.379C41.5847 103.669 42.0319 104.861 42.3321 106.087C42.5466 106.959 43.0061 107.044 43.7596 106.797C45.3893 106.262 47.0465 105.803 48.6731 105.262C49.6595 104.932 50.6919 104.653 51.0472 105.947C51.3964 107.216 50.2048 107.393 49.3746 107.665C47.8461 108.163 46.3022 108.625 44.743 109.007C43.6769 109.267 43.2297 109.585 43.6677 110.833C44.2651 112.536 44.5898 114.34 44.988 116.11C45.1687 116.908 45.4812 117.168 46.3297 116.877C48.1922 116.238 50.0761 115.664 51.9754 115.144C52.683 114.951 53.5836 114.74 53.8654 115.801C54.1381 116.822 53.4825 117.266 52.6095 117.52C50.8144 118.039 49.0009 118.513 47.2487 119.149C46.8658 119.29 45.7324 118.95 46.0939 120.021C46.3879 120.883 46.0295 122.219 47.7634 122.179C51.8927 122.084 56.0281 122.149 60.1574 122.149C62.2251 122.149 64.2928 122.149 66.6516 122.149ZM167.376 88.5188C170.178 88.5188 172.981 88.5188 175.787 88.5188C178.13 88.5188 178.967 87.3681 178.299 85.0668C176.069 77.371 170.715 72.537 163.718 69.2135C161.549 68.1831 159.233 67.6419 156.884 67.2016C156.054 67.0457 155.836 67.2292 155.842 68.07C155.876 74.5306 155.885 80.9942 155.855 87.4548C155.851 88.3415 156.136 88.5463 156.976 88.5371C160.44 88.4943 163.908 88.5188 167.376 88.5188ZM100.893 113.906C99.3215 115.156 97.7256 116.339 96.2337 117.642C94.7634 118.926 93.2164 120.173 92.1902 122.115C96.3165 122.115 100.28 122.036 104.238 122.149C106.355 122.21 108.266 122.143 109.467 120.054C109.636 119.764 109.979 119.562 110.261 119.348C115.428 115.398 120.771 111.64 124.689 106.308C124.903 106.014 125.255 105.965 125.626 105.901C127.194 105.626 128.551 105.947 129.673 107.112C130.46 107.931 131.342 108.439 132.515 107.953C132.525 107.891 132.555 107.833 132.54 107.794C131.998 106.543 131.458 105.292 130.901 104.051C129.905 101.847 129.106 101.571 126.824 102.519C125.105 103.235 123.776 104.522 122.229 105.488C118.243 107.977 115.876 107.891 112.258 104.993C111.624 104.485 111.152 104.375 110.567 104.926C109.458 105.977 108.358 107.038 107.243 108.084C106.974 108.338 106.866 108.741 107.194 108.803C108.625 109.065 109.078 110.588 110.316 111.09C111.103 111.408 111.887 111.964 111.345 112.927C110.745 113.991 109.783 113.679 108.971 113.117C107.847 112.337 106.768 111.484 105.672 110.668C105.375 110.447 105.212 110.056 104.67 110.451C102.982 111.68 102.875 112.771 104.425 114.098C104.658 114.297 104.891 114.493 105.126 114.685C105.748 115.193 106.373 115.792 105.758 116.593C105.145 117.391 104.351 116.911 103.705 116.517C102.608 115.847 101.766 114.878 100.893 113.902V113.906ZM111.636 122.115C120.663 122.115 129.382 122.1 138.1 122.136C139.052 122.139 139.022 121.699 139.009 121.02C138.985 119.681 138.59 118.394 138.957 116.994C139.677 114.254 141.298 112.199 143.316 110.344C144.073 109.649 144.885 108.955 144.235 107.68C143.607 106.442 142.667 105.873 141.316 105.895C139.892 105.919 138.841 106.739 137.824 107.583C136.727 108.494 135.64 109.414 134.369 110.081C132.555 111.028 130.803 110.891 128.986 109.977C128.098 109.53 127.623 108.145 126.505 108.497C125.497 108.812 125.035 110.001 124.251 110.726C124.137 110.83 124.058 110.97 123.938 111.059C123.056 111.729 122.97 112.224 123.996 112.967C125.056 113.734 125.932 114.765 126.824 115.743C127.397 116.373 127.804 117.165 126.962 117.877C126.07 118.632 125.366 118.067 124.741 117.385C124.226 116.822 123.742 116.229 123.203 115.685C121.23 113.695 121.249 113.725 119.239 115.685C118.712 116.196 118.767 116.41 119.3 116.81C119.907 117.269 120.474 117.795 120.991 118.351C121.533 118.932 121.677 119.596 121.04 120.232C120.397 120.874 119.843 120.528 119.316 120.045C118.789 119.562 118.268 119.076 117.75 118.584C117.346 118.198 116.948 118.018 116.399 118.385C114.813 119.458 113.186 120.479 111.636 122.118V122.115ZM65.849 86.6384C65.512 82.7951 64.5012 81.0401 60.4362 82.5688C60.2953 82.6208 60.139 82.633 59.992 82.6758C53.8103 84.4095 47.6286 86.14 41.4499 87.8859C39.5936 88.4118 38.9687 89.3352 39.1647 91.2492C39.2229 91.7995 39.3669 92.3438 39.5047 92.8788C40.0653 95.0344 41.1895 95.7713 43.3277 95.1812C50.1987 93.2763 57.0543 91.3256 63.9069 89.3566C65.2149 88.9805 65.9685 88.0907 65.8459 86.6384H65.849ZM40.6933 83.801C40.7362 85.4735 41.5878 85.2381 42.5833 84.9721C48.2137 83.4677 53.7368 81.5843 59.413 80.2482C60.0042 80.1106 60.8191 80.2084 60.914 79.2789C61.009 78.3464 60.5556 77.692 59.75 77.3282C58.736 76.8696 57.7007 76.4385 56.6408 76.1021C53.7551 75.191 52.0887 73.2097 51.4669 70.3203C51.2923 69.5101 51.0503 68.7457 50.6275 68.0577C49.6503 66.4709 47.8614 65.9266 46.1214 66.6299C44.5683 67.2567 43.9894 68.4369 44.308 70.3448C44.4244 71.045 44.5101 71.7543 44.7031 72.4331C45.567 75.4417 44.6725 78.0253 42.8406 80.398C42.375 81.0034 41.8604 81.5721 41.4223 82.1958C41.0486 82.7309 40.6473 83.2843 40.6902 83.8041L40.6933 83.801ZM163.81 113.759C161.025 114.422 158.507 114.639 155.977 114.422C153.419 114.202 150.935 113.581 148.264 112.572C149.336 115.514 149.128 118.308 149.112 121.085C149.109 121.702 149.238 122.008 149.949 122.002C154.222 121.977 158.492 121.99 162.897 121.99C161.598 119.155 161.549 116.462 163.81 113.759ZM169.039 122.103C169.982 121.809 171.293 122.668 172.298 121.513C173.677 119.923 173.851 117.556 172.663 115.89C171.511 114.272 168.901 113.612 167.039 114.471C165.247 115.3 164.107 117.385 164.459 119.204C164.885 121.421 165.917 122.1 169.039 122.103ZM145.387 112.016C142.967 114.165 142.1 115.281 141.644 117.159C141.273 118.691 140.97 120.461 141.773 121.733C142.37 122.681 144.039 121.935 145.225 122.066C145.525 122.1 145.835 122.057 146.138 122.051C146.515 122.045 146.686 121.837 146.686 121.482C146.689 118.315 147.008 115.104 145.387 112.016Z" fill="#5AA4FF"/>
<path d="M62.3048 31.9727C58.88 29.2423 57.137 25.9554 57.5781 21.6504C57.765 19.8312 58.1755 18.0548 58.7697 16.3211C60.3381 11.7532 62.5713 7.57046 66.0175 4.12461C70.2846 -0.140656 75.4585 -1.1099 80.9908 1.27193C85.4142 3.17983 89.0044 6.26183 92.4598 9.51199C95.3209 12.2026 97.9921 15.0798 100.427 18.1618C100.976 18.8589 101.313 18.9139 101.947 18.3208C102.624 17.6879 103.478 17.3393 104.413 17.217C107.255 16.847 110.114 16.9632 112.959 17.113C114.359 17.1864 115.536 17.9477 116.513 18.9904C121.255 13.2177 126.297 7.84564 132.528 3.73019C135.036 2.073 137.683 0.626786 140.71 0.192615C145.865 -0.547309 149.942 1.42786 153.147 5.39655C156.718 9.81775 158.991 14.8443 160.027 20.4182C160.799 24.5643 159.561 28.1079 156.587 31.0738C156.265 31.3948 155.677 31.2542 155.429 31.8076C155.802 32.1347 156.271 31.9666 156.679 31.9666C164.23 31.9788 171.781 31.9757 179.335 31.9757C182.612 31.9757 184.003 33.3883 184 36.7057C183.994 41.4419 183.991 46.178 183.994 50.9141C183.997 54.8339 182.582 56.2923 178.707 56.2923C164.214 56.3015 149.725 56.3076 135.232 56.3076C103.494 56.3076 71.7581 56.3015 40.0194 56.2923C39.2045 56.2923 38.3836 56.2893 37.5779 56.1945C35.4367 55.9438 34.049 54.4945 34.0306 52.3298C33.9847 46.7803 33.9816 41.2278 34.0337 35.6784C34.0551 33.4372 35.7001 31.9818 38.0221 31.9788C45.6252 31.9727 53.2283 31.9788 60.8313 31.9788H62.3017L62.3048 31.9727ZM67.206 53.7913V53.8004C76.5981 53.8004 85.9871 53.7852 95.3791 53.8218C96.439 53.8249 96.8587 53.6934 96.8403 52.4582C96.7576 46.8568 96.7759 41.2523 96.828 35.6478C96.8372 34.6388 96.5646 34.3851 95.5659 34.3851C76.5797 34.4126 57.5934 34.4034 38.6072 34.4095C36.9316 34.4095 36.4353 34.911 36.4323 36.562C36.4261 41.2982 36.4323 46.0374 36.4323 50.7735C36.4323 53.5864 36.6069 53.7821 39.4955 53.7852C48.7344 53.7943 57.9702 53.7882 67.2091 53.7882L67.206 53.7913ZM150.959 34.4095C141.524 34.4095 132.09 34.4248 122.652 34.3881C121.601 34.3851 121.157 34.5135 121.175 35.7518C121.255 41.3501 121.23 46.9516 121.184 52.5499C121.175 53.5253 121.405 53.8188 122.425 53.8157C141.347 53.7821 160.269 53.7943 179.191 53.7852C181.093 53.7852 181.565 53.2593 181.565 51.2841C181.568 46.4471 181.568 41.6131 181.565 36.7761C181.565 34.8468 181.111 34.4095 179.111 34.4095C169.725 34.4095 160.342 34.4095 150.956 34.4095H150.959ZM128.061 31.9635C135.101 31.9635 142.14 31.9604 149.18 31.9727C149.657 31.9727 150.083 31.8687 150.488 31.6425C152.807 30.343 154.96 28.8876 156.498 26.6159C157.472 25.1758 157.827 23.6531 157.591 22.0173C156.816 16.6452 154.764 11.7899 151.471 7.4665C147.813 2.66616 142.848 1.18937 137.233 4.08181C129.535 8.05049 123.773 14.1809 118.492 20.8432C118.25 21.1459 118.152 21.4425 118.265 21.8247C119.031 24.4511 118.715 27.1815 119.022 29.8507C119.101 30.554 118.384 31.6088 119.533 31.9146C120.284 32.1133 121.151 31.9329 121.956 31.8504C122.235 31.8229 122.483 31.5569 122.759 31.4284C129.179 28.4137 135.337 24.8211 142.137 22.6258C145.237 21.626 148.349 21.0267 151.532 22.1091C152.947 22.5891 154.301 23.274 154.663 24.9526C154.782 25.5121 154.776 26.145 154.139 26.4018C153.542 26.6434 152.914 26.5914 152.546 25.9401C152.197 25.3256 151.63 24.9648 151.027 24.7141C149.161 23.9405 147.219 24.0292 145.326 24.5153C139.206 26.0808 133.664 29.0436 128.064 31.9666L128.061 31.9635ZM90.0091 31.9666C88.6827 31.1777 87.2767 30.554 85.9043 29.8079C81.5483 27.4383 77.0116 25.3623 72.1012 24.4083C69.7608 23.9528 67.2796 23.7876 65.3987 25.824C64.7983 26.4752 64.1673 26.8421 63.4413 26.2214C62.6724 25.5641 63.0982 24.8394 63.5944 24.2096C65.0189 22.4056 66.964 21.6596 69.191 21.5618C74.561 21.3263 79.2141 23.7479 83.9224 25.7567C87.7821 27.4047 91.4642 29.4686 95.1892 31.4162C96.0499 31.8657 96.8893 31.9727 97.8175 31.9818C98.519 31.988 98.7334 31.8504 98.7273 31.0676C98.7058 28.0193 98.7395 24.9617 99.4441 21.9684C99.5819 21.3905 99.3001 21.0114 98.9815 20.5925C98.0625 19.3848 96.8617 18.3819 96.0009 17.1895C94.2855 14.8107 92.1841 12.8386 90.0949 10.8512C86.8815 7.79366 83.4323 5.01435 79.2233 3.3908C75.6423 2.00879 72.1226 2.23199 69.2033 4.7881C63.8242 9.49976 60.7088 15.517 60.2279 22.6686C59.9399 26.9522 64.7615 31.9329 68.8878 31.9543C75.9272 31.9941 82.9636 31.9666 90.003 31.9666H90.0091ZM109.014 34.434C106.211 34.434 103.405 34.4768 100.602 34.4126C99.5758 34.3881 99.1959 34.6113 99.2113 35.7365C99.2725 41.3318 99.2603 46.9302 99.2205 52.5254C99.2143 53.4886 99.4104 53.8218 100.473 53.8096C106.131 53.7485 111.789 53.7576 117.447 53.8035C118.421 53.8127 118.764 53.6078 118.755 52.5591C118.706 46.9118 118.712 41.2645 118.761 35.6173C118.767 34.6847 118.534 34.3912 117.576 34.4126C114.721 34.4737 111.866 34.434 109.011 34.437L109.014 34.434ZM108.848 31.9666C111.039 31.9666 113.229 31.9543 115.422 31.9757C116.01 31.9818 116.363 31.9176 116.35 31.1777C116.307 28.8418 116.43 26.4966 116.044 24.179C115.447 20.5864 114.534 19.5682 110.588 19.7089C109.011 19.7639 107.43 19.715 105.849 19.7272C103.742 19.7456 102.434 20.7729 101.959 22.8398C101.331 25.5855 101.359 28.3831 101.346 31.1777C101.343 31.9207 101.699 31.9788 102.281 31.9757C104.471 31.9574 106.661 31.9696 108.854 31.9696L108.848 31.9666Z" fill="#5AA4FF"/>
<path d="M149.275 124.57C158.155 124.57 167.036 124.576 175.913 124.561C176.706 124.561 177.166 124.503 177.059 125.653C176.7 129.435 176.192 133.202 175.891 136.981C175.616 140.472 175.279 143.955 174.835 147.422C174.05 153.522 173.723 159.668 172.785 165.755C172.268 169.109 172.081 172.516 171.817 175.903C171.621 178.404 170.494 179.557 167.958 179.563C162.036 179.575 156.118 179.563 150.197 179.563C141.01 179.563 131.823 179.539 122.639 179.578C121.549 179.585 121.178 179.389 121.181 178.187C121.227 160.768 121.227 143.347 121.181 125.928C121.178 124.714 121.564 124.546 122.639 124.552C131.52 124.592 140.4 124.576 149.278 124.573L149.275 124.57Z" fill="white"/>
<path d="M96.8005 152.067C96.8005 160.771 96.7729 169.479 96.8311 178.184C96.8403 179.364 96.5064 179.585 95.3944 179.581C80.3475 179.548 65.3007 179.563 50.2507 179.566C47.8216 179.566 46.7617 178.716 46.4829 176.347C45.8519 170.984 45.3495 165.602 44.6664 160.246C43.9189 154.372 43.4196 148.471 42.5986 142.604C41.9002 137.617 41.4989 132.584 41.0456 127.567C40.9598 126.604 40.1541 125.365 41.0027 124.726C41.6276 124.255 42.8652 124.576 43.8301 124.576C60.9692 124.57 78.1083 124.586 95.2474 124.54C96.5094 124.537 96.8372 124.821 96.828 126.102C96.7637 134.755 96.7943 143.411 96.7943 152.067H96.8005Z" fill="white"/>
<path d="M78.0623 122.118C79.8911 119.917 79.885 117.354 80.516 114.988C80.7029 114.291 80.8315 113.453 79.8421 113.279C78.9354 113.12 78.6076 113.915 78.4299 114.593C78.1512 115.67 78.0623 116.795 77.7928 117.877C76.9871 121.103 74.6284 122.629 71.4272 122.057C68.2843 121.494 66.3728 119.006 66.6118 115.844C66.8384 112.838 68.3885 110.49 70.3214 108.344C73.1212 105.24 76.5766 103.002 80.2342 101.052C81.8118 100.211 81.8792 99.743 80.6324 98.4864C75.6239 93.4414 74.1903 87.4059 75.624 80.557C75.8414 79.5235 76.981 78.7408 76.5491 77.5973C76.1049 76.4201 74.708 76.8023 73.8442 76.2C71.3507 74.4602 69.9477 72.1518 70.159 69.1187C70.3673 66.1254 71.8959 63.8261 74.6069 62.4655C78.4514 60.5362 82.9207 62.0222 84.7862 65.8135C85.3039 66.8684 85.9013 67.1007 86.952 66.5137C90.9496 64.2786 95.3209 63.5051 99.7718 64.1563C102.333 64.5324 105.065 64.8473 107.326 66.4434C108.352 67.168 109.026 66.9112 109.617 65.7829C111.229 62.7223 113.86 61.2853 117.279 61.64C120.605 61.9855 122.875 63.9117 124.076 67.009C125.24 70.0023 124.499 73.0354 122.155 75.2246C121.288 76.0349 120.287 76.6311 119.113 76.8696C118.06 77.0836 117.818 77.6187 118.155 78.6215C120.663 86.0881 119.254 92.7107 113.768 98.413C112.512 99.7186 112.549 100.165 114.111 101.174C115.597 102.134 117.11 103.06 118.467 104.29C117.214 105.03 116.176 104.721 115.143 103.987C110.947 101.003 110.57 100.981 107.026 104.705C103.289 108.634 99.1868 112.126 94.9165 115.447C92.7784 117.11 90.827 118.978 89.614 121.47C89.3965 121.919 89.1453 122.143 88.5847 122.136C85.1783 122.103 81.775 122.121 78.0593 122.121L78.0623 122.118ZM96.2276 91.5091C96.2337 93.5821 96.1633 93.6463 94.4019 93.0256C93.2899 92.6342 92.3035 92.0044 91.3938 91.2553C90.8148 90.7783 90.2389 90.9312 89.758 91.4204C89.2403 91.9494 89.3015 92.5242 89.7855 93.047C90.0612 93.3467 90.3645 93.6218 90.6831 93.8725C94.4754 96.8475 101.089 96.6457 104.734 93.469C105.417 92.8758 105.641 92.2092 105.087 91.4816C104.471 90.6682 103.772 90.9495 103.114 91.506C102.131 92.3407 100.994 92.888 99.7504 93.2182C99.3797 93.3161 98.8008 93.5668 98.8743 92.8819C99.0152 91.5549 98.3168 90.1423 99.6616 88.9193C100.96 87.7391 100.767 85.5132 99.5697 84.3942C98.3566 83.2598 96.292 83.2812 95.1371 84.437C93.9424 85.6355 93.9056 87.6566 95.2075 88.9652C95.9948 89.7571 96.3716 90.5796 96.2276 91.506V91.5091ZM90.34 81.8075C90.3522 80.4133 89.3168 79.3554 87.9047 79.3278C86.7406 79.3034 85.7542 80.3796 85.7175 81.7219C85.6746 83.1773 86.7437 84.3728 88.0701 84.3544C89.3444 84.3361 90.3308 83.2323 90.343 81.8075H90.34ZM106.563 79.3462C105.286 79.3859 104.351 80.508 104.382 81.9634C104.413 83.3607 105.46 84.385 106.799 84.3239C108.006 84.2688 109.014 83.1161 108.971 81.835C108.928 80.5233 107.752 79.3064 106.563 79.3431V79.3462Z" fill="#F7F1DF"/>
<path d="M99.0307 151.674C99.0307 142.966 99.0552 134.255 99.0001 125.547C98.994 124.376 99.3095 124.129 100.437 124.141C106.049 124.202 111.664 124.199 117.276 124.144C118.311 124.135 118.55 124.459 118.547 125.428C118.525 142.948 118.529 160.47 118.562 177.99C118.562 178.972 118.238 179.158 117.337 179.152C111.673 179.115 106.009 179.106 100.345 179.164C99.2452 179.177 99.0093 178.846 99.0154 177.801C99.0583 169.093 99.0399 160.382 99.0399 151.674H99.0307Z" fill="#CEFFFD"/>
<path d="M157.447 90.9862C164.076 90.9862 170.708 91.0138 177.337 90.9679C178.609 90.9587 179.188 91.0199 178.912 92.6404C177.585 100.422 173.937 106.589 166.628 110.022C160.52 112.89 154.289 112.664 148.178 109.75C147.51 109.432 147.155 109.081 147.06 108.215C146.744 105.387 143.813 103.027 141.037 103.333C140.33 103.409 140.002 103.223 139.683 102.724C137.619 99.4801 136.277 95.97 135.671 92.1665C135.484 91.0015 136.072 90.971 136.945 90.974C143.779 90.9954 150.613 90.9862 157.447 90.9893V90.9862Z" fill="#FFEFF6"/>
<path d="M66.6516 122.149C64.2928 122.149 62.2251 122.149 60.1574 122.149C56.025 122.149 51.8927 122.084 47.7634 122.179C46.0265 122.219 46.3849 120.883 46.0939 120.021C45.7293 118.95 46.8627 119.287 47.2487 119.149C49.0009 118.513 50.8144 118.039 52.6095 117.52C53.4825 117.266 54.1381 116.819 53.8654 115.801C53.5805 114.74 52.6799 114.951 51.9754 115.144C50.0761 115.664 48.1922 116.242 46.3297 116.877C45.4812 117.168 45.1687 116.908 44.988 116.11C44.5898 114.34 44.2681 112.536 43.6677 110.833C43.2297 109.582 43.6769 109.267 44.743 109.007C46.3052 108.625 47.8461 108.163 49.3746 107.665C50.2048 107.396 51.3964 107.216 51.0472 105.947C50.6919 104.656 49.6626 104.935 48.6731 105.262C47.0465 105.806 45.3893 106.265 43.7596 106.797C43.0061 107.044 42.5466 106.959 42.3321 106.087C42.0319 104.861 41.5847 103.669 41.6184 102.379C41.6919 99.4984 43.0918 97.7954 45.8427 97.0279C51.5771 95.4258 57.2963 93.7594 63.0246 92.1328C65.6284 91.3929 67.2887 92.0992 68.6274 94.4993C69.7241 96.4684 69.8772 98.7585 70.7258 100.798C71.6417 102.999 71.127 104.47 69.3136 106.084C66.3269 108.738 64.3756 112.105 64.3204 116.284C64.2928 118.434 65.1199 120.29 66.6516 122.149Z" fill="white"/>
<path d="M167.376 88.5188C163.908 88.5188 160.443 88.4943 156.976 88.5371C156.133 88.5463 155.848 88.3445 155.855 87.4548C155.885 80.9942 155.876 74.5306 155.842 68.07C155.839 67.2292 156.054 67.0457 156.884 67.2016C159.236 67.6419 161.549 68.1831 163.718 69.2135C170.715 72.537 176.069 77.371 178.299 85.0668C178.965 87.3661 178.128 88.5168 175.787 88.5188C172.984 88.5188 170.182 88.5188 167.376 88.5188Z" fill="#FFEFF6"/>
<path d="M100.893 113.906C101.766 114.881 102.605 115.85 103.705 116.52C104.351 116.914 105.145 117.391 105.758 116.596C106.373 115.795 105.748 115.193 105.126 114.688C104.891 114.496 104.655 114.3 104.425 114.101C102.878 112.774 102.985 111.68 104.67 110.454C105.209 110.059 105.375 110.454 105.672 110.671C106.771 111.49 107.847 112.34 108.971 113.12C109.783 113.682 110.748 113.994 111.345 112.93C111.887 111.967 111.103 111.411 110.316 111.093C109.078 110.591 108.625 109.072 107.194 108.806C106.863 108.744 106.971 108.341 107.243 108.087C108.358 107.041 109.458 105.98 110.567 104.929C111.149 104.378 111.624 104.488 112.258 104.996C115.876 107.894 118.243 107.98 122.229 105.491C123.776 104.525 125.105 103.235 126.824 102.522C129.106 101.574 129.905 101.85 130.901 104.054C131.462 105.296 131.998 106.549 132.54 107.797C132.558 107.836 132.528 107.894 132.515 107.956C131.342 108.442 130.46 107.934 129.673 107.115C128.551 105.95 127.194 105.629 125.626 105.904C125.255 105.968 124.903 106.017 124.689 106.311C120.771 111.643 115.428 115.398 110.261 119.351C109.979 119.568 109.633 119.767 109.467 120.057C108.266 122.146 106.355 122.213 104.238 122.152C100.28 122.039 96.3134 122.118 92.1902 122.118C93.2164 120.173 94.7634 118.929 96.2337 117.645C97.7256 116.342 99.3215 115.159 100.893 113.909V113.906Z" fill="#CEFFFD"/>
<path d="M111.636 122.115C113.186 120.476 114.813 119.458 116.399 118.382C116.945 118.012 117.343 118.195 117.75 118.581C118.268 119.073 118.789 119.559 119.316 120.042C119.843 120.525 120.397 120.871 121.04 120.229C121.674 119.593 121.533 118.929 120.991 118.348C120.47 117.792 119.907 117.266 119.3 116.807C118.767 116.407 118.715 116.193 119.239 115.682C121.252 113.725 121.23 113.695 123.203 115.682C123.739 116.223 124.226 116.816 124.741 117.382C125.366 118.064 126.067 118.629 126.962 117.874C127.804 117.162 127.4 116.37 126.824 115.74C125.932 114.765 125.056 113.731 123.996 112.964C122.97 112.221 123.056 111.726 123.938 111.056C124.058 110.964 124.14 110.824 124.251 110.723C125.035 109.998 125.497 108.812 126.505 108.494C127.626 108.142 128.098 109.527 128.986 109.974C130.803 110.888 132.555 111.025 134.369 110.077C135.64 109.411 136.727 108.494 137.824 107.579C138.841 106.736 139.892 105.913 141.316 105.892C142.667 105.87 143.607 106.439 144.235 107.677C144.882 108.952 144.07 109.646 143.316 110.34C141.298 112.196 139.674 114.251 138.957 116.991C138.59 118.391 138.985 119.678 139.009 121.017C139.022 121.696 139.052 122.136 138.1 122.133C129.382 122.094 120.667 122.112 111.636 122.112V122.115Z" fill="#CEFFFD"/>
<path d="M65.849 86.6384C65.9685 88.0907 65.2149 88.9805 63.9099 89.3566C57.0574 91.3226 50.1987 93.2763 43.3308 95.1812C41.1926 95.7743 40.0684 95.0375 39.5078 92.8788C39.3669 92.3407 39.2229 91.7965 39.1678 91.2492C38.9717 89.3382 39.5936 88.4118 41.453 87.8859C47.6316 86.14 53.8133 84.4095 59.9951 82.6758C60.1421 82.6361 60.2983 82.6239 60.4392 82.5688C64.5042 81.0401 65.5182 82.792 65.8521 86.6384L65.849 86.6384Z" fill="#2DA8A9"/>
<path d="M40.6933 83.801C40.6504 83.2812 41.0486 82.7309 41.4254 82.1927C41.8604 81.569 42.375 80.9973 42.8437 80.3949C44.6756 78.0253 45.57 75.4386 44.7062 72.43C44.5101 71.7513 44.4274 71.0388 44.311 70.3417C43.9894 68.4308 44.5683 67.2536 46.1245 66.6268C47.8644 65.9236 49.6534 66.4678 50.6306 68.0547C51.0564 68.7426 51.2984 69.5101 51.4699 70.3173C52.0918 73.2066 53.7582 75.1879 56.6438 76.0991C57.7037 76.4323 58.7391 76.8665 59.7531 77.3251C60.5587 77.689 61.0121 78.3464 60.9171 79.2759C60.8221 80.2053 60.0073 80.1075 59.4161 80.2451C53.7398 81.5812 48.2167 83.4647 42.5864 84.969C41.5908 85.235 40.7392 85.4674 40.6963 83.798L40.6933 83.801Z" fill="#F6CD57"/>
<path d="M163.81 113.759C161.549 116.462 161.598 119.155 162.897 121.99C158.492 121.99 154.222 121.977 149.949 122.002C149.238 122.005 149.106 121.699 149.112 121.085C149.128 118.308 149.336 115.511 148.264 112.572C150.935 113.585 153.419 114.205 155.977 114.422C158.507 114.639 161.025 114.422 163.81 113.759Z" fill="#2DA8A9"/>
<path d="M169.039 122.103C165.917 122.103 164.885 121.421 164.459 119.204C164.11 117.385 165.247 115.3 167.039 114.471C168.901 113.612 171.508 114.269 172.663 115.89C173.848 117.556 173.677 119.92 172.298 121.513C171.297 122.668 169.982 121.806 169.039 122.103Z" fill="#F6CD57"/>
<path d="M145.387 112.016C147.008 115.101 146.689 118.311 146.686 121.482C146.686 121.837 146.511 122.045 146.138 122.051C145.835 122.057 145.525 122.1 145.225 122.066C144.042 121.932 142.373 122.681 141.773 121.733C140.97 120.461 141.27 118.691 141.644 117.159C142.1 115.281 142.967 114.165 145.387 112.016Z" fill="#F6CD57"/>
<path d="M67.206 53.7913C57.9672 53.7913 48.7313 53.7974 39.4925 53.7882C36.6038 53.7852 36.4292 53.5925 36.4292 50.7765C36.4292 46.0404 36.4261 41.3012 36.4292 36.5651C36.4292 34.914 36.9285 34.4126 38.6041 34.4126C57.5904 34.4095 76.5766 34.4187 95.5629 34.3881C96.5615 34.3881 96.8341 34.6419 96.825 35.6509C96.7729 41.2523 96.7545 46.8568 96.8372 52.4612C96.8556 53.6965 96.4359 53.828 95.376 53.8249C85.984 53.7852 76.595 53.8035 67.203 53.8035V53.7943L67.206 53.7913Z" fill="white"/>
<path d="M150.959 34.0214C160.345 34.0214 169.728 34.0214 179.114 34.0214C181.111 34.0214 181.565 34.4587 181.568 36.388C181.568 41.225 181.568 46.059 181.568 50.896C181.568 52.8712 181.096 53.3971 179.194 53.3971C160.272 53.4062 141.35 53.3971 122.428 53.4276C121.411 53.4276 121.181 53.1372 121.187 52.1618C121.236 46.5635 121.258 40.9621 121.178 35.3637C121.16 34.1254 121.604 33.997 122.655 34C132.09 34.0367 141.524 34.0214 150.962 34.0214H150.959Z" fill="white"/>
<path d="M128.061 31.9635C133.664 29.0436 139.202 26.0777 145.323 24.5123C147.213 24.0292 149.158 23.9375 151.024 24.711C151.627 24.9617 152.194 25.3195 152.543 25.9371C152.911 26.5883 153.539 26.6403 154.136 26.3988C154.773 26.1389 154.779 25.509 154.66 24.9495C154.301 23.2709 152.947 22.5891 151.529 22.106C148.346 21.0236 145.231 21.6198 142.134 22.6227C135.337 24.818 129.179 28.4106 122.756 31.4254C122.48 31.5538 122.232 31.8198 121.953 31.8473C121.147 31.9299 120.281 32.1103 119.53 31.9115C118.381 31.6058 119.098 30.5509 119.018 29.8477C118.712 27.1785 119.031 24.4511 118.262 21.8216C118.149 21.4395 118.25 21.1429 118.489 20.8402C123.77 14.1747 129.532 8.04743 137.23 4.07875C142.845 1.18326 147.807 2.66311 151.468 7.46344C154.764 11.7868 156.816 16.6422 157.588 22.0143C157.824 23.6531 157.469 25.1727 156.495 26.6128C154.96 28.8846 152.803 30.34 150.485 31.6394C150.08 31.8657 149.654 31.9727 149.177 31.9696C142.137 31.9574 135.098 31.9604 128.058 31.9604L128.061 31.9635Z" fill="#CEFFFD"/>
<path d="M90.0091 31.9666C82.9697 31.9666 75.9333 31.9941 68.8939 31.9543C64.7677 31.9299 59.946 26.9522 60.234 22.6686C60.7149 15.517 63.8303 9.49671 69.2094 4.7881C72.1257 2.23505 75.6454 2.00879 79.2294 3.3908C83.4384 5.01435 86.8877 7.79366 90.101 10.8512C92.1902 12.8386 94.2916 14.8107 96.0071 17.1895C96.8678 18.385 98.0717 19.3848 98.9876 20.5925C99.3032 21.0114 99.585 21.3875 99.4502 21.9684C98.7426 24.9617 98.7119 28.0193 98.7334 31.0676C98.7395 31.8473 98.5251 31.988 97.8236 31.9818C96.8954 31.9727 96.0561 31.8657 95.1953 31.4162C91.4703 29.4686 87.7852 27.4047 83.9285 25.7567C79.2172 23.7479 74.5671 21.3263 69.1972 21.5618C66.9702 21.6596 65.025 22.4087 63.6005 24.2096C63.1012 24.8394 62.6785 25.5671 63.4474 26.2214C64.1734 26.8421 64.8044 26.4722 65.4048 25.824C67.2857 23.7846 69.7669 23.9527 72.1073 24.4083C77.0177 25.3623 81.5545 27.4383 85.9105 29.8079C87.2828 30.554 88.6919 31.1777 90.0153 31.9666H90.0091Z" fill="#CEFFFD"/>
<path d="M108.812 34.0228C111.667 34.0228 114.522 34.0625 117.377 34.0014C118.333 33.98 118.568 34.2735 118.562 35.206C118.516 40.8533 118.507 46.5006 118.556 52.1479C118.565 53.1935 118.222 53.3984 117.248 53.3923C111.59 53.3464 105.932 53.3372 100.274 53.3984C99.2145 53.4106 99.0154 53.0743 99.0216 52.1142C99.0614 46.5189 99.0736 40.9206 99.0124 35.3253C99.0001 34.2001 99.38 33.98 100.403 34.0014C103.206 34.0656 106.009 34.0228 108.815 34.0228H108.812Z" fill="#CEFFFD"/>
<path d="M108.848 31.9666C106.658 31.9666 104.468 31.9543 102.275 31.9727C101.696 31.9788 101.337 31.9207 101.34 31.1747C101.356 28.3801 101.325 25.5824 101.953 22.8367C102.428 20.7699 103.736 19.7425 105.843 19.7242C107.424 19.7089 109.005 19.7609 110.582 19.7058C114.528 19.5652 115.441 20.5833 116.038 24.1759C116.424 26.4936 116.301 28.8387 116.344 31.1747C116.356 31.9146 116.004 31.9788 115.416 31.9727C113.226 31.9513 111.036 31.9635 108.842 31.9635L108.848 31.9666Z" fill="#CEFFFD"/>
<path d="M96.2276 91.5091C96.3716 90.5857 95.9948 89.7602 95.2075 88.9683C93.9087 87.6627 93.9424 85.6386 95.1371 84.44C96.2889 83.2843 98.3566 83.2629 99.5697 84.3972C100.767 85.5194 100.96 87.7422 99.6616 88.9224C98.3168 90.1454 99.0152 91.558 98.8743 92.885C98.8008 93.5668 99.3797 93.3191 99.7504 93.2213C100.994 92.8941 102.128 92.3438 103.114 91.5091C103.772 90.9495 104.471 90.6713 105.087 91.4846C105.641 92.2123 105.417 92.8789 104.734 93.472C101.089 96.6488 94.4724 96.8506 90.6831 93.8756C90.3645 93.6249 90.0582 93.3467 89.7855 93.0501C89.3046 92.5272 89.2403 91.9524 89.758 91.4235C90.2389 90.9343 90.8148 90.7814 91.3938 91.2584C92.3066 92.0075 93.2899 92.6343 94.4019 93.0287C96.1633 93.6494 96.2337 93.5821 96.2276 91.5121V91.5091Z" fill="#5AA4FF"/>
<path d="M90.34 81.8075C90.3277 83.2323 89.3414 84.3361 88.067 84.3544C86.7406 84.3728 85.6715 83.1773 85.7144 81.7219C85.7542 80.3796 86.7376 79.3034 87.9016 79.3278C89.3138 79.3584 90.3522 80.4133 90.3369 81.8075H90.34Z" fill="#5AA4FF"/>
<path d="M106.563 79.3462C107.749 79.3095 108.925 80.5264 108.971 81.8381C109.014 83.1192 108.006 84.2719 106.799 84.3269C105.46 84.3881 104.413 83.3638 104.382 81.9665C104.351 80.5111 105.286 79.389 106.563 79.3492L106.563 79.3462Z" fill="#5AA4FF"/>
</svg>
