<svg width="218" height="288" viewBox="0 0 218 288" fill="none" xmlns="http://www.w3.org/2000/svg">
<path d="M8.8 276.689C6.68148 276.689 4.94815 276.393 3.6 275.8C2.25185 275.193 1.57778 274.296 1.57778 273.111C1.57778 271.941 2.25185 271.059 3.6 270.467C4.94815 269.859 6.68148 269.556 8.8 269.556C10.9185 269.556 12.6519 269.859 14 270.467C15.3481 271.059 16.0222 271.941 16.0222 273.111C16.0222 274.296 15.3481 275.193 14 275.8C12.6519 276.393 10.9185 276.689 8.8 276.689ZM8.8 271.222C7.33333 271.222 6.11111 271.393 5.13333 271.733C4.17037 272.059 3.68889 272.519 3.68889 273.111C3.68889 273.733 4.17037 274.207 5.13333 274.533C6.11111 274.859 7.33333 275.022 8.8 275.022C10.2667 275.022 11.4815 274.859 12.4444 274.533C13.4074 274.207 13.8889 273.733 13.8889 273.111C13.8889 272.519 13.4074 272.059 12.4444 271.733C11.4815 271.393 10.2667 271.222 8.8 271.222ZM12.8667 281.711H15.8V286.778H13.7778V283.444H1.66667V281.711H4.75556V279.667H0.688889V277.933H16.9111V279.667H12.8667V281.711ZM6.73333 279.667V281.711H10.8667V279.667H6.73333Z" fill="#4ABAD9"/>
<path d="M33.0421 278.556V286.756H31.0421V269.689H33.0421V276.533H35.2865V278.556H33.0421ZM23.6421 270.067C25.1384 270.067 26.3162 270.733 27.1754 272.067C28.0495 273.4 28.4865 275.385 28.4865 278.022C28.4865 280.659 28.0495 282.644 27.1754 283.978C26.3162 285.311 25.1384 285.978 23.6421 285.978C22.1606 285.978 20.9828 285.311 20.1088 283.978C19.2347 282.644 18.7977 280.659 18.7977 278.022C18.7977 275.385 19.2347 273.4 20.1088 272.067C20.9828 270.733 22.1606 270.067 23.6421 270.067ZM23.6421 284.044C24.5014 284.044 25.1902 283.556 25.7088 282.578C26.2273 281.585 26.4865 280.067 26.4865 278.022C26.4865 275.978 26.2273 274.467 25.7088 273.489C25.1902 272.496 24.5014 272 23.6421 272C22.768 272 22.0717 272.496 21.5532 273.489C21.0347 274.467 20.7754 275.978 20.7754 278.022C20.7754 280.067 21.0347 281.585 21.5532 282.578C22.0717 283.556 22.768 284.044 23.6421 284.044Z" fill="#4ABAD9"/>
<path d="M52.1064 279.311H35.8842V277.622H39.3953V275.511C38.5805 275.259 37.9435 274.911 37.4842 274.467C37.0398 274.022 36.8175 273.481 36.8175 272.844C36.8175 271.733 37.4842 270.911 38.8175 270.378C40.1509 269.83 41.8768 269.556 43.9953 269.556C46.1138 269.556 47.8398 269.83 49.1731 270.378C50.5064 270.911 51.1731 271.733 51.1731 272.844C51.1731 273.481 50.9435 274.022 50.4842 274.467C50.0398 274.911 49.4101 275.259 48.5953 275.511V277.622H52.1064V279.311ZM43.9953 271.2C42.5138 271.2 41.299 271.341 40.3509 271.622C39.4027 271.904 38.9286 272.311 38.9286 272.844C38.9286 273.393 39.3953 273.807 40.3286 274.089C41.2768 274.356 42.499 274.489 43.9953 274.489C45.4916 274.489 46.7064 274.356 47.6398 274.089C48.5879 273.807 49.062 273.393 49.062 272.844C49.062 272.311 48.5879 271.904 47.6398 271.622C46.6916 271.341 45.4768 271.2 43.9953 271.2ZM46.5953 277.622V275.956C45.899 276.074 45.0323 276.133 43.9953 276.133C42.9583 276.133 42.0916 276.074 41.3953 275.956V277.622H46.5953ZM43.9953 280.578C46.1731 280.578 47.9064 280.822 49.1953 281.311C50.499 281.785 51.1509 282.57 51.1509 283.667C51.1509 284.778 50.499 285.578 49.1953 286.067C47.8916 286.556 46.1583 286.8 43.9953 286.8C41.8472 286.8 40.1138 286.556 38.7953 286.067C37.4916 285.578 36.8398 284.778 36.8398 283.667C36.8398 282.57 37.4916 281.785 38.7953 281.311C40.099 280.822 41.8323 280.578 43.9953 280.578ZM43.9953 285.156C45.462 285.156 46.662 285.037 47.5953 284.8C48.5435 284.563 49.0175 284.185 49.0175 283.667C49.0175 283.148 48.5435 282.778 47.5953 282.556C46.662 282.333 45.462 282.222 43.9953 282.222C42.5286 282.222 41.3212 282.333 40.3731 282.556C39.4249 282.778 38.9509 283.148 38.9509 283.667C38.9509 284.185 39.4249 284.563 40.3731 284.8C41.3212 285.037 42.5286 285.156 43.9953 285.156Z" fill="#4ABAD9"/>
<path d="M54.4152 276.289V274.644H57.2596V271.511H54.593V269.867H68.6152V271.511H65.9263V274.644H68.7707V276.289H54.4152ZM63.9485 274.644V271.511H59.2596V274.644H63.9485ZM62.593 281.089H68.593V286.556H54.593V281.089H60.593V279.4H53.4819V277.733H69.7041V279.4H62.593V281.089ZM56.593 282.711V284.956H66.6152V282.711H56.593Z" fill="#4ABAD9"/>
<path d="M76.4296 272.2V270.267H90.674V281.533H88.6296V272.2H76.4296ZM91.6963 285.956H75.474V284.022H78.5629V277.244H80.5852V284.022H83.6296V277.244H85.6518V284.022H91.6963V285.956Z" fill="#4ABAD9"/>
<path d="M93.1161 272.533V270.956H97.4717V269.2H99.5161V270.956H103.961V272.533H93.1161ZM110.072 276.356H107.872V283.022H105.872V269.689H107.872V274.422H110.072V276.356ZM104.538 280.8C104.049 281.022 103.338 281.193 102.405 281.311C101.472 281.415 100.42 281.467 99.2495 281.467H93.0717V279.822H97.4939V278.489C96.3532 278.4 95.4569 278.126 94.805 277.667C94.1532 277.207 93.8273 276.622 93.8273 275.911C93.8273 275.096 94.2495 274.459 95.0939 274C95.9532 273.526 97.1013 273.289 98.5384 273.289C99.9606 273.289 101.094 273.526 101.938 274C102.798 274.474 103.227 275.111 103.227 275.911C103.227 276.637 102.894 277.23 102.227 277.689C101.561 278.133 100.649 278.4 99.4939 278.489V279.822C101.938 279.793 103.62 279.57 104.538 279.156V280.8ZM95.7161 275.911C95.7161 276.267 95.968 276.556 96.4717 276.778C96.9902 276.985 97.6791 277.089 98.5384 277.089C99.3828 277.089 100.057 276.978 100.561 276.756C101.079 276.533 101.338 276.252 101.338 275.911C101.338 275.57 101.079 275.296 100.561 275.089C100.057 274.867 99.3828 274.756 98.5384 274.756C97.6791 274.756 96.9902 274.867 96.4717 275.089C95.968 275.296 95.7161 275.57 95.7161 275.911ZM108.294 284.844V286.556H94.2495V282.556H96.2717V284.844H108.294Z" fill="#4ABAD9"/>
<path d="M122.131 268.8L115.531 287.644H113.842L120.442 268.8H122.131Z" fill="#4ABAD9"/>
<path d="M141.245 278.556V286.756H139.245V269.689H141.245V276.533H143.49V278.556H141.245ZM133.69 283.8C134.475 283.8 135.253 283.733 136.023 283.6C136.793 283.452 137.416 283.259 137.89 283.022V284.933C137.416 285.185 136.786 285.385 136.001 285.533C135.23 285.681 134.445 285.756 133.645 285.756H127.245V270.178H129.29V283.8H133.69Z" fill="#4ABAD9"/>
<path d="M145.243 275.711V269.667H147.243V274.044H159.354V275.711H145.243ZM153.198 280.667H159.221V286.556H145.198V280.667H151.198V278.933H144.087V277.244H160.31V278.933H153.198V280.667ZM147.176 282.333V284.911H157.221V282.333H147.176Z" fill="#4ABAD9"/>
<path d="M167.013 275.711V274.156H169.857V271.422H167.191V269.867H181.213V271.422H178.524V274.156H181.368V275.711H167.013ZM176.546 274.156V271.422H171.835V274.156H176.546ZM182.302 278.667H166.08V277.067H182.302V278.667ZM181.48 285.156V286.556H167.191V282.644H179.257V281.4H167.146V280H181.213V283.889H169.146V285.156H181.48Z" fill="#4ABAD9"/>
<path d="M193.033 280.156V269.778H194.899V273.711H197.433V269.689H199.344V281.733H197.433V275.644H194.899V280.156H193.033ZM191.966 279.111C190.988 279.541 189.477 279.756 187.433 279.756H184.166V274.067H189.211V271.8H184.166V270.089H191.077V275.689H186.01V278.044H187.566C189.507 278.044 190.973 277.837 191.966 277.422V279.111ZM192.033 283.889C191.188 284.748 190.136 285.407 188.877 285.867C187.618 286.311 186.292 286.541 184.899 286.556V284.644C185.951 284.63 186.966 284.459 187.944 284.133C188.936 283.807 189.781 283.333 190.477 282.711C191.173 282.089 191.618 281.356 191.811 280.511L193.766 280.956C193.692 281.37 193.522 281.844 193.255 282.378L200.077 284.933L199.366 286.778L192.033 283.889Z" fill="#4ABAD9"/>
<path d="M217.497 279.6H201.275V277.956H208.386V276.289H202.208V274.644H205.053V271.511H202.386V269.867H216.408V271.511H213.719V274.644H216.564V276.289H210.386V277.956H217.497V279.6ZM211.741 274.644V271.511H207.053V274.644H211.741ZM216.386 281.089V286.556H202.386V281.089H216.386ZM214.408 284.933V282.733H204.386V284.933H214.408Z" fill="#4ABAD9"/>
<path d="M74.5961 102.265C76.1675 101.26 77.6164 100.333 79.1665 99.3425C76.8414 96.7466 75.1842 93.8297 74.4061 90.4542C73.5729 86.8524 73.3493 83.2507 74.495 79.6764C74.7615 78.8447 74.4429 78.5849 73.7873 78.2179C70.3166 76.2672 68.154 72.0662 68.7421 68.5103C69.5692 63.4867 72.8193 60.2335 76.9425 59.3071C80.5848 58.4907 83.933 59.677 86.4295 62.5817C87.2536 63.5418 87.6916 63.8078 89.0977 63.2819C95.3069 60.9581 101.614 60.8634 107.781 63.5632C108.663 63.9484 108.917 63.7619 109.423 63.0984C111.876 59.8666 116.33 58.4112 120.215 59.4875C124.338 60.6279 127.429 64.2847 128.001 68.709C128.492 72.4728 126.375 76.4109 122.708 78.4197C122.028 78.7928 122.022 79.0832 122.151 79.817C123.4 86.8463 122.448 93.3803 117.494 98.9053C117.032 99.422 116.946 99.5932 117.62 99.9784C118.631 100.556 119.734 101.137 120.472 101.996C121.673 103.397 122.53 102.969 123.704 102.006C124.993 100.948 126.485 100.141 128.127 99.688C130.621 99 132.59 99.7583 133.809 102.027C134.594 103.489 135.209 105.039 135.914 106.577C136.079 106.515 136.236 106.494 136.349 106.408C137.974 105.187 138.297 103.682 137.317 101.892C135.173 97.9941 134.1 93.8022 133.929 89.381C133.785 85.6722 131.76 83.7001 128.026 83.7368C127.061 83.746 126.093 83.9569 125.137 83.6512C124.525 83.4555 124.175 83.0091 124.185 82.4221C124.194 81.8167 124.638 81.2785 125.208 81.248C128.424 81.0798 131.659 80.8841 134.232 83.4525C135.396 84.6143 136.165 85.9749 136.3 87.5832C136.373 88.4362 136.695 88.5463 137.409 88.5433C142.717 88.5249 148.026 88.5005 153.332 88.5647C154.462 88.5799 154.382 88.0174 154.382 87.2591C154.373 80.7374 154.373 74.2187 154.395 67.697C154.401 65.2784 155.246 64.456 157.679 64.6883C170.21 65.8961 183.183 77.1233 182.546 91.3042C182.176 99.5443 178.227 105.962 171.607 110.796C171.362 110.973 171.108 111.138 170.86 111.316C170.823 111.34 170.811 111.401 170.722 111.567C173.084 112.04 175.066 113.071 176.214 115.284C177.385 117.541 177.207 119.77 176.006 121.99C180.166 122.042 180.999 122.837 180.457 127.181C179.799 132.474 179.278 137.785 178.708 143.09C178.157 148.239 177.624 153.391 177.075 158.54C176.512 163.838 175.939 169.137 175.372 174.439C175.271 175.399 175.259 176.374 175.093 177.322C174.551 180.431 172.692 181.985 169.512 181.988C161.14 182 152.771 181.991 144.399 181.991C113.163 181.991 81.9234 181.991 50.6871 181.994C47.3359 181.994 45.4581 180.043 45.069 176.683C44.4993 171.766 43.9448 166.844 43.3903 161.93C42.8053 156.739 42.2539 151.535 41.7239 146.331C41.1051 140.268 40.3853 134.211 39.7052 128.154C39.5919 127.145 39.4356 126.139 39.3468 125.127C39.1998 123.473 40.3638 122.231 42.0578 122.124C43.0503 122.06 44.4686 122.61 44.9159 121.867C45.2835 121.256 44.5728 119.987 44.3155 119.015C43.0166 114.071 41.7025 109.133 40.4159 104.186C39.9074 102.235 40.2229 100.345 41.1082 98.5659C41.436 97.9085 41.6351 97.5997 40.7498 97.1105C37.4966 95.3065 36.7461 89.5584 39.31 86.8219C39.5704 86.5436 39.9411 86.4274 39.647 85.8587C38.7219 84.0731 39.2457 82.4159 40.3056 80.8627C40.5905 80.4438 40.903 80.0372 41.2369 79.655C43.1606 77.4505 43.9816 75.1237 43.0503 72.0998C42.0119 68.7273 42.94 66.2599 45.1793 64.7678C48.6071 62.4839 53.6187 64.2909 54.4703 68.4889C55.1656 71.9164 57.218 73.4574 60.1863 74.4633C61.8252 75.0167 63.6999 75.6007 64.0553 77.5208C64.3463 79.0985 65.1581 79.6825 66.4692 80.3277C68.8738 81.517 70.1022 86.3969 68.7911 89.0477C68.4511 89.7387 68.4542 89.9772 69.1281 90.4145C71.0855 91.6895 72.2465 93.579 72.8653 95.8018C73.4473 97.8993 73.9987 100.003 74.6052 102.256L74.5961 102.265ZM150.275 124.57C141.394 124.57 132.514 124.589 123.636 124.546C122.561 124.54 122.175 124.711 122.178 125.922C122.227 143.34 122.224 160.762 122.178 178.181C122.175 179.383 122.549 179.578 123.636 179.572C132.823 179.533 142.007 179.554 151.194 179.557C157.115 179.557 163.033 179.572 168.954 179.557C171.494 179.551 172.621 178.398 172.814 175.897C173.078 172.509 173.265 169.103 173.782 165.749C174.72 159.665 175.047 153.516 175.832 147.416C176.276 143.949 176.613 140.466 176.888 136.975C177.189 133.196 177.697 129.426 178.056 125.646C178.166 124.494 177.706 124.552 176.91 124.555C168.029 124.57 159.149 124.564 150.271 124.567L150.275 124.57ZM97.8005 152.067H97.7943C97.7943 143.411 97.7637 134.758 97.828 126.102C97.8372 124.818 97.5094 124.534 96.2474 124.54C79.1083 124.586 61.9692 124.57 44.8301 124.576C43.8652 124.576 42.6276 124.255 42.0027 124.726C41.1541 125.365 41.9598 126.604 42.0456 127.567C42.4989 132.587 42.9033 137.617 43.5986 142.604C44.4196 148.471 44.922 154.372 45.6664 160.246C46.3464 165.602 46.8488 170.981 47.4829 176.347C47.7617 178.716 48.8246 179.566 51.2507 179.566C66.2976 179.566 81.3445 179.548 96.3944 179.581C97.5064 179.581 97.8403 179.364 97.8311 178.184C97.7729 169.479 97.8005 160.771 97.8005 152.067ZM79.0623 122.118C82.7781 122.118 86.1845 122.103 89.5878 122.133C90.1453 122.139 90.3965 121.916 90.617 121.467C91.8301 118.975 93.7814 117.107 95.9196 115.443C100.19 112.123 104.292 108.631 108.029 104.702C111.573 100.978 111.947 101.003 116.146 103.984C117.179 104.718 118.217 105.026 119.47 104.287C118.11 103.054 116.597 102.131 115.114 101.171C113.552 100.159 113.515 99.7124 114.771 98.4099C120.257 92.7076 121.667 86.085 119.158 78.6185C118.821 77.6156 119.066 77.0805 120.117 76.8665C121.29 76.628 122.291 76.0318 123.158 75.2216C125.499 73.0324 126.24 69.9993 125.079 67.006C123.875 63.9087 121.605 61.9824 118.282 61.6369C114.863 61.2822 112.232 62.7193 110.62 65.7799C110.026 66.9051 109.355 67.1649 108.329 66.4403C106.068 64.8443 103.336 64.5293 100.775 64.1533C96.324 63.502 91.9526 64.2756 87.955 66.5106C86.9043 67.0977 86.307 66.8622 85.7893 65.8105C83.9238 62.0191 79.4544 60.5331 75.61 62.4624C72.899 63.8231 71.3704 66.1223 71.1621 69.1157C70.9507 72.1518 72.3537 74.4572 74.8472 76.1969C75.7111 76.7992 77.1079 76.4171 77.5521 77.5942C77.984 78.7377 76.8445 79.5205 76.627 80.5539C75.1934 87.4058 76.627 93.4414 81.6355 98.4833C82.8853 99.74 82.8149 100.211 81.2373 101.049C77.5797 102.996 74.1243 105.234 71.3245 108.341C69.3885 110.487 67.8415 112.835 67.6148 115.841C67.3759 119.002 69.2843 121.488 72.4303 122.054C75.6284 122.629 77.9902 121.1 78.7958 117.874C79.0654 116.795 79.1542 115.67 79.433 114.59C79.6107 113.912 79.9384 113.117 80.8452 113.276C81.8377 113.45 81.7059 114.288 81.5191 114.985C80.888 117.351 80.8942 119.917 79.0654 122.115L79.0623 122.118ZM100.239 152.085C100.239 160.796 100.257 169.504 100.214 178.212C100.208 179.257 100.444 179.588 101.544 179.575C107.208 179.514 112.872 179.526 118.536 179.563C119.436 179.569 119.764 179.383 119.761 178.401C119.727 160.882 119.727 143.359 119.746 125.839C119.746 124.867 119.51 124.546 118.475 124.555C112.863 124.61 107.248 124.613 101.636 124.552C100.508 124.54 100.193 124.79 100.199 125.958C100.254 134.666 100.23 143.377 100.23 152.085H100.239ZM158.447 90.9832C151.613 90.9832 144.779 90.9923 137.945 90.9709C137.072 90.9709 136.484 90.9985 136.671 92.1634C137.277 95.967 138.619 99.477 140.683 102.721C141.002 103.222 141.33 103.406 142.037 103.33C144.813 103.024 147.741 105.384 148.06 108.212C148.158 109.075 148.51 109.426 149.178 109.747C155.289 112.664 161.52 112.887 167.628 110.019C174.94 106.589 178.589 100.422 179.912 92.6373C180.188 91.0168 179.609 90.9557 178.337 90.9648C171.708 91.0107 165.076 90.9862 158.447 90.9832ZM67.6516 122.149C66.1199 120.29 65.2898 118.434 65.3204 116.284C65.3756 112.105 67.3269 108.738 70.3136 106.084C72.127 104.473 72.6417 102.999 71.7258 100.798C70.8772 98.7554 70.7271 96.4653 69.6274 94.4993C68.2887 92.0992 66.6284 91.3929 64.0246 92.1328C58.2963 93.7625 52.5771 95.4258 46.8427 97.0279C44.0918 97.7954 42.6919 99.4984 42.6184 102.379C42.5847 103.669 43.0319 104.861 43.3321 106.087C43.5466 106.959 44.0061 107.044 44.7596 106.797C46.3893 106.262 48.0465 105.803 49.6731 105.262C50.6595 104.932 51.6919 104.653 52.0472 105.947C52.3964 107.216 51.2048 107.393 50.3746 107.665C48.8461 108.163 47.3022 108.625 45.7429 109.007C44.6769 109.267 44.2297 109.585 44.6677 110.833C45.2651 112.536 45.5898 114.34 45.988 116.11C46.1687 116.908 46.4812 117.168 47.3297 116.877C49.1922 116.238 51.0761 115.664 52.9754 115.144C53.683 114.951 54.5836 114.74 54.8654 115.801C55.1381 116.822 54.4825 117.266 53.6095 117.52C51.8144 118.039 50.0009 118.513 48.2487 119.149C47.8658 119.29 46.7324 118.95 47.0939 120.021C47.3879 120.883 47.0295 122.219 48.7634 122.179C52.8927 122.084 57.0281 122.149 61.1574 122.149C63.2251 122.149 65.2928 122.149 67.6516 122.149ZM168.376 88.5188C171.178 88.5188 173.981 88.5188 176.787 88.5188C179.13 88.5188 179.967 87.3681 179.299 85.0668C177.069 77.371 171.715 72.537 164.718 69.2135C162.549 68.1831 160.233 67.6419 157.884 67.2016C157.054 67.0457 156.836 67.2292 156.842 68.07C156.876 74.5306 156.885 80.9942 156.855 87.4548C156.851 88.3415 157.136 88.5463 157.976 88.5371C161.44 88.4943 164.908 88.5188 168.376 88.5188ZM101.893 113.906C100.322 115.156 98.7256 116.339 97.2337 117.642C95.7634 118.926 94.2164 120.173 93.1902 122.115C97.3165 122.115 101.28 122.036 105.238 122.149C107.355 122.21 109.266 122.143 110.467 120.054C110.636 119.764 110.979 119.562 111.261 119.348C116.428 115.398 121.771 111.64 125.689 106.308C125.903 106.014 126.255 105.965 126.626 105.901C128.194 105.626 129.551 105.947 130.673 107.112C131.46 107.931 132.342 108.439 133.515 107.953C133.525 107.891 133.555 107.833 133.54 107.794C132.998 106.543 132.458 105.292 131.901 104.051C130.905 101.847 130.106 101.571 127.824 102.519C126.105 103.235 124.776 104.522 123.229 105.488C119.243 107.977 116.876 107.891 113.258 104.993C112.624 104.485 112.152 104.375 111.567 104.926C110.458 105.977 109.358 107.038 108.243 108.084C107.974 108.338 107.866 108.741 108.194 108.803C109.625 109.065 110.078 110.588 111.316 111.09C112.103 111.408 112.887 111.964 112.345 112.927C111.745 113.991 110.783 113.679 109.971 113.117C108.847 112.337 107.768 111.484 106.672 110.668C106.375 110.447 106.212 110.056 105.67 110.451C103.982 111.68 103.875 112.771 105.425 114.098C105.658 114.297 105.891 114.493 106.126 114.685C106.748 115.193 107.373 115.792 106.758 116.593C106.145 117.391 105.351 116.911 104.705 116.517C103.608 115.847 102.766 114.878 101.893 113.902V113.906ZM112.636 122.115C121.663 122.115 130.382 122.1 139.1 122.136C140.052 122.139 140.022 121.699 140.009 121.02C139.985 119.681 139.59 118.394 139.957 116.994C140.677 114.254 142.298 112.199 144.316 110.344C145.073 109.649 145.885 108.955 145.235 107.68C144.607 106.442 143.667 105.873 142.316 105.895C140.892 105.919 139.841 106.739 138.824 107.583C137.727 108.494 136.64 109.414 135.369 110.081C133.555 111.028 131.803 110.891 129.986 109.977C129.098 109.53 128.623 108.145 127.505 108.497C126.497 108.812 126.035 110.001 125.251 110.726C125.137 110.83 125.058 110.97 124.938 111.059C124.056 111.729 123.97 112.224 124.996 112.967C126.056 113.734 126.932 114.765 127.824 115.743C128.397 116.373 128.804 117.165 127.962 117.877C127.07 118.632 126.366 118.067 125.741 117.385C125.226 116.822 124.742 116.229 124.203 115.685C122.23 113.695 122.249 113.725 120.239 115.685C119.712 116.196 119.767 116.41 120.3 116.81C120.907 117.269 121.474 117.795 121.991 118.351C122.533 118.932 122.677 119.596 122.04 120.232C121.397 120.874 120.843 120.528 120.316 120.045C119.789 119.562 119.268 119.076 118.75 118.584C118.346 118.198 117.948 118.018 117.399 118.385C115.813 119.458 114.186 120.479 112.636 122.118V122.115ZM66.849 86.6384C66.512 82.7951 65.5012 81.0401 61.4362 82.5688C61.2953 82.6208 61.139 82.633 60.992 82.6758C54.8103 84.4095 48.6286 86.14 42.4499 87.8859C40.5936 88.4118 39.9687 89.3352 40.1647 91.2492C40.2229 91.7995 40.3669 92.3438 40.5047 92.8788C41.0653 95.0344 42.1895 95.7713 44.3277 95.1812C51.1987 93.2763 58.0543 91.3256 64.9069 89.3566C66.2149 88.9805 66.9685 88.0907 66.8459 86.6384H66.849ZM41.6933 83.801C41.7362 85.4735 42.5878 85.2381 43.5833 84.9721C49.2137 83.4677 54.7368 81.5843 60.413 80.2482C61.0042 80.1106 61.8191 80.2084 61.914 79.2789C62.009 78.3464 61.5556 77.692 60.75 77.3282C59.736 76.8696 58.7007 76.4385 57.6408 76.1021C54.7551 75.191 53.0887 73.2097 52.4669 70.3203C52.2923 69.5101 52.0503 68.7457 51.6275 68.0577C50.6503 66.4709 48.8614 65.9266 47.1214 66.6299C45.5683 67.2567 44.9894 68.4369 45.308 70.3448C45.4244 71.045 45.5101 71.7543 45.7031 72.4331C46.567 75.4417 45.6725 78.0253 43.8406 80.398C43.375 81.0034 42.8604 81.5721 42.4223 82.1958C42.0486 82.7309 41.6473 83.2843 41.6902 83.8041L41.6933 83.801ZM164.81 113.759C162.025 114.422 159.507 114.639 156.977 114.422C154.419 114.202 151.935 113.581 149.264 112.572C150.336 115.514 150.128 118.308 150.112 121.085C150.109 121.702 150.238 122.008 150.949 122.002C155.222 121.977 159.492 121.99 163.897 121.99C162.598 119.155 162.549 116.462 164.81 113.759ZM170.039 122.103C170.982 121.809 172.293 122.668 173.298 121.513C174.677 119.923 174.851 117.556 173.663 115.89C172.511 114.272 169.901 113.612 168.039 114.471C166.247 115.3 165.107 117.385 165.459 119.204C165.885 121.421 166.917 122.1 170.039 122.103ZM146.387 112.016C143.967 114.165 143.1 115.281 142.644 117.159C142.273 118.691 141.97 120.461 142.773 121.733C143.37 122.681 145.039 121.935 146.225 122.066C146.525 122.1 146.835 122.057 147.138 122.051C147.515 122.045 147.686 121.837 147.686 121.482C147.689 118.315 148.008 115.104 146.387 112.016Z" fill="#4ABAD9"/>
<path d="M63.3048 31.9727C59.88 29.2423 58.137 25.9554 58.5781 21.6504C58.765 19.8312 59.1755 18.0548 59.7697 16.3211C61.3381 11.7532 63.5713 7.57046 67.0175 4.12461C71.2846 -0.140656 76.4585 -1.1099 81.9908 1.27193C86.4142 3.17983 90.0044 6.26183 93.4598 9.51199C96.3209 12.2026 98.9921 15.0798 101.427 18.1618C101.976 18.8589 102.313 18.9139 102.947 18.3208C103.624 17.6879 104.478 17.3393 105.413 17.217C108.255 16.847 111.114 16.9632 113.959 17.113C115.359 17.1864 116.536 17.9477 117.513 18.9904C122.255 13.2177 127.297 7.84564 133.528 3.73019C136.036 2.073 138.683 0.626786 141.71 0.192615C146.865 -0.547309 150.942 1.42786 154.147 5.39655C157.718 9.81775 159.991 14.8443 161.027 20.4182C161.799 24.5643 160.561 28.1079 157.587 31.0738C157.265 31.3948 156.677 31.2542 156.429 31.8076C156.802 32.1347 157.271 31.9666 157.679 31.9666C165.23 31.9788 172.781 31.9757 180.335 31.9757C183.612 31.9757 185.003 33.3883 185 36.7057C184.994 41.4419 184.991 46.178 184.994 50.9141C184.997 54.8339 183.582 56.2923 179.707 56.2923C165.214 56.3015 150.725 56.3076 136.232 56.3076C104.494 56.3076 72.7581 56.3015 41.0194 56.2923C40.2045 56.2923 39.3836 56.2893 38.5779 56.1945C36.4367 55.9438 35.049 54.4945 35.0306 52.3298C34.9847 46.7803 34.9816 41.2278 35.0337 35.6784C35.0551 33.4372 36.7001 31.9818 39.0221 31.9788C46.6252 31.9727 54.2283 31.9788 61.8313 31.9788H63.3017L63.3048 31.9727ZM68.206 53.7913V53.8004C77.5981 53.8004 86.9871 53.7852 96.3791 53.8218C97.439 53.8249 97.8587 53.6934 97.8403 52.4582C97.7576 46.8568 97.7759 41.2523 97.828 35.6478C97.8372 34.6388 97.5646 34.3851 96.5659 34.3851C77.5797 34.4126 58.5934 34.4034 39.6072 34.4095C37.9316 34.4095 37.4353 34.911 37.4323 36.562C37.4261 41.2982 37.4323 46.0374 37.4323 50.7735C37.4323 53.5864 37.6069 53.7821 40.4955 53.7852C49.7344 53.7943 58.9702 53.7882 68.2091 53.7882L68.206 53.7913ZM151.959 34.4095C142.524 34.4095 133.09 34.4248 123.652 34.3881C122.601 34.3851 122.157 34.5135 122.175 35.7518C122.255 41.3501 122.23 46.9516 122.184 52.5499C122.175 53.5253 122.405 53.8188 123.425 53.8157C142.347 53.7821 161.269 53.7943 180.191 53.7852C182.093 53.7852 182.565 53.2593 182.565 51.2841C182.568 46.4471 182.568 41.6131 182.565 36.7761C182.565 34.8468 182.111 34.4095 180.111 34.4095C170.725 34.4095 161.342 34.4095 151.956 34.4095H151.959ZM129.061 31.9635C136.101 31.9635 143.14 31.9604 150.18 31.9727C150.657 31.9727 151.083 31.8687 151.488 31.6425C153.807 30.343 155.96 28.8876 157.498 26.6159C158.472 25.1758 158.827 23.6531 158.591 22.0173C157.816 16.6452 155.764 11.7899 152.471 7.4665C148.813 2.66616 143.848 1.18937 138.233 4.08181C130.535 8.05049 124.773 14.1809 119.492 20.8432C119.25 21.1459 119.152 21.4425 119.265 21.8247C120.031 24.4511 119.715 27.1815 120.022 29.8507C120.101 30.554 119.384 31.6088 120.533 31.9146C121.284 32.1133 122.151 31.9329 122.956 31.8504C123.235 31.8229 123.483 31.5569 123.759 31.4284C130.179 28.4137 136.337 24.8211 143.137 22.6258C146.237 21.626 149.349 21.0267 152.532 22.1091C153.947 22.5891 155.301 23.274 155.663 24.9526C155.782 25.5121 155.776 26.145 155.139 26.4018C154.542 26.6434 153.914 26.5914 153.546 25.9401C153.197 25.3256 152.63 24.9648 152.027 24.7141C150.161 23.9405 148.219 24.0292 146.326 24.5153C140.206 26.0808 134.664 29.0436 129.064 31.9666L129.061 31.9635ZM91.0091 31.9666C89.6827 31.1777 88.2767 30.554 86.9043 29.8079C82.5483 27.4383 78.0116 25.3623 73.1012 24.4083C70.7608 23.9528 68.2796 23.7876 66.3987 25.824C65.7983 26.4752 65.1673 26.8421 64.4413 26.2214C63.6724 25.5641 64.0982 24.8394 64.5944 24.2096C66.0189 22.4056 67.964 21.6596 70.191 21.5618C75.561 21.3263 80.2141 23.7479 84.9224 25.7567C88.7821 27.4047 92.4642 29.4686 96.1892 31.4162C97.0499 31.8657 97.8893 31.9727 98.8175 31.9818C99.519 31.988 99.7334 31.8504 99.7273 31.0676C99.7058 28.0193 99.7395 24.9617 100.444 21.9684C100.582 21.3905 100.3 21.0114 99.9815 20.5925C99.0625 19.3848 97.8617 18.3819 97.0009 17.1895C95.2855 14.8107 93.1841 12.8386 91.0949 10.8512C87.8815 7.79366 84.4323 5.01435 80.2233 3.3908C76.6423 2.00879 73.1226 2.23199 70.2033 4.7881C64.8242 9.49976 61.7088 15.517 61.2279 22.6686C60.9399 26.9522 65.7615 31.9329 69.8878 31.9543C76.9272 31.9941 83.9636 31.9666 91.003 31.9666H91.0091ZM110.014 34.434C107.211 34.434 104.405 34.4768 101.602 34.4126C100.576 34.3881 100.196 34.6113 100.211 35.7365C100.273 41.3318 100.26 46.9302 100.22 52.5254C100.214 53.4886 100.41 53.8218 101.473 53.8096C107.131 53.7485 112.789 53.7576 118.447 53.8035C119.421 53.8127 119.764 53.6078 119.755 52.5591C119.706 46.9118 119.712 41.2645 119.761 35.6173C119.767 34.6847 119.534 34.3912 118.576 34.4126C115.721 34.4737 112.866 34.434 110.011 34.437L110.014 34.434ZM109.848 31.9666C112.039 31.9666 114.229 31.9543 116.422 31.9757C117.01 31.9818 117.363 31.9176 117.35 31.1777C117.307 28.8418 117.43 26.4966 117.044 24.179C116.447 20.5864 115.534 19.5682 111.588 19.7089C110.011 19.7639 108.43 19.715 106.849 19.7272C104.742 19.7456 103.434 20.7729 102.959 22.8398C102.331 25.5855 102.359 28.3831 102.346 31.1777C102.343 31.9207 102.699 31.9788 103.281 31.9757C105.471 31.9574 107.661 31.9696 109.854 31.9696L109.848 31.9666Z" fill="#4ABAD9"/>
<path d="M150.275 124.57C159.155 124.57 168.036 124.576 176.913 124.561C177.706 124.561 178.166 124.503 178.059 125.653C177.7 129.435 177.192 133.202 176.891 136.981C176.616 140.472 176.279 143.955 175.835 147.422C175.05 153.522 174.723 159.668 173.785 165.755C173.268 169.109 173.081 172.516 172.817 175.903C172.621 178.404 171.494 179.557 168.958 179.563C163.036 179.575 157.118 179.563 151.197 179.563C142.01 179.563 132.823 179.539 123.639 179.578C122.549 179.585 122.178 179.389 122.181 178.187C122.227 160.768 122.227 143.347 122.181 125.928C122.178 124.714 122.564 124.546 123.639 124.552C132.52 124.592 141.4 124.576 150.278 124.573L150.275 124.57Z" fill="white"/>
<path d="M97.8005 152.067C97.8005 160.771 97.7729 169.479 97.8311 178.184C97.8403 179.364 97.5064 179.585 96.3944 179.581C81.3475 179.548 66.3007 179.563 51.2507 179.566C48.8216 179.566 47.7617 178.716 47.4829 176.347C46.8519 170.984 46.3495 165.602 45.6664 160.246C44.9189 154.372 44.4196 148.471 43.5986 142.604C42.9002 137.617 42.4989 132.584 42.0456 127.567C41.9598 126.604 41.1541 125.365 42.0027 124.726C42.6276 124.255 43.8652 124.576 44.8301 124.576C61.9692 124.57 79.1083 124.586 96.2474 124.54C97.5094 124.537 97.8372 124.821 97.828 126.102C97.7637 134.755 97.7943 143.411 97.7943 152.067H97.8005Z" fill="white"/>
<path d="M79.0623 122.118C80.8911 119.917 80.885 117.354 81.516 114.988C81.7029 114.291 81.8315 113.453 80.8421 113.279C79.9354 113.12 79.6076 113.915 79.4299 114.593C79.1512 115.67 79.0623 116.795 78.7928 117.877C77.9871 121.103 75.6284 122.629 72.4272 122.057C69.2843 121.494 67.3728 119.006 67.6118 115.844C67.8384 112.838 69.3885 110.49 71.3214 108.344C74.1212 105.24 77.5766 103.002 81.2342 101.052C82.8118 100.211 82.8792 99.743 81.6324 98.4864C76.6239 93.4414 75.1903 87.4059 76.624 80.557C76.8414 79.5235 77.981 78.7408 77.5491 77.5973C77.1049 76.4201 75.708 76.8023 74.8442 76.2C72.3507 74.4602 70.9477 72.1518 71.159 69.1187C71.3673 66.1254 72.8959 63.8261 75.6069 62.4655C79.4514 60.5362 83.9207 62.0222 85.7862 65.8135C86.3039 66.8684 86.9013 67.1007 87.952 66.5137C91.9496 64.2786 96.3209 63.5051 100.772 64.1563C103.333 64.5324 106.065 64.8473 108.326 66.4434C109.352 67.168 110.026 66.9112 110.617 65.7829C112.229 62.7223 114.86 61.2853 118.279 61.64C121.605 61.9855 123.875 63.9117 125.076 67.009C126.24 70.0023 125.499 73.0354 123.155 75.2246C122.288 76.0349 121.287 76.6311 120.113 76.8696C119.06 77.0836 118.818 77.6187 119.155 78.6215C121.663 86.0881 120.254 92.7107 114.768 98.413C113.512 99.7186 113.549 100.165 115.111 101.174C116.597 102.134 118.11 103.06 119.467 104.29C118.214 105.03 117.176 104.721 116.143 103.987C111.947 101.003 111.57 100.981 108.026 104.705C104.289 108.634 100.187 112.126 95.9165 115.447C93.7784 117.11 91.827 118.978 90.614 121.47C90.3965 121.919 90.1453 122.143 89.5847 122.136C86.1783 122.103 82.775 122.121 79.0593 122.121L79.0623 122.118ZM97.2276 91.5091C97.2337 93.5821 97.1633 93.6463 95.4019 93.0256C94.2899 92.6342 93.3035 92.0044 92.3938 91.2553C91.8148 90.7783 91.2389 90.9312 90.758 91.4204C90.2403 91.9494 90.3015 92.5242 90.7855 93.047C91.0612 93.3467 91.3645 93.6218 91.6831 93.8725C95.4754 96.8475 102.089 96.6457 105.734 93.469C106.417 92.8758 106.641 92.2092 106.087 91.4816C105.471 90.6682 104.772 90.9495 104.114 91.506C103.131 92.3407 101.994 92.888 100.75 93.2182C100.38 93.3161 99.8008 93.5668 99.8743 92.8819C100.015 91.5549 99.3168 90.1423 100.662 88.9193C101.96 87.7391 101.767 85.5132 100.57 84.3942C99.3566 83.2598 97.292 83.2812 96.1371 84.437C94.9424 85.6355 94.9056 87.6566 96.2075 88.9652C96.9948 89.7571 97.3716 90.5796 97.2276 91.506V91.5091ZM91.34 81.8075C91.3522 80.4133 90.3168 79.3554 88.9047 79.3278C87.7406 79.3034 86.7542 80.3796 86.7175 81.7219C86.6746 83.1773 87.7437 84.3728 89.0701 84.3544C90.3444 84.3361 91.3308 83.2323 91.343 81.8075H91.34ZM107.563 79.3462C106.286 79.3859 105.351 80.508 105.382 81.9634C105.413 83.3607 106.46 84.385 107.799 84.3239C109.006 84.2688 110.014 83.1161 109.971 81.835C109.928 80.5233 108.752 79.3064 107.563 79.3431V79.3462Z" fill="#F7F1DF"/>
<path d="M100.031 151.674C100.031 142.966 100.055 134.255 100 125.547C99.994 124.376 100.309 124.129 101.437 124.141C107.049 124.202 112.664 124.199 118.276 124.144C119.311 124.135 119.55 124.459 119.547 125.428C119.525 142.948 119.529 160.47 119.562 177.99C119.562 178.972 119.238 179.158 118.337 179.152C112.673 179.115 107.009 179.106 101.345 179.164C100.245 179.177 100.009 178.846 100.015 177.801C100.058 169.093 100.04 160.382 100.04 151.674H100.031Z" fill="#C9FFFD"/>
<path d="M158.447 90.9862C165.076 90.9862 171.708 91.0138 178.337 90.9679C179.609 90.9587 180.188 91.0199 179.912 92.6404C178.585 100.422 174.937 106.589 167.628 110.022C161.52 112.89 155.289 112.664 149.178 109.75C148.51 109.432 148.155 109.081 148.06 108.215C147.744 105.387 144.813 103.027 142.037 103.333C141.33 103.409 141.002 103.223 140.683 102.724C138.619 99.4801 137.277 95.97 136.671 92.1665C136.484 91.0015 137.072 90.971 137.945 90.974C144.779 90.9954 151.613 90.9862 158.447 90.9893V90.9862Z" fill="#FFEFF6"/>
<path d="M67.6516 122.149C65.2928 122.149 63.2251 122.149 61.1574 122.149C57.025 122.149 52.8927 122.084 48.7634 122.179C47.0265 122.219 47.3849 120.883 47.0939 120.021C46.7293 118.95 47.8627 119.287 48.2487 119.149C50.0009 118.513 51.8144 118.039 53.6095 117.52C54.4825 117.266 55.1381 116.819 54.8654 115.801C54.5805 114.74 53.6799 114.951 52.9754 115.144C51.0761 115.664 49.1922 116.242 47.3297 116.877C46.4812 117.168 46.1687 116.908 45.988 116.11C45.5898 114.34 45.2681 112.536 44.6677 110.833C44.2297 109.582 44.6769 109.267 45.7429 109.007C47.3052 108.625 48.8461 108.163 50.3746 107.665C51.2048 107.396 52.3964 107.216 52.0472 105.947C51.6919 104.656 50.6626 104.935 49.6731 105.262C48.0465 105.806 46.3893 106.265 44.7596 106.797C44.0061 107.044 43.5466 106.959 43.3321 106.087C43.0319 104.861 42.5847 103.669 42.6184 102.379C42.6919 99.4984 44.0918 97.7954 46.8427 97.0279C52.5771 95.4258 58.2963 93.7594 64.0246 92.1328C66.6284 91.3929 68.2887 92.0992 69.6274 94.4993C70.7241 96.4684 70.8772 98.7585 71.7258 100.798C72.6417 102.999 72.127 104.47 70.3136 106.084C67.3269 108.738 65.3756 112.105 65.3204 116.284C65.2928 118.434 66.1199 120.29 67.6516 122.149Z" fill="white"/>
<path d="M168.376 88.5188C164.908 88.5188 161.443 88.4943 157.976 88.5371C157.133 88.5463 156.848 88.3445 156.855 87.4548C156.885 80.9942 156.876 74.5306 156.842 68.07C156.839 67.2292 157.054 67.0457 157.884 67.2016C160.236 67.6419 162.549 68.1831 164.718 69.2135C171.715 72.537 177.069 77.371 179.299 85.0668C179.965 87.3661 179.128 88.5168 176.787 88.5188C173.984 88.5188 171.182 88.5188 168.376 88.5188Z" fill="#FFEFF6"/>
<path d="M101.893 113.906C102.766 114.881 103.605 115.85 104.705 116.52C105.351 116.914 106.145 117.391 106.758 116.596C107.373 115.795 106.748 115.193 106.126 114.688C105.891 114.496 105.655 114.3 105.425 114.101C103.878 112.774 103.985 111.68 105.67 110.454C106.209 110.059 106.375 110.454 106.672 110.671C107.771 111.49 108.847 112.34 109.971 113.12C110.783 113.682 111.748 113.994 112.345 112.93C112.887 111.967 112.103 111.411 111.316 111.093C110.078 110.591 109.625 109.072 108.194 108.806C107.863 108.744 107.971 108.341 108.243 108.087C109.358 107.041 110.458 105.98 111.567 104.929C112.149 104.378 112.624 104.488 113.258 104.996C116.876 107.894 119.243 107.98 123.229 105.491C124.776 104.525 126.105 103.235 127.824 102.522C130.106 101.574 130.905 101.85 131.901 104.054C132.462 105.296 132.998 106.549 133.54 107.797C133.558 107.836 133.528 107.894 133.515 107.956C132.342 108.442 131.46 107.934 130.673 107.115C129.551 105.95 128.194 105.629 126.626 105.904C126.255 105.968 125.903 106.017 125.689 106.311C121.771 111.643 116.428 115.398 111.261 119.351C110.979 119.568 110.633 119.767 110.467 120.057C109.266 122.146 107.355 122.213 105.238 122.152C101.28 122.039 97.3134 122.118 93.1902 122.118C94.2164 120.173 95.7634 118.929 97.2337 117.645C98.7256 116.342 100.322 115.159 101.893 113.909V113.906Z" fill="#ECFFFE"/>
<path d="M112.636 122.115C114.186 120.476 115.813 119.458 117.399 118.382C117.945 118.012 118.343 118.195 118.75 118.581C119.268 119.073 119.789 119.559 120.316 120.042C120.843 120.525 121.397 120.871 122.04 120.229C122.674 119.593 122.533 118.929 121.991 118.348C121.47 117.792 120.907 117.266 120.3 116.807C119.767 116.407 119.715 116.193 120.239 115.682C122.252 113.725 122.23 113.695 124.203 115.682C124.739 116.223 125.226 116.816 125.741 117.382C126.366 118.064 127.067 118.629 127.962 117.874C128.804 117.162 128.4 116.37 127.824 115.74C126.932 114.765 126.056 113.731 124.996 112.964C123.97 112.221 124.056 111.726 124.938 111.056C125.058 110.964 125.14 110.824 125.251 110.723C126.035 109.998 126.497 108.812 127.505 108.494C128.626 108.142 129.098 109.527 129.986 109.974C131.803 110.888 133.555 111.025 135.369 110.077C136.64 109.411 137.727 108.494 138.824 107.579C139.841 106.736 140.892 105.913 142.316 105.892C143.667 105.87 144.607 106.439 145.235 107.677C145.882 108.952 145.07 109.646 144.316 110.34C142.298 112.196 140.674 114.251 139.957 116.991C139.59 118.391 139.985 119.678 140.009 121.017C140.022 121.696 140.052 122.136 139.1 122.133C130.382 122.094 121.667 122.112 112.636 122.112V122.115Z" fill="#ECFFFE"/>
<path d="M66.849 86.6384C66.9685 88.0907 66.2149 88.9805 64.9099 89.3566C58.0574 91.3226 51.1987 93.2763 44.3308 95.1812C42.1926 95.7743 41.0684 95.0375 40.5078 92.8788C40.3669 92.3407 40.2229 91.7965 40.1678 91.2492C39.9717 89.3382 40.5936 88.4118 42.453 87.8859C48.6316 86.14 54.8133 84.4095 60.9951 82.6758C61.1421 82.6361 61.2983 82.6239 61.4392 82.5688C65.5042 81.0401 66.5182 82.792 66.8521 86.6384L66.849 86.6384Z" fill="#2B97B5"/>
<path d="M41.6933 83.801C41.6504 83.2812 42.0486 82.7309 42.4254 82.1927C42.8604 81.569 43.375 80.9973 43.8437 80.3949C45.6756 78.0253 46.57 75.4386 45.7062 72.43C45.5101 71.7513 45.4274 71.0388 45.311 70.3417C44.9894 68.4308 45.5683 67.2536 47.1245 66.6268C48.8644 65.9236 50.6534 66.4678 51.6306 68.0547C52.0564 68.7426 52.2984 69.5101 52.4699 70.3173C53.0918 73.2066 54.7582 75.1879 57.6438 76.0991C58.7037 76.4323 59.7391 76.8665 60.7531 77.3251C61.5587 77.689 62.0121 78.3464 61.9171 79.2759C61.8221 80.2053 61.0073 80.1075 60.4161 80.2451C54.7398 81.5812 49.2167 83.4647 43.5864 84.969C42.5908 85.235 41.7392 85.4674 41.6963 83.798L41.6933 83.801Z" fill="#F6CD57"/>
<path d="M170.039 122.103C166.917 122.103 165.885 121.421 165.459 119.204C165.11 117.385 166.247 115.3 168.039 114.471C169.901 113.612 172.508 114.269 173.663 115.89C174.848 117.556 174.677 119.92 173.298 121.513C172.297 122.668 170.982 121.806 170.039 122.103Z" fill="#F6CD57"/>
<path d="M146.387 112.016C148.008 115.101 147.689 118.311 147.686 121.482C147.686 121.837 147.511 122.045 147.138 122.051C146.835 122.057 146.525 122.1 146.225 122.066C145.042 121.932 143.373 122.681 142.773 121.733C141.97 120.461 142.27 118.691 142.644 117.159C143.1 115.281 143.967 114.165 146.387 112.016Z" fill="#F6CD57"/>
<path d="M68.206 53.7913C58.9672 53.7913 49.7313 53.7974 40.4925 53.7882C37.6038 53.7852 37.4292 53.5925 37.4292 50.7765C37.4292 46.0404 37.4261 41.3012 37.4292 36.5651C37.4292 34.914 37.9285 34.4126 39.6041 34.4126C58.5904 34.4095 77.5766 34.4187 96.5629 34.3881C97.5615 34.3881 97.8341 34.6419 97.825 35.6509C97.7729 41.2523 97.7545 46.8568 97.8372 52.4612C97.8556 53.6965 97.4359 53.828 96.376 53.8249C86.984 53.7852 77.595 53.8035 68.203 53.8035V53.7943L68.206 53.7913Z" fill="white"/>
<path d="M151.959 34.0214C161.345 34.0214 170.728 34.0214 180.114 34.0214C182.111 34.0214 182.565 34.4587 182.568 36.388C182.568 41.225 182.568 46.059 182.568 50.896C182.568 52.8712 182.096 53.3971 180.194 53.3971C161.272 53.4062 142.35 53.3971 123.428 53.4276C122.411 53.4276 122.181 53.1372 122.187 52.1618C122.236 46.5635 122.258 40.9621 122.178 35.3637C122.16 34.1254 122.604 33.997 123.655 34C133.09 34.0367 142.524 34.0214 151.962 34.0214H151.959Z" fill="white"/>
<path d="M129.061 31.9635C134.664 29.0436 140.202 26.0777 146.323 24.5123C148.213 24.0292 150.158 23.9375 152.024 24.711C152.627 24.9617 153.194 25.3195 153.543 25.9371C153.911 26.5883 154.539 26.6403 155.136 26.3988C155.773 26.1389 155.779 25.509 155.66 24.9495C155.301 23.2709 153.947 22.5891 152.529 22.106C149.346 21.0236 146.231 21.6198 143.134 22.6227C136.337 24.818 130.179 28.4106 123.756 31.4254C123.48 31.5538 123.232 31.8198 122.953 31.8473C122.147 31.9299 121.281 32.1103 120.53 31.9115C119.381 31.6058 120.098 30.5509 120.018 29.8477C119.712 27.1785 120.031 24.4511 119.262 21.8216C119.149 21.4395 119.25 21.1429 119.489 20.8402C124.77 14.1747 130.532 8.04743 138.23 4.07875C143.845 1.18326 148.807 2.66311 152.468 7.46344C155.764 11.7868 157.816 16.6422 158.588 22.0143C158.824 23.6531 158.469 25.1727 157.495 26.6128C155.96 28.8846 153.803 30.34 151.485 31.6394C151.08 31.8657 150.654 31.9727 150.177 31.9696C143.137 31.9574 136.098 31.9604 129.058 31.9604L129.061 31.9635Z" fill="#C9FFFD"/>
<path d="M91.0091 31.9666C83.9697 31.9666 76.9333 31.9941 69.8939 31.9543C65.7677 31.9299 60.946 26.9522 61.234 22.6686C61.7149 15.517 64.8303 9.49671 70.2094 4.7881C73.1257 2.23505 76.6454 2.00879 80.2294 3.3908C84.4384 5.01435 87.8877 7.79366 91.101 10.8512C93.1902 12.8386 95.2916 14.8107 97.0071 17.1895C97.8678 18.385 99.0717 19.3848 99.9876 20.5925C100.303 21.0114 100.585 21.3875 100.45 21.9684C99.7426 24.9617 99.7119 28.0193 99.7334 31.0676C99.7395 31.8473 99.5251 31.988 98.8236 31.9818C97.8954 31.9727 97.0561 31.8657 96.1953 31.4162C92.4703 29.4686 88.7852 27.4047 84.9285 25.7567C80.2172 23.7479 75.5671 21.3263 70.1972 21.5618C67.9702 21.6596 66.025 22.4087 64.6005 24.2096C64.1012 24.8394 63.6785 25.5671 64.4474 26.2214C65.1734 26.8421 65.8044 26.4722 66.4048 25.824C68.2857 23.7846 70.7669 23.9527 73.1073 24.4083C78.0177 25.3623 82.5545 27.4383 86.9105 29.8079C88.2828 30.554 89.6919 31.1777 91.0153 31.9666H91.0091Z" fill="#C9FFFD"/>
<path d="M109.812 34.0228C112.667 34.0228 115.522 34.0625 118.377 34.0014C119.333 33.98 119.568 34.2735 119.562 35.206C119.516 40.8533 119.507 46.5006 119.556 52.1479C119.565 53.1935 119.222 53.3984 118.248 53.3923C112.59 53.3464 106.932 53.3372 101.274 53.3984C100.215 53.4106 100.015 53.0743 100.022 52.1142C100.061 46.5189 100.074 40.9206 100.012 35.3253C100 34.2001 100.38 33.98 101.403 34.0014C104.206 34.0656 107.009 34.0228 109.815 34.0228H109.812Z" fill="#C9FFFD"/>
<path d="M109.848 31.9666C107.658 31.9666 105.468 31.9543 103.275 31.9727C102.696 31.9788 102.337 31.9207 102.34 31.1747C102.356 28.3801 102.325 25.5824 102.953 22.8367C103.428 20.7699 104.736 19.7425 106.843 19.7242C108.424 19.7089 110.005 19.7609 111.582 19.7058C115.528 19.5652 116.441 20.5833 117.038 24.1759C117.424 26.4936 117.301 28.8387 117.344 31.1747C117.356 31.9146 117.004 31.9788 116.416 31.9727C114.226 31.9513 112.036 31.9635 109.842 31.9635L109.848 31.9666Z" fill="#C9FFFD"/>
<path d="M97.2276 91.5091C97.3716 90.5857 96.9948 89.7602 96.2075 88.9683C94.9087 87.6627 94.9424 85.6386 96.1371 84.44C97.2889 83.2843 99.3566 83.2629 100.57 84.3972C101.767 85.5194 101.96 87.7422 100.662 88.9224C99.3168 90.1454 100.015 91.558 99.8743 92.885C99.8008 93.5668 100.38 93.3191 100.75 93.2213C101.994 92.8941 103.128 92.3438 104.114 91.5091C104.772 90.9495 105.471 90.6713 106.087 91.4846C106.641 92.2123 106.417 92.8789 105.734 93.472C102.089 96.6488 95.4724 96.8506 91.6831 93.8756C91.3645 93.6249 91.0582 93.3467 90.7855 93.0501C90.3046 92.5272 90.2403 91.9524 90.758 91.4235C91.2389 90.9343 91.8148 90.7814 92.3938 91.2584C93.3066 92.0075 94.2899 92.6343 95.4019 93.0287C97.1633 93.6494 97.2337 93.5821 97.2276 91.5121V91.5091Z" fill="#4ABAD9"/>
<path d="M91.34 81.8075C91.3277 83.2323 90.3414 84.3361 89.067 84.3544C87.7406 84.3728 86.6715 83.1773 86.7144 81.7219C86.7542 80.3796 87.7376 79.3034 88.9016 79.3278C90.3138 79.3584 91.3522 80.4133 91.3369 81.8075H91.34Z" fill="#4ABAD9"/>
<path d="M107.563 79.3462C108.749 79.3095 109.925 80.5264 109.971 81.8381C110.014 83.1192 109.006 84.2719 107.799 84.3269C106.46 84.3881 105.413 83.3638 105.382 81.9665C105.351 80.5111 106.286 79.389 107.563 79.3492L107.563 79.3462Z" fill="#4ABAD9"/>
<path d="M14.0021 226.014C14.0021 221.758 13.9973 217.501 14.0021 213.243C14.0045 210.929 14.8411 209.801 17.1118 209.736C21.1536 209.622 25.2217 209.39 29.2205 210.346C35.1266 211.758 39.5078 216.655 40.3157 222.661C40.9802 227.604 40.3898 232.252 37.3519 236.37C34.6342 240.055 30.8458 241.843 26.4024 242.374C23.5533 242.713 20.6827 242.593 17.8193 242.567C14.9295 242.541 14.0021 241.566 14.0021 238.664C14.0021 234.446 14.0021 230.23 14.0021 226.012V226.014ZM20.5488 225.943H20.5417C20.5417 229.246 20.5608 232.549 20.5273 235.849C20.5202 236.592 20.654 236.951 21.4954 236.889C22.4849 236.817 23.484 236.891 24.4783 236.865C28.4102 236.755 31.68 234.489 32.8798 230.931C33.9506 227.757 33.9984 224.53 32.9085 221.342C31.7827 218.051 29.4523 216.099 26.0463 215.427C24.5524 215.133 23.037 215.219 21.5312 215.152C20.7329 215.116 20.5226 215.374 20.5321 216.156C20.5728 219.418 20.5488 222.68 20.5488 225.943Z" fill="#4ABAD9"/>
<path d="M114.739 240.682C114.13 242.273 112.922 242.653 111.517 242.548C109.837 242.421 109.115 241.602 109.113 239.91C109.108 230.441 109.108 220.974 109.115 211.505C109.115 209.732 110.167 208.785 112.124 208.74C114.132 208.692 115.363 209.624 115.394 211.386C115.451 214.478 115.411 217.573 115.411 220.96C116.735 219.43 118.181 218.529 119.945 218.259C123.908 217.65 127.06 219.012 129.312 222.315C132.797 227.425 131.896 236.086 127.352 240.235C124.484 242.854 121.085 243.69 117.294 242.436C116.326 242.116 115.523 241.561 114.739 240.686V240.682ZM115.415 230.828H115.42C115.42 231.863 115.408 232.897 115.423 233.93C115.454 236 116.35 237.097 118.351 237.536C120.344 237.974 122.622 237.128 123.621 235.33C125.308 232.293 125.44 229.105 123.913 225.967C122.99 224.074 120.865 223.314 118.702 223.878C116.536 224.442 115.423 225.866 115.418 228.084C115.415 228.999 115.418 229.915 115.418 230.828H115.415Z" fill="#4ABAD9"/>
<path d="M163.253 240.691C162.782 242.149 161.675 242.553 160.365 242.584C158.458 242.629 157.578 241.769 157.578 239.869C157.576 230.515 157.588 221.16 157.569 211.806C157.566 210.597 157.779 209.545 159.017 209.082C160.423 208.556 161.838 208.549 163.083 209.521C163.719 210.018 163.886 210.752 163.879 211.553C163.857 214.22 163.869 216.887 163.867 219.554C163.867 219.937 163.867 220.317 163.867 220.955C165.213 219.437 166.623 218.481 168.427 218.235C173.222 217.58 177.154 219.774 178.808 224.315C180.634 229.336 180.357 234.243 177.223 238.748C174.878 242.115 170.502 243.664 166.582 242.644C165.32 242.316 164.252 241.671 163.253 240.691ZM173.397 230.245C173.452 228.976 173.232 227.694 172.684 226.478C171.324 223.448 167.407 222.716 165.017 225.044C164.307 225.735 163.857 226.531 163.867 227.561C163.884 229.786 163.857 232.013 163.879 234.238C163.893 235.648 164.574 236.633 165.879 237.199C168.286 238.244 171.045 237.321 172.347 235.003C173.165 233.545 173.444 231.958 173.397 230.242V230.245Z" fill="#4ABAD9"/>
<path d="M80.9394 239.941C78.1643 242.666 75.1025 243.493 71.6415 242.721C68.5152 242.025 66.5313 239.9 66.3329 237.207C66.058 233.45 67.638 230.702 70.8145 229.48C73.5393 228.433 76.4099 228.395 79.271 228.314C80.7768 228.271 80.8772 228.161 80.6501 226.66C80.2127 223.773 77.7652 223.042 74.9902 223.355C73.5011 223.522 72.1913 224.198 70.8958 224.911C69.5095 225.675 68.6227 225.599 67.8865 224.734C67.0715 223.773 67.1002 222.301 68.0132 221.225C69.4569 219.526 71.4455 218.828 73.5369 218.42C76.7637 217.789 79.9426 217.832 82.9256 219.462C85.5429 220.891 86.8168 223.207 86.879 226.096C86.977 230.632 86.9029 235.173 86.91 239.712C86.91 240.907 86.4296 241.829 85.3062 242.255C83.9988 242.749 82.6507 242.847 81.4461 241.946C80.8892 241.53 80.8437 240.856 80.937 239.939L80.9394 239.941ZM75.7455 238.132C79.0176 238.168 80.9155 236.143 80.7314 232.864C80.7003 232.312 80.5521 232.102 79.9761 232.097C78.3795 232.085 76.7948 232.176 75.2579 232.623C74.3783 232.879 73.513 233.225 72.9991 234.064C72.4422 234.975 72.3347 235.967 72.8366 236.906C73.4509 238.053 74.6077 238.122 75.7479 238.132H75.7455Z" fill="#4ABAD9"/>
<path d="M146.007 232.126C144.255 232.126 142.503 232.154 140.754 232.111C139.998 232.092 139.901 232.393 140.02 233.041C140.72 236.86 144.153 238.631 148.159 237.192C148.79 236.965 149.411 236.669 149.97 236.303C150.936 235.672 151.892 235.268 152.91 236.114C153.711 236.781 153.871 238.447 153.302 239.565C152.889 240.378 152.208 240.952 151.438 241.365C147.377 243.54 143.151 243.745 139.102 241.623C135.24 239.599 133.743 235.933 133.495 231.722C133.289 228.208 133.944 224.913 136.157 222.061C139.599 217.628 146.806 216.653 150.886 220.166C153.494 222.41 154.411 225.51 154.473 228.818C154.512 230.909 153.128 232.08 151.024 232.114C149.354 232.14 147.681 232.118 146.01 232.118V232.126H146.007ZM144.339 228.247C145.255 228.247 146.168 228.247 147.083 228.247C148.213 228.247 148.697 227.683 148.536 226.557C148.23 224.432 147.016 223.037 145.271 222.807C143.044 222.513 141.433 223.455 140.591 225.603C140.347 226.225 140.249 226.901 140.061 227.546C139.903 228.091 140.116 228.259 140.644 228.249C141.877 228.23 143.108 228.242 144.341 228.244L144.339 228.247Z" fill="#4ABAD9"/>
<path d="M55.1731 232.123C53.4617 232.123 51.7504 232.138 50.039 232.116C49.4677 232.109 49.2431 232.154 49.3267 232.881C49.7211 236.315 52.6108 238.292 56.2726 237.525C57.2837 237.312 58.2708 236.999 59.1289 236.389C60.0873 235.711 61.0697 235.199 62.1453 236.122C62.9245 236.791 63.056 238.579 62.4584 239.69C62.0258 240.493 61.3231 241.021 60.5487 241.439C54.3915 244.781 44.3145 243.327 42.8923 233.108C42.2589 228.55 43.0071 224.354 46.4537 221.041C49.5681 218.049 53.3661 217.356 57.3912 218.644C61.2538 219.882 62.7285 223.128 63.4671 226.806C63.577 227.348 63.6511 227.905 63.6655 228.46C63.7252 230.67 62.3987 232.071 60.1877 232.109C58.517 232.138 56.8439 232.114 55.1731 232.114V232.123ZM53.6171 228.247C54.3318 228.247 55.0488 228.247 55.7635 228.247C58.2923 228.249 58.3449 228.173 57.549 225.671C56.9419 223.766 55.8758 222.846 54.2147 222.791C51.5018 222.702 49.408 224.779 49.3769 227.554C49.3721 228.063 49.5108 228.266 50.0414 228.252C51.2341 228.223 52.4268 228.242 53.6171 228.245V228.247Z" fill="#4ABAD9"/>
<path d="M194.626 232.123C192.874 232.123 191.125 232.135 189.373 232.116C188.818 232.111 188.558 232.133 188.639 232.876C189.016 236.363 192.009 238.347 195.809 237.522C196.782 237.312 197.736 237.008 198.551 236.411C199.471 235.737 200.401 235.24 201.453 236.112C202.189 236.724 202.38 238.371 201.895 239.451C201.445 240.45 200.626 241.088 199.696 241.556C192.884 244.976 183.251 242.773 182.209 232.334C181.767 227.91 182.68 223.954 186.012 220.8C189.349 217.64 195.374 217.071 198.926 219.724C202.167 222.145 203.169 225.668 202.978 229.54C202.901 231.088 201.551 232.073 199.88 232.106C198.13 232.142 196.378 232.114 194.626 232.114V232.123ZM193.003 228.249C194.194 228.249 195.382 228.256 196.572 228.244C196.868 228.242 197.181 228.323 197.308 227.862C197.877 225.809 195.857 222.917 193.742 222.798C190.943 222.64 188.718 224.791 188.706 227.623C188.703 228.206 188.985 228.256 189.437 228.251C190.627 228.237 191.815 228.247 193.006 228.249H193.003Z" fill="#4ABAD9"/>
<path d="M97.4483 221.285C99.0952 219.445 100.89 218.176 103.366 218.233C105.41 218.281 106.538 219.414 106.517 221.436C106.495 223.5 105.508 224.452 103.386 224.442C102.513 224.437 101.629 224.335 100.775 224.571C98.9231 225.085 97.6802 226.832 97.6611 229.024C97.63 232.482 97.6395 235.942 97.6491 239.403C97.6539 240.572 97.5176 241.664 96.2939 242.204C94.9004 242.818 93.5021 242.763 92.1947 241.965C91.6163 241.611 91.4179 240.992 91.4179 240.311C91.4227 233.83 91.4059 227.348 91.4322 220.864C91.4394 219.227 92.6249 218.302 94.5251 218.321C96.4349 218.341 97.3145 219.199 97.4483 221.285Z" fill="#4ABAD9"/>
</svg>
