<svg width="34" height="34" viewBox="0 0 34 34" fill="none" xmlns="http://www.w3.org/2000/svg">
<path d="M5.33333 32H28.6667C30.5076 32 32 30.5076 32 28.6667V5.33333C32 3.49238 30.5076 2 28.6667 2H5.33333C3.49238 2 2 3.49238 2 5.33333V28.6667C2 30.5076 3.49238 32 5.33333 32ZM5.33333 32L23.6667 13.6666L32 22M13.6666 11.1666C13.6666 12.5473 12.5473 13.6666 11.1666 13.6666C9.78591 13.6666 8.66663 12.5473 8.66663 11.1666C8.66663 9.78591 9.78591 8.66663 11.1666 8.66663C12.5473 8.66663 13.6666 9.78591 13.6666 11.1666Z" stroke="white" stroke-width="3.5" stroke-linecap="round" stroke-linejoin="round"/>
</svg>
