<svg width="6" height="23" viewBox="0 0 6 23" fill="none" xmlns="http://www.w3.org/2000/svg">
<path d="M5.1051 2.55255C5.1051 3.96229 3.96229 5.1051 2.55255 5.1051C1.14282 5.1051 0 3.96229 0 2.55255C0 1.14282 1.14282 0 2.55255 0C3.96229 0 5.1051 1.14282 5.1051 2.55255Z" fill="#4ABAD9"/>
<path d="M5.1051 11.3333C5.1051 12.7431 3.96229 13.8859 2.55255 13.8859C1.14282 13.8859 0 12.7431 0 11.3333C0 9.92359 1.14282 8.78077 2.55255 8.78077C3.96229 8.78077 5.1051 9.92359 5.1051 11.3333Z" fill="#4ABAD9"/>
<path d="M5.1051 20.1141C5.1051 21.5238 3.96229 22.6666 2.55255 22.6666C1.14282 22.6666 0 21.5238 0 20.1141C0 18.7044 1.14282 17.5615 2.55255 17.5615C3.96229 17.5615 5.1051 18.7044 5.1051 20.1141Z" fill="#4ABAD9"/>
</svg>
