<svg width="52" height="52" viewBox="0 0 52 52" fill="none" xmlns="http://www.w3.org/2000/svg">
<path d="M7.77389 49.4035H44.2793C47.1595 49.4035 49.4943 47.0686 49.4943 44.1884V7.68307C49.4943 4.80288 47.1595 2.46802 44.2793 2.46802H7.77389C4.8937 2.46802 2.55884 4.80288 2.55884 7.68307V44.1884C2.55884 47.0686 4.8937 49.4035 7.77389 49.4035ZM7.77389 49.4035L36.4569 20.7204L49.4945 33.758M20.8112 16.809C20.8112 18.9692 19.0601 20.7203 16.8999 20.7203C14.7398 20.7203 12.9886 18.9692 12.9886 16.809C12.9886 14.6489 14.7398 12.8977 16.8999 12.8977C19.0601 12.8977 20.8112 14.6489 20.8112 16.809Z" stroke="white" stroke-width="3.5" stroke-linecap="round" stroke-linejoin="round"/>
</svg>
