<svg width="30" height="30" viewBox="0 0 30 30" fill="none" xmlns="http://www.w3.org/2000/svg">
<path d="M1.66545e-06 15.2247C0.000743041 11.984 1.06647 8.83335 3.03316 6.25762C4.99984 3.6819 7.7585 1.82387 10.8846 0.969491C14.0106 0.115111 17.3308 0.311731 20.3342 1.52909C23.3376 2.74645 25.8577 4.91708 27.5066 7.70692C29.1555 10.4968 29.842 13.7512 29.4602 16.9693C29.0785 20.1875 27.6497 23.191 25.3938 25.5176C23.138 27.8443 20.18 29.3651 16.9752 29.846C13.7703 30.3269 10.4963 29.7413 7.65685 28.1793L1.90978 29.9294C1.65344 30.0075 1.3807 30.0144 1.12072 29.9495C0.860743 29.8845 0.623316 29.7501 0.433833 29.5606C0.244351 29.3711 0.109941 29.1337 0.044981 28.8737C-0.0199789 28.6138 -0.0130452 28.341 0.0650404 28.0847L1.81518 22.3287C0.623087 20.1508 -0.00117682 17.7076 1.66545e-06 15.2247ZM8.86894 13.7466C8.86894 14.1386 9.02468 14.5146 9.30188 14.7918C9.57909 15.069 9.95507 15.2247 10.3471 15.2247H19.216C19.6081 15.2247 19.984 15.069 20.2613 14.7918C20.5385 14.5146 20.6942 14.1386 20.6942 13.7466C20.6942 13.3545 20.5385 12.9786 20.2613 12.7013C19.984 12.4241 19.6081 12.2684 19.216 12.2684H10.3471C9.95507 12.2684 9.57909 12.4241 9.30188 12.7013C9.02468 12.9786 8.86894 13.3545 8.86894 13.7466ZM10.3471 18.181C9.95507 18.181 9.57909 18.3368 9.30188 18.614C9.02468 18.8912 8.86894 19.2672 8.86894 19.6592C8.86894 20.0512 9.02468 20.4272 9.30188 20.7044C9.57909 20.9816 9.95507 21.1373 10.3471 21.1373H16.2597C16.6518 21.1373 17.0277 20.9816 17.3049 20.7044C17.5821 20.4272 17.7379 20.0512 17.7379 19.6592C17.7379 19.2672 17.5821 18.8912 17.3049 18.614C17.0277 18.3368 16.6518 18.181 16.2597 18.181H10.3471Z" fill="#B1DDEA"/>
</svg>
