<svg width="26" height="22" viewBox="0 0 26 22" fill="none" xmlns="http://www.w3.org/2000/svg">
<path d="M13 7.5C10.5838 7.5 8.625 9.45875 8.625 11.875C8.625 14.2912 10.5838 16.25 13 16.25C15.4162 16.25 17.375 14.2912 17.375 11.875C17.375 9.45875 15.4162 7.5 13 7.5Z" fill="#4ABAD9"/>
<path fill-rule="evenodd" clip-rule="evenodd" d="M9.90167 0.582981C10.9275 0.527893 11.9606 0.5 13 0.5C14.0394 0.5 15.0725 0.527893 16.0983 0.582981C17.2272 0.6436 18.233 1.26547 18.8196 2.20548L19.7776 3.74083C20.0566 4.18783 20.5302 4.49153 21.0728 4.56864C21.5224 4.63254 21.9703 4.70169 22.4165 4.77604C24.087 5.05441 25.25 6.51749 25.25 8.1697V18C25.25 19.933 23.683 21.5 21.75 21.5H4.25C2.317 21.5 0.75 19.933 0.75 18V8.16969C0.75 6.51748 1.913 5.0544 3.5835 4.77603C4.02968 4.70168 4.47761 4.63253 4.92723 4.56863C5.46982 4.49153 5.94344 4.18782 6.22237 3.74082L7.18045 2.20548C7.76703 1.26547 8.77278 0.6436 9.90167 0.582981ZM6.875 11.875C6.875 8.49226 9.61726 5.75 13 5.75C16.3827 5.75 19.125 8.49226 19.125 11.875C19.125 15.2577 16.3827 18 13 18C9.61726 18 6.875 15.2577 6.875 11.875ZM20.875 10.125C21.3582 10.125 21.75 9.73325 21.75 9.25C21.75 8.76675 21.3582 8.375 20.875 8.375C20.3918 8.375 20 8.76675 20 9.25C20 9.73325 20.3918 10.125 20.875 10.125Z" fill="#4ABAD9"/>
</svg>
