<svg width="27" height="33" viewBox="0 0 27 33" fill="none" xmlns="http://www.w3.org/2000/svg">
<path d="M22.5242 18.9235C23.5743 18.9235 24.5814 19.3406 25.3239 20.0832C26.0664 20.8257 26.4836 21.8328 26.4836 22.8829V23.8265C26.4836 28.5474 20.9273 32.1213 13.2857 32.1213C5.64418 32.1213 0.0878906 28.7335 0.0878906 23.8265V22.8829C0.0878906 21.8328 0.505035 20.8257 1.24756 20.0832C1.99008 19.3406 2.99716 18.9235 4.04724 18.9235H22.5242ZM13.2857 0.446533C14.3256 0.446533 15.3553 0.651356 16.3161 1.04931C17.2768 1.44726 18.1498 2.03055 18.8851 2.76587C19.6204 3.50119 20.2037 4.37414 20.6017 5.33488C20.9996 6.29562 21.2044 7.32534 21.2044 8.36523C21.2044 9.40513 20.9996 10.4348 20.6017 11.3956C20.2037 12.3563 19.6204 13.2293 18.8851 13.9646C18.1498 14.6999 17.2768 15.2832 16.3161 15.6812C15.3553 16.0791 14.3256 16.2839 13.2857 16.2839C11.1856 16.2839 9.1714 15.4496 7.68636 13.9646C6.20131 12.4796 5.36702 10.4654 5.36702 8.36523C5.36702 6.26506 6.20131 4.25091 7.68636 2.76587C9.1714 1.28082 11.1856 0.446533 13.2857 0.446533Z" fill="#B1DDEA"/>
</svg>
