<svg width="23" height="23" viewBox="0 0 23 23" fill="none" xmlns="http://www.w3.org/2000/svg">
<g clip-path="url(#clip0_139_654)">
<path d="M11.5225 0.359387C14.5008 0.363879 17.2006 1.53634 19.1996 3.44552L20.8033 1.84181C21.4771 1.16349 22.6406 1.64415 22.6406 2.60099V8.62501C22.6406 9.22247 22.16 9.70314 21.5625 9.70314H15.5385C14.5771 9.70314 14.0965 8.53966 14.7748 7.86134L16.6525 5.98361C15.2645 4.68536 13.4721 3.96661 11.5674 3.94865C7.4166 3.91271 3.91719 7.27286 3.95312 11.5584C3.98906 15.6328 7.28633 19.0469 11.5 19.0469C13.3463 19.0469 15.0938 18.3865 16.4684 17.1781C16.6795 16.9895 17.0029 17.0029 17.2051 17.2051L18.9885 18.9885C19.2086 19.2086 19.1951 19.5635 18.966 19.7701C16.9895 21.5535 14.3705 22.6406 11.5 22.6406C5.3457 22.6406 0.359375 17.6543 0.359375 11.5C0.359375 5.3547 5.37266 0.350403 11.5225 0.359387Z" fill="#4ABAD9"/>
</g>
<defs>
<clipPath id="clip0_139_654">
<rect width="23" height="23" fill="white"/>
</clipPath>
</defs>
</svg>
